<svg id="adobe-xd-1" xmlns="http://www.w3.org/2000/svg" width="55.891" height="41.955" viewBox="0 0 55.891 41.955">
  <path id="Trazado_210" data-name="Trazado 210" d="M45.994,41.955H9.9c-5.473,0-9.9-3.406-9.9-7.62V7.62C0,3.406,4.424,0,9.9,0h36.1c5.473,0,9.9,3.406,9.9,7.62V34.335C55.891,38.548,51.467,41.955,45.994,41.955Z" fill="#fff"/>
  <path id="Trazado_211" data-name="Trazado 211" d="M146.979,142.568H112.653c-4.657,0-8.453-2.923-8.453-6.508V110.708c0-3.585,3.8-6.508,8.453-6.508h34.3c4.681,0,8.453,2.923,8.453,6.508v25.335c.022,3.6-3.774,6.525-8.431,6.525Z" transform="translate(-101.87 -102.406)" fill="#def2f1"/>
  <path id="Trazado_212" data-name="Trazado 212" d="M478.355,602.229l6.521,9.646c.116.143.047.287-.141.287h-4.053a.481.481,0,0,1-.49-.232c-1.491-2.367-3-4.733-4.565-7.279h-.047c-1.4,2.4-2.935,4.931-4.424,7.3a.48.48,0,0,1-.42.2H466.9c-.232,0-.257-.143-.139-.251l6.38-9.36-6.17-9.467c-.141-.143,0-.251.139-.251h4.006c.232,0,.326.036.418.2,1.467,2.367,2.958,4.806,4.355,7.19h.047c1.35-2.367,2.841-4.823,4.286-7.172a.455.455,0,0,1,.42-.232h3.749c.186,0,.257.108.141.251Zm7.664,2.923c0-4.177,3.611-7.441,9.338-7.441.49,0,.744,0,1.212.036V593c0-.108.116-.179.233-.179h3.68c.185,0,.232.053.232.143v16.46a9.885,9.885,0,0,0,.116,1.757c0,.108-.047.143-.186.2a17.4,17.4,0,0,1-5.962,1.04c-5.055.016-8.665-2.386-8.663-7.264Zm10.548-4.589a4.445,4.445,0,0,0-1.35-.179c-2.935,0-4.983,1.738-4.983,4.627,0,3.3,2.1,4.627,4.728,4.627a5.559,5.559,0,0,0,1.607-.2v-8.876Z" transform="translate(-456.256 -582.597)" fill="#3aa"/>
</svg>
