<svg xmlns="http://www.w3.org/2000/svg" width="1154.841" height="826.107" viewBox="0 0 1154.841 826.107">
  <g id="banana1" transform="translate(-454.554 -5264.909)">
    <path id="Trazado_490" data-name="Trazado 490" d="M6719.295,5609.782c83.673-134.858,337.145-281.056,465.873-199.222s161.523,101.45,277.991,105.434,274.7-8.505,335,57.927-34.358,100.865-40.764,192.173c-4.073,58.053,190.019,166.727-34.642,225.881s-83.58,112.612-110.645,138.842c-69.574,67.429-163.362,32.795-320.594,42.909-80.817,5.2-304.96,70.578-416.833,20.542s97.341-117.125,0-161.529C6668.41,5938.646,6635.622,5744.64,6719.295,5609.782Z" transform="translate(-6222 -122)" fill="#fff"/>
    <g id="banana1-2" data-name="banana1" transform="translate(521 5303)">
      <ellipse id="Elipse_45" data-name="Elipse 45" cx="256" cy="43" rx="256" ry="43" transform="translate(233.256 625.435)" fill="#dee3f3" opacity="0.5"/>
      <g id="Grupo_17" data-name="Grupo 17" opacity="0.45">
        <path id="Trazado_416" data-name="Trazado 416" d="M536.5,332.707a11.128,11.128,0,0,0,.1,1.437,11.106,11.106,0,0,1-.1-1.437Z" transform="translate(-85.734 -73.739)" fill="#efca16"/>
        <path id="Trazado_417" data-name="Trazado 417" d="M665.418,301.82c.019.128.044.255.059.385C665.462,302.075,665.438,301.948,665.418,301.82Z" transform="translate(-85.734 -73.739)" fill="#efca16"/>
        <path id="Trazado_418" data-name="Trazado 418" d="M665.15,300.546c.037.133.072.268.1.4C665.222,300.813,665.187,300.68,665.15,300.546Z" transform="translate(-85.734 -73.739)" fill="#efca16"/>
        <path id="Trazado_419" data-name="Trazado 419" d="M665.284,335.124c-.049.221-.106.438-.168.654C665.178,335.562,665.235,335.345,665.284,335.124Z" transform="translate(-85.734 -73.739)" fill="#efca16"/>
        <path id="Trazado_420" data-name="Trazado 420" d="M665.464,334.069c-.029.235-.063.467-.106.7C665.4,334.536,665.435,334.3,665.464,334.069Z" transform="translate(-85.734 -73.739)" fill="#efca16"/>
        <path id="Trazado_421" data-name="Trazado 421" d="M542.464,342.523a11.129,11.129,0,0,1-2.368-1.666A11.092,11.092,0,0,0,542.464,342.523Z" transform="translate(-85.734 -73.739)" fill="#efca16"/>
        <path id="Trazado_422" data-name="Trazado 422" d="M540.009,340.779a11.142,11.142,0,0,1-.945-1,11.1,11.1,0,0,0,.945,1Z" transform="translate(-85.734 -73.739)" fill="#efca16"/>
        <path id="Trazado_423" data-name="Trazado 423" d="M730.248,552.174a10.962,10.962,0,0,0-.471-1.286,10.985,10.985,0,0,1,.471,1.286Z" transform="translate(-85.734 -73.739)" fill="#efca16"/>
        <path id="Trazado_424" data-name="Trazado 424" d="M724.741,545.507a11.106,11.106,0,0,1,1.262.769A11.065,11.065,0,0,0,724.741,545.507Z" transform="translate(-85.734 -73.739)" fill="#efca16"/>
        <path id="Trazado_425" data-name="Trazado 425" d="M727.219,547.272a11.129,11.129,0,0,1,1.767,2.139,11.115,11.115,0,0,0-1.767-2.139Z" transform="translate(-85.734 -73.739)" fill="#efca16"/>
        <path id="Trazado_426" data-name="Trazado 426" d="M726.041,546.3a11.184,11.184,0,0,1,1.05.852,11.116,11.116,0,0,0-1.05-.852Z" transform="translate(-85.734 -73.739)" fill="#efca16"/>
        <path id="Trazado_427" data-name="Trazado 427" d="M729.682,550.69a11.005,11.005,0,0,0-.555-1.046A10.984,10.984,0,0,1,729.682,550.69Z" transform="translate(-85.734 -73.739)" fill="#efca16"/>
        <path id="Trazado_428" data-name="Trazado 428" d="M730.553,553.54a11,11,0,0,0-.235-1.095A11.031,11.031,0,0,1,730.553,553.54Z" transform="translate(-85.734 -73.739)" fill="#efca16"/>
        <path id="Trazado_429" data-name="Trazado 429" d="M1064.2,492.883h-63.653a11.056,11.056,0,0,0,4.762-9.093V454.567a11.074,11.074,0,0,0-11.074-11.074H920.971a11.076,11.076,0,0,0,7.708-10.55V403.721a11.056,11.056,0,0,0-4.762-9.093h70.319a11.074,11.074,0,0,0,11.074-11.074V354.331a11.074,11.074,0,0,0-11.074-11.074H915.957a11.076,11.076,0,0,0,7.708-10.55V303.484a11.056,11.056,0,0,0-4.762-9.093h75.331a11.074,11.074,0,0,0,11.074-11.074V254.1a11.074,11.074,0,0,0-11.074-11.074H954.8a11.076,11.076,0,0,0,7.708-10.55V203.248a11.075,11.075,0,0,0-11.075-11.074h-106.9a11.074,11.074,0,0,0-11.074,11.075,11.074,11.074,0,0,0-11.074-11.074H715.473a11.066,11.066,0,0,0-10.035,6.412,11.1,11.1,0,0,1,.214,2.156v29.222a11.013,11.013,0,0,1-1.036,4.654,11.053,11.053,0,0,0,3.853,6.42h27.456a11.026,11.026,0,0,1,7.014,2.506h11.97a11.077,11.077,0,0,0-7.708,10.55,11.1,11.1,0,0,0-.207-2.1c0,.039.006.077.006.117v29.222a11.065,11.065,0,0,1-.361,2.762,4.029,4.029,0,0,1,.475.611,11.137,11.137,0,0,0,.087-1.391,11.051,11.051,0,0,0,.186,1.914,3.267,3.267,0,0,1,.248,1.109,11.091,11.091,0,0,0,4.329,6.071h-9.525c.085-.059.161-.131.245-.192-.885.022-1.775-.075-2.661-.085a2.461,2.461,0,0,1-.92-.191,11.063,11.063,0,0,1-3.176.468l-65.605,1.981a11.057,11.057,0,0,0-4.762,9.093v29.222a11.076,11.076,0,0,0,7.706,10.549l62.661.525a11.07,11.07,0,0,1,3.25.487,12.111,12.111,0,0,1,2.07.364c.052-.012.1-.016.157-.027a11,11,0,0,0-1.91-.824h15.416a11.077,11.077,0,0,0-7.708,10.55,11.126,11.126,0,0,0-.169-1.915,2.45,2.45,0,0,1-.243.3,11.119,11.119,0,0,1,.211,2.142v29.222c0,1.356.2,1.03.2-.525a11.056,11.056,0,0,0,4.762,9.093l39.092,1.253a11.027,11.027,0,0,1,3.923.728h9.408a11.118,11.118,0,0,0-3.827,4.682,11.006,11.006,0,0,1,1.571,5.664V434.2a11.032,11.032,0,0,1-.929,4.434,11.1,11.1,0,0,0,6.132,4.863H797.059a11.012,11.012,0,0,1-6,1.778H752.274a11.053,11.053,0,0,0-5.074,9.3c0-3.9-1.454,34.557-1.454,34.557,0,3.454,60.344,5.012,60.344,5.012a11.027,11.027,0,0,1,4.454.939,7.745,7.745,0,0,1,1.916-.165c-.02-.014-.038-.031-.058-.045h9.524a11.056,11.056,0,0,0-4.762,9.093,11.091,11.091,0,0,0-.122-1.579c-.053.12-.107.239-.166.353a11.078,11.078,0,0,1,.289,2.479v27.969a11.074,11.074,0,0,0,11.074,11.074H811.2a11.017,11.017,0,0,1-5.105,1.253H736.679a11.066,11.066,0,0,0-5.969,9.821V584.55a11.075,11.075,0,0,0,11.074,11.074H848.69a11.074,11.074,0,0,0,11.074-11.075,11.074,11.074,0,0,0,11.075,11.074H977.744a11.074,11.074,0,0,0,11.074-11.075V555.328a11.074,11.074,0,0,0-11.075-11.074H1064.2a11.074,11.074,0,0,0,11.074-11.074V503.957a11.074,11.074,0,0,0-11.074-11.074ZM799.373,294.391a11.057,11.057,0,0,0-4.762,9.093,11.057,11.057,0,0,0-4.762-9.093ZM786.9,343.256a11.076,11.076,0,0,0,7.708-10.55,11.075,11.075,0,0,0,7.706,10.549ZM825.744,243.02a11.076,11.076,0,0,0,7.708-10.55,11.076,11.076,0,0,0,7.706,10.549Zm34.02,312.308a11.074,11.074,0,0,0-11.074-11.074h22.149a11.074,11.074,0,0,0-11.075,11.075Zm11.727-62.445a11.056,11.056,0,0,0,4.762-9.093,11.057,11.057,0,0,0,4.762,9.093Zm4.762-38.315a11.076,11.076,0,0,0-7.706-10.549h15.414a11.077,11.077,0,0,0-7.709,10.55Zm-4.762-61.921a11.056,11.056,0,0,0,4.762-9.093,11.057,11.057,0,0,0,4.762,9.093Zm4.762-38.315a11.076,11.076,0,0,0-7.706-10.549h15.414a11.077,11.077,0,0,0-7.709,10.55Zm-4.762-61.921a11.056,11.056,0,0,0,4.762-9.093,11.057,11.057,0,0,0,4.763,9.093Zm4.762-38.315a11.076,11.076,0,0,0-7.706-10.549h15.414a11.077,11.077,0,0,0-7.709,10.55ZM950.98,494.863a11.056,11.056,0,0,0-4.762,9.093,11.056,11.056,0,0,0-4.762-9.093Zm-15.837,49.39a11.074,11.074,0,0,0,11.074-11.075,11.074,11.074,0,0,0,11.075,11.074Z" transform="translate(-85.734 -73.739)" fill="#efca16"/>
        <path id="Trazado_430" data-name="Trazado 430" d="M747.2,483.79" transform="translate(-85.734 -73.739)" fill="#efca16"/>
        <path id="Trazado_431" data-name="Trazado 431" d="M730.71,555.328a11.142,11.142,0,0,0-.1-1.41,11.1,11.1,0,0,1,.1,1.41Z" transform="translate(-85.734 -73.739)" fill="#efca16"/>
        <path id="Trazado_432" data-name="Trazado 432" d="M665.557,332.707c0,.351-.021.7-.053,1.039C665.536,333.4,665.557,333.058,665.557,332.707Z" transform="translate(-85.734 -73.739)" fill="#efca16"/>
        <path id="Trazado_433" data-name="Trazado 433" d="M536.63,334.358a10.957,10.957,0,0,0,.283,1.317A10.957,10.957,0,0,1,536.63,334.358Z" transform="translate(-85.734 -73.739)" fill="#efca16"/>
        <path id="Trazado_434" data-name="Trazado 434" d="M412.7,399.654a2.522,2.522,0,0,1-.473-.561,2.7,2.7,0,0,1-.314-.924,22.37,22.37,0,0,0,.034,2.277,11,11,0,0,1,.514,3.275,11,11,0,0,1,.486-3.186,4.582,4.582,0,0,1-.234-.775C412.7,399.724,412.7,399.69,412.7,399.654Z" transform="translate(-85.734 -73.739)" fill="#efca16"/>
        <path id="Trazado_435" data-name="Trazado 435" d="M564.27,192.174H457.364a11.074,11.074,0,0,0-11.074,11.075,11.074,11.074,0,0,0-11.075-11.075H328.31a11.074,11.074,0,0,0-11.074,11.074v29.222a11.076,11.076,0,0,0,7.706,10.549H242.057a11.074,11.074,0,0,0-11.074,11.074v29.222a11.056,11.056,0,0,0,4.762,9.093H160.414a11.074,11.074,0,0,0-11.074,11.074v29.222a11.074,11.074,0,0,0,11.074,11.074h78.277a11.077,11.077,0,0,0-7.708,10.55v29.222a11.056,11.056,0,0,0,4.762,9.093H165.426a11.074,11.074,0,0,0-11.074,11.074v29.222a11.074,11.074,0,0,0,11.074,11.074h73.265a11.077,11.077,0,0,0-7.708,10.55v29.222a11.075,11.075,0,0,0,11.075,11.075h63.652a11.056,11.056,0,0,0-4.762,9.093V533.18a11.074,11.074,0,0,0,11.074,11.074H225.568a11.074,11.074,0,0,0-11.074,11.074v29.222a11.074,11.074,0,0,0,11.074,11.074h106.9a11.074,11.074,0,0,0,11.074-11.074,11.074,11.074,0,0,0,11.075,11.074h106.9A11.074,11.074,0,0,0,472.6,584.551V555.328a11.066,11.066,0,0,0-5.968-9.821H443.582a11.018,11.018,0,0,1-5.107-1.254H418.927A11.074,11.074,0,0,0,430,533.179c0,4.819,2.506-27.969,2.506-27.969a11.074,11.074,0,0,1,11.074-11.074l40.747-1.253a11.149,11.149,0,0,0,2.935-3.029,11,11,0,0,1-.879-4.286V456.345a11.017,11.017,0,0,1,1.832-6.094,11.107,11.107,0,0,0-4.2-4.98H426.04a11.012,11.012,0,0,1-6-1.778H404.752a11.076,11.076,0,0,0,7.708-10.55l-.393-29.009c0-1.307-.07-2.464-.122-3.488a11.094,11.094,0,0,0-4.248-5.818h9.524c-.072.05-.135.11-.206.162,5.4-.31,67.074-3.927,72.089-7.963a8.7,8.7,0,0,1-.074-2.318,11.106,11.106,0,0,1-.141-1.683V353.6c0-.363.02-.721.054-1.074a11.088,11.088,0,0,0-7.562-8.747h13.477a11.017,11.017,0,0,1,5.105-1.253h30.568a11.064,11.064,0,0,0,5.97-9.821V303.484a11.056,11.056,0,0,0-4.762-9.093l-31.776-1.981c-5.385,0-8.947-1.972-6.111,0h-9.525a11.055,11.055,0,0,0,4.758-9.028,11.119,11.119,0,0,1-.2-2.047V252.113c0-.024,0-.047,0-.071a11.086,11.086,0,0,0-7.511-8.5h11.568a11.026,11.026,0,0,1,7.014-2.506h71.309a11.04,11.04,0,0,0,4.07-8.568V203.248a11.074,11.074,0,0,0-11.074-11.074ZM283.156,294.391a11.056,11.056,0,0,0-4.762,9.093,11.056,11.056,0,0,0-4.762-9.093Zm-4.762,38.315a11.076,11.076,0,0,0,7.706,10.549H270.686a11.076,11.076,0,0,0,7.708-10.549Zm9.774,61.921a11.056,11.056,0,0,0-4.762,9.093,11.057,11.057,0,0,0-4.762-9.093ZM275.7,443.492a11.076,11.076,0,0,0,7.708-10.55,11.076,11.076,0,0,0,7.706,10.549Zm136.513-149.1a11.057,11.057,0,0,0-4.762,9.093,11.056,11.056,0,0,0-4.762-9.093ZM343.548,555.328a11.074,11.074,0,0,0-11.075-11.074h22.149a11.074,11.074,0,0,0-11.074,11.074Zm11.727-62.445a11.056,11.056,0,0,0,4.762-9.093,11.056,11.056,0,0,0,4.762,9.093Zm4.762-38.315a11.076,11.076,0,0,0-7.706-10.549h15.414a11.077,11.077,0,0,0-7.708,10.55Zm-4.762-61.921a11.056,11.056,0,0,0,4.762-9.093,11.056,11.056,0,0,0,4.762,9.093Zm4.762-38.315a11.076,11.076,0,0,0-7.706-10.549h15.414a11.077,11.077,0,0,0-7.708,10.55Zm-4.762-61.921a11.056,11.056,0,0,0,4.762-9.093,11.056,11.056,0,0,0,4.762,9.093Zm4.762-38.315a11.076,11.076,0,0,0-7.706-10.549h15.414a11.077,11.077,0,0,0-7.708,10.55Zm39.7,89.162a11.076,11.076,0,0,0,7.708-10.55,11.076,11.076,0,0,0,7.706,10.549ZM438.582,243.02a11.076,11.076,0,0,0,7.708-10.55A11.076,11.076,0,0,0,454,243.02Z" transform="translate(-85.734 -73.739)" fill="#efca16"/>
        <path id="Trazado_436" data-name="Trazado 436" d="M540.143,295.293c.053-.048.1-.1.157-.143C540.247,295.2,540.2,295.245,540.143,295.293Z" transform="translate(-85.734 -73.739)" fill="#efca16"/>
        <path id="Trazado_437" data-name="Trazado 437" d="M539.407,296.027c-.054.06-.109.118-.163.179C539.3,296.145,539.353,296.086,539.407,296.027Z" transform="translate(-85.734 -73.739)" fill="#efca16"/>
        <path id="Trazado_438" data-name="Trazado 438" d="M538.478,297.18c.025-.036.054-.07.079-.106C538.531,297.11,538.5,297.144,538.478,297.18Z" transform="translate(-85.734 -73.739)" fill="#efca16"/>
        <path id="Trazado_439" data-name="Trazado 439" d="M536.979,335.9a10.985,10.985,0,0,0,.463,1.266,10.987,10.987,0,0,1-.463-1.266Z" transform="translate(-85.734 -73.739)" fill="#efca16"/>
        <path id="Trazado_440" data-name="Trazado 440" d="M538.16,338.53a11.068,11.068,0,0,0,.819,1.14A11.058,11.058,0,0,1,538.16,338.53Z" transform="translate(-85.734 -73.739)" fill="#efca16"/>
        <path id="Trazado_441" data-name="Trazado 441" d="M537.5,337.283a11.011,11.011,0,0,0,.656,1.236,10.991,10.991,0,0,1-.656-1.236Z" transform="translate(-85.734 -73.739)" fill="#efca16"/>
        <path id="Trazado_442" data-name="Trazado 442" d="M536.806,300.949c.032-.135.067-.27.1-.4C536.872,300.68,536.837,300.813,536.806,300.949Z" transform="translate(-85.734 -73.739)" fill="#efca16"/>
        <path id="Trazado_443" data-name="Trazado 443" d="M537.18,299.7c.04-.11.077-.222.121-.33C537.257,299.479,537.22,299.591,537.18,299.7Z" transform="translate(-85.734 -73.739)" fill="#efca16"/>
        <path id="Trazado_444" data-name="Trazado 444" d="M536.582,302.2c.015-.13.039-.256.059-.385C536.621,301.948,536.6,302.075,536.582,302.2Z" transform="translate(-85.734 -73.739)" fill="#efca16"/>
        <path id="Trazado_445" data-name="Trazado 445" d="M537.79,298.309c.007-.013.012-.026.019-.039C537.8,298.282,537.8,298.3,537.79,298.309Z" transform="translate(-85.734 -73.739)" fill="#efca16"/>
        <rect id="Rectángulo_70" data-name="Rectángulo 70" width="129.054" height="51.371" rx="8.839" transform="translate(361.808 169.806) rotate(180)" opacity="0.1"/>
        <rect id="Rectángulo_71" data-name="Rectángulo 71" width="129.054" height="51.371" rx="8.839" transform="translate(747.718 169.806) rotate(180)" opacity="0.1"/>
        <rect id="Rectángulo_72" data-name="Rectángulo 72" width="129.054" height="51.371" rx="8.839" transform="translate(919.373 219.924) rotate(180)" opacity="0.1"/>
        <rect id="Rectángulo_73" data-name="Rectángulo 73" width="129.054" height="51.371" rx="8.839" transform="translate(708.876 270.042) rotate(180)" opacity="0.1"/>
        <rect id="Rectángulo_74" data-name="Rectángulo 74" width="129.054" height="51.371" rx="8.839" transform="translate(919.373 321.413) rotate(180)" opacity="0.1"/>
        <rect id="Rectángulo_75" data-name="Rectángulo 75" width="129.054" height="51.371" rx="8.839" transform="translate(919.373 421.65) rotate(180)" opacity="0.1"/>
        <path id="Trazado_446" data-name="Trazado 446" d="M938.155,494.136H825.227a8.062,8.062,0,0,0-7.736,5.8,5.155,5.155,0,0,1-.091,1.359,5.711,5.711,0,0,1-.229.772c0,.043-.007.085-.007.129v35.245a8.063,8.063,0,0,0,8.063,8.063H938.155a8.063,8.063,0,0,0,8.063-8.063V502.2a8.063,8.063,0,0,0-8.063-8.063Z" transform="translate(-85.734 -73.739)" opacity="0.1"/>
        <rect id="Rectángulo_76" data-name="Rectángulo 76" width="129.054" height="51.371" rx="8.839" transform="translate(774.03 521.885) rotate(180)" opacity="0.1"/>
        <rect id="Rectángulo_77" data-name="Rectángulo 77" width="129.054" height="51.371" rx="8.839" transform="translate(403.156 219.924) rotate(180)" opacity="0.1"/>
        <rect id="Rectángulo_78" data-name="Rectángulo 78" width="129.054" height="51.371" rx="8.839" transform="translate(322.967 270.042) rotate(180)" opacity="0.1"/>
        <rect id="Rectángulo_79" data-name="Rectángulo 79" width="129.054" height="51.371" rx="8.839" transform="translate(274.102 321.413) rotate(180)" opacity="0.1"/>
        <rect id="Rectángulo_80" data-name="Rectángulo 80" width="129.054" height="51.371" rx="8.839" transform="translate(326.726 371.532) rotate(180)" opacity="0.1"/>
        <rect id="Rectángulo_81" data-name="Rectángulo 81" width="129.054" height="51.371" rx="8.839" transform="translate(274.102 421.65) rotate(180)" opacity="0.1"/>
        <rect id="Rectángulo_82" data-name="Rectángulo 82" width="129.054" height="51.371" rx="8.839" transform="translate(215.718 471.823) rotate(180)" fill="#efca16"/>
        <rect id="Rectángulo_83" data-name="Rectángulo 83" width="129.054" height="51.371" rx="8.839" transform="translate(969.236 371.476) rotate(180)" fill="#efca16"/>
        <rect id="Rectángulo_84" data-name="Rectángulo 84" width="129.054" height="51.371" rx="8.839" transform="translate(963.762 270.216) rotate(180)" fill="#efca16"/>
        <rect id="Rectángulo_85" data-name="Rectángulo 85" width="129.054" height="51.371" rx="8.839" transform="translate(1028.531 521.084) rotate(180)" fill="#efca16"/>
        <rect id="Rectángulo_86" data-name="Rectángulo 86" width="129.054" height="51.371" rx="8.839" transform="translate(129.054 521.997) rotate(180)" fill="#efca16"/>
        <rect id="Rectángulo_87" data-name="Rectángulo 87" width="129.054" height="51.371" rx="8.839" transform="translate(146.387 420.737) rotate(180)" fill="#efca16"/>
        <rect id="Rectángulo_88" data-name="Rectángulo 88" width="129.054" height="51.371" rx="8.839" transform="translate(146.387 321.302) rotate(180)" fill="#efca16"/>
        <rect id="Rectángulo_89" data-name="Rectángulo 89" width="129.054" height="51.371" rx="8.839" transform="translate(150.948 220.043) rotate(180)" fill="#efca16"/>
        <rect id="Rectángulo_90" data-name="Rectángulo 90" width="129.054" height="51.371" rx="8.839" transform="translate(150.948 220.043) rotate(180)" opacity="0.1"/>
        <rect id="Rectángulo_91" data-name="Rectángulo 91" width="129.054" height="51.371" rx="8.839" transform="translate(233.05 169.869) rotate(180)" fill="#efca16"/>
        <rect id="Rectángulo_92" data-name="Rectángulo 92" width="129.054" height="51.371" rx="8.839" transform="translate(345.52 471.767) rotate(180)" opacity="0.1"/>
        <rect id="Rectángulo_93" data-name="Rectángulo 93" width="129.054" height="51.371" rx="8.839" transform="translate(257.814 521.885) rotate(180)" opacity="0.1"/>
      </g>
      <path id="Trazado_447" data-name="Trazado 447" d="M337.673,155.093h-6.88a4.817,4.817,0,1,0,0-9.633H275.059a4.817,4.817,0,1,0,0,9.633h6.881a4.817,4.817,0,0,0,0,9.633h-9.633a4.817,4.817,0,1,0,0,9.633h55.734a4.817,4.817,0,1,0,0-9.633h9.633a4.817,4.817,0,0,0,0-9.633Z" transform="translate(-85.734 -73.739)" fill="#dee3f3" opacity="0.5"/>
      <path id="Trazado_449" data-name="Trazado 449" d="M469.673,87.093h-6.88a4.817,4.817,0,1,0,0-9.633H407.059a4.817,4.817,0,1,0,0,9.633h6.881a4.817,4.817,0,0,0,0,9.633h-9.633a4.817,4.817,0,1,0,0,9.633h55.734a4.817,4.817,0,1,0,0-9.633h9.633a4.817,4.817,0,1,0,0-9.633Z" transform="translate(-85.734 -73.739)" fill="#dee3f3" opacity="0.5"/>
      <rect id="Rectángulo_94" data-name="Rectángulo 94" width="232.009" height="107.599" rx="12.97" transform="translate(377.905 264.742)" fill="#efca16"/>
      <rect id="Rectángulo_95" data-name="Rectángulo 95" width="195.022" height="2.017" transform="translate(396.399 355.826)" opacity="0.1"/>
      <rect id="Rectángulo_96" data-name="Rectángulo 96" width="195.022" height="73.974" transform="translate(396.399 281.554)" opacity="0.3"/>
      <circle id="Elipse_47" data-name="Elipse 47" cx="26.9" cy="26.9" r="26.9" transform="translate(414.892 293.185)" opacity="0.1"/>
      <circle id="Elipse_48" data-name="Elipse 48" cx="26.9" cy="26.9" r="26.9" transform="translate(519.128 293.185)" opacity="0.1"/>
      <rect id="Rectángulo_97" data-name="Rectángulo 97" width="40.347" height="23.543" transform="translate(473.734 372.337)" fill="#efca16"/>
      <rect id="Rectángulo_98" data-name="Rectángulo 98" width="168.123" height="134.498" transform="translate(409.848 389.152)" fill="#efca16"/>
      <rect id="Rectángulo_99" data-name="Rectángulo 99" width="174.848" height="16.812" transform="translate(406.486 550.55)" fill="#efca16"/>
      <path id="Trazado_450" data-name="Trazado 450" d="M435.067,607.712v77.336h30.262V584.175H435.067Z" fill="#efca16"/>
      <path id="Trazado_451" data-name="Trazado 451" d="M525.853,584.175V685.048h30.262V584.175Z" fill="#efca16"/>
      <path id="Trazado_452" data-name="Trazado 452" d="M472.683,493.155v31.1a45.489,45.489,0,0,0-22.354,10.776,52.883,52.883,0,0,0-13.308,19.513c-3.89,9.425-5.782,19.892-6.553,29.788a170.314,170.314,0,0,0,1.86,39.961H398.7c-1.428-18.587-.973-34.535.88-48.229,2.076-15.438,5.921-28,10.791-38.225,9.741-20.432,23.6-31.517,35.77-37.538C460.6,493.155,472.683,493.155,472.683,493.155Z" transform="translate(-85.734 -73.739)" fill="#efca16"/>
      <rect id="Rectángulo_100" data-name="Rectángulo 100" width="30.262" height="23.537" transform="translate(435.067 584.175)" opacity="0.3"/>
      <rect id="Rectángulo_101" data-name="Rectángulo 101" width="30.262" height="30.262" transform="translate(435.067 627.887)" opacity="0.3"/>
      <rect id="Rectángulo_102" data-name="Rectángulo 102" width="30.262" height="10.087" transform="translate(435.067 674.961)" opacity="0.3"/>
      <rect id="Rectángulo_103" data-name="Rectángulo 103" width="30.262" height="23.537" transform="translate(525.853 584.175)" opacity="0.3"/>
      <rect id="Rectángulo_104" data-name="Rectángulo 104" width="30.262" height="30.262" transform="translate(525.853 627.887)" opacity="0.3"/>
      <rect id="Rectángulo_105" data-name="Rectángulo 105" width="30.262" height="10.087" transform="translate(525.853 674.961)" opacity="0.3"/>
      <path id="Trazado_453" data-name="Trazado 453" d="M472.683,493.155v31.1a45.489,45.489,0,0,0-22.354,10.776L446.145,500.3C460.6,493.155,472.683,493.155,472.683,493.155Z" transform="translate(-85.734 -73.739)" opacity="0.3"/>
      <path id="Trazado_454" data-name="Trazado 454" d="M437.021,554.544c-3.89,9.425-5.782,19.892-6.553,29.788l-30.884-8.267c2.076-15.438,5.921-28,10.791-38.225Z" transform="translate(-85.734 -73.739)" opacity="0.3"/>
      <path id="Trazado_455" data-name="Trazado 455" d="M686.6,493.155v31.1a45.49,45.49,0,0,1,22.354,10.776,52.884,52.884,0,0,1,13.308,19.513c3.89,9.425,5.782,19.892,6.553,29.788a170.316,170.316,0,0,1-1.86,39.961h33.624c1.428-18.587.973-34.535-.88-48.229-2.076-15.438-5.921-28-10.791-38.225-9.741-20.432-23.6-31.517-35.77-37.538C698.685,493.155,686.6,493.155,686.6,493.155Z" transform="translate(-85.734 -73.739)" fill="#efca16"/>
      <path id="Trazado_456" data-name="Trazado 456" d="M686.6,493.155v31.1a45.49,45.49,0,0,1,22.354,10.776l4.184-34.728C698.685,493.155,686.6,493.155,686.6,493.155Z" transform="translate(-85.734 -73.739)" opacity="0.3"/>
      <path id="Trazado_457" data-name="Trazado 457" d="M722.267,554.544c3.89,9.425,5.782,19.892,6.553,29.788l30.884-8.267c-2.076-15.438-5.921-28-10.791-38.225Z" transform="translate(-85.734 -73.739)" opacity="0.3"/>
      <rect id="Rectángulo_106" data-name="Rectángulo 106" width="40.347" height="2.787" transform="translate(473.734 372.337)" opacity="0.1"/>
      <path id="Trazado_458" data-name="Trazado 458" d="M666.693,486.856v56.31a11.733,11.733,0,0,1-3.126-7.982V494.83a11.714,11.714,0,0,1,3.126-7.974Z" transform="translate(-85.734 -73.739)" opacity="0.1"/>
      <path id="Trazado_459" data-name="Trazado 459" d="M496.18,490.569v42.154a11.721,11.721,0,0,1-3.134,7.132V483.437a11.721,11.721,0,0,1,3.134,7.132Z" transform="translate(-85.734 -73.739)" opacity="0.1"/>
      <rect id="Rectángulo_107" data-name="Rectángulo 107" width="151.308" height="1.992" transform="translate(418.257 523.653)" opacity="0.1"/>
      <rect id="Rectángulo_108" data-name="Rectángulo 108" width="73.971" height="1.544" transform="translate(414.892 567.366)" opacity="0.1"/>
      <rect id="Rectángulo_109" data-name="Rectángulo 109" width="73.971" height="1.544" transform="translate(495.594 567.366)" opacity="0.1"/>
      <rect id="Rectángulo_110" data-name="Rectángulo 110" width="11.578" height="99.576" transform="translate(423.143 165.166)" fill="#efca16"/>
      <rect id="Rectángulo_111" data-name="Rectángulo 111" width="11.578" height="99.576" transform="translate(555.911 165.166)" fill="#efca16"/>
      <circle id="Elipse_49" data-name="Elipse 49" cx="13.122" cy="13.122" r="13.122" transform="translate(415.425 152.816)" opacity="0.1"/>
      <circle id="Elipse_50" data-name="Elipse 50" cx="13.122" cy="13.122" r="13.122" transform="translate(415.425 152.044)" fill="#efca16"/>
      <circle id="Elipse_51" data-name="Elipse 51" cx="13.122" cy="13.122" r="13.122" transform="translate(548.964 152.816)" opacity="0.1"/>
      <circle id="Elipse_52" data-name="Elipse 52" cx="13.122" cy="13.122" r="13.122" transform="translate(548.964 152.044)" fill="#efca16"/>
    </g>
  </g>
</svg>
