<svg xmlns="http://www.w3.org/2000/svg" xmlns:xlink="http://www.w3.org/1999/xlink" width="418" height="418" viewBox="0 0 418 418">
  <defs>
    <clipPath id="clip-path">
      <rect width="236.909" height="27.956" fill="none"/>
    </clipPath>
  </defs>
  <g id="banana-icon" transform="translate(-528 -4541)">
    <path id="Trazado_409" data-name="Trazado 409" d="M209,0C324.428,0,418,93.572,418,209S324.428,418,209,418,0,324.428,0,209,93.572,0,209,0Z" transform="translate(528 4541)" fill="#fff"/>
    <g id="banana_icon" data-name="banana icon" transform="translate(141 -616)">
      <g id="base" transform="translate(460.222 5435.998)">
        <path id="Exclusión_1" data-name="Exclusión 1" d="M26.664,38.176h0A113.557,113.557,0,0,1,13.815,32.1a52.78,52.78,0,0,1-9.092-6.19C1.9,23.413.326,21.043.047,18.866s.689-4.523,2.877-6.974a35.629,35.629,0,0,1,7.522-6.038A82.431,82.431,0,0,1,21.763,0H262.814a69.31,69.31,0,0,1,9.233,6.832,34.022,34.022,0,0,1,6.021,6.71c1.714,2.653,2.4,5.1,2.051,7.279a13.723,13.723,0,0,1-3.358,6.59,31.693,31.693,0,0,1-5.876,5.191,52.128,52.128,0,0,1-8.071,4.622Zm3.65-31.427c-.043.012-4.31,1.227-8.877,3.1-4.205,1.725-9.514,4.371-10.924,7.184a3,3,0,0,0-.322,1.911c.259,1.408,1.717,2.94,4.333,4.554a53.531,53.531,0,0,0,8.426,4c5.932,2.313,11.848,3.912,11.907,3.928H247.939a98.889,98.889,0,0,0,10.349-3.3,43.014,43.014,0,0,0,7.418-3.567c2.332-1.483,3.681-2.948,4.008-4.356s-.312-2.991-1.9-4.706a27.223,27.223,0,0,0-5.58-4.338,69.676,69.676,0,0,0-8.556-4.416H30.314Z" transform="translate(0.001 0)" fill="#0a0808"/>
        <g id="lineas" transform="translate(24.796 5.28)" clip-path="url(#clip-path)">
          <g transform="translate(-526.501 -5655.383)">
            <line id="Línea_6" data-name="Línea 6" x1="1" y2="60" transform="translate(533.5 5655.5)" fill="none" stroke="#0a0808" stroke-width="12"/>
          </g>
          <g transform="translate(-495.501 -5655.383)">
            <line id="Línea_6-2" data-name="Línea 6" x1="1" y2="60" transform="translate(533.5 5655.5)" fill="none" stroke="#0a0808" stroke-width="12"/>
          </g>
          <g transform="translate(-464.501 -5655.383)">
            <line id="Línea_6-3" data-name="Línea 6" x1="1" y2="60" transform="translate(533.5 5655.5)" fill="none" stroke="#0a0808" stroke-width="12"/>
          </g>
          <g transform="translate(-433.501 -5655.383)">
            <line id="Línea_6-4" data-name="Línea 6" x1="1" y2="60" transform="translate(533.5 5655.5)" fill="none" stroke="#0a0808" stroke-width="12"/>
          </g>
          <g transform="translate(-402.501 -5655.383)">
            <line id="Línea_6-5" data-name="Línea 6" x1="1" y2="60" transform="translate(533.5 5655.5)" fill="none" stroke="#0a0808" stroke-width="12"/>
          </g>
          <g transform="translate(-371.501 -5655.383)">
            <line id="Línea_6-6" data-name="Línea 6" x1="1" y2="60" transform="translate(533.5 5655.5)" fill="none" stroke="#0a0808" stroke-width="12"/>
          </g>
          <g transform="translate(-340.501 -5655.383)">
            <line id="Línea_6-7" data-name="Línea 6" x1="1" y2="60" transform="translate(533.5 5655.5)" fill="none" stroke="#0a0808" stroke-width="12"/>
          </g>
          <g transform="translate(-309.501 -5655.383)">
            <line id="Línea_6-8" data-name="Línea 6" x1="1" y2="60" transform="translate(533.5 5655.5)" fill="none" stroke="#0a0808" stroke-width="12"/>
          </g>
        </g>
      </g>
      <g id="banana" transform="translate(529.462 5367.72)">
        <path id="Trazado_314" data-name="Trazado 314" d="M10041.337,5689.213c-1.927,4.339,26.424,11.273,39.4,12.531s38.545-.975,58.274-15.961,32.186-39.257,24.1-43.2-22.473,7.155-29.476,15.439-19.155,17.857-41.189,24.333S10043.264,5684.874,10041.337,5689.213Z" transform="translate(-10041.243 -5636.619)" fill="#0a0808" stroke="#fff" stroke-width="1"/>
        <path id="Trazado_315" data-name="Trazado 315" d="M10281.845,5621.913l-2.294,5.05a6.036,6.036,0,0,0-2.251-1.1,18.143,18.143,0,0,0-3.474-.428l5.725-4.733a2.629,2.629,0,0,1,1.434-.234,3.088,3.088,0,0,1,1.18.579C10282.245,5621.1,10281.845,5621.913,10281.845,5621.913Z" transform="translate(-10155.944 -5620.442)" fill="#0a0808" stroke="#fff" stroke-width="1"/>
      </g>
      <g id="aparato" transform="translate(426.418 5263.588)">
        <path id="Trazado_308" data-name="Trazado 308" d="M10198.065,5410.88v0Z" transform="translate(-10017.454 -5381.747)" fill="#00c8be" stroke="#3aa" stroke-width="15"/>
        <path id="Trazado_313" data-name="Trazado 313" d="M36.639,0,0,31.149,36.639,66.554" transform="translate(264.691 137.033) rotate(180)" fill="none" stroke="#0a0808" stroke-width="11"/>
        <path id="Trazado_312" data-name="Trazado 312" d="M10031.661,5549.084l-36.639,31.148,36.639,35.405" transform="translate(-9901.515 -5473.807)" fill="none" stroke="#0a0808" stroke-width="11"/>
        <path id="Trazado_310" data-name="Trazado 310" d="M10109.252,5520.59h-30.926v29.868h105.9V5520.59h-36.859" transform="translate(-9950.379 -5458.119)" fill="#3aa" stroke="#fff" stroke-width="1"/>
        <path id="Trazado_309" data-name="Trazado 309" d="M10157.114,5500.117,10123,5473.6l34.118-27.852,31.622,24.548Z" transform="translate(-9976.643 -5424.84)" fill="#0a0808" stroke="#fffefe" stroke-width="1"/>
        <path id="linea_superior" data-name="linea superior" d="M9819.418,5385.588h268.89" transform="translate(-9774.293 -5385.588)" fill="#efca16" stroke="#3aa" stroke-width="15"/>
      </g>
    </g>
  </g>
</svg>
