<svg id="bootstrap-4" xmlns="http://www.w3.org/2000/svg" width="57.479" height="57.479" viewBox="0 0 57.479 57.479">
  <path id="Trazado_413" data-name="Trazado 413" d="M0,50.068a7.411,7.411,0,0,0,7.411,7.411H50.067a7.411,7.411,0,0,0,7.412-7.411V7.412A7.411,7.411,0,0,0,50.068,0H7.412A7.411,7.411,0,0,0,0,7.411V50.067Z" fill="#fff"/>
  <path id="Trazado_414" data-name="Trazado 414" d="M79.728,64.586v-8.14h7.165a11.145,11.145,0,0,1,1.974.171,4.927,4.927,0,0,1,1.682.609,3.249,3.249,0,0,1,1.17,1.219,4.047,4.047,0,0,1,.439,2,3.682,3.682,0,0,1-1.316,3.168,5.5,5.5,0,0,1-3.363.975ZM72.075,50.5V85.3H88.94a17.793,17.793,0,0,0,4.557-.585,12.189,12.189,0,0,0,3.948-1.8A8.883,8.883,0,0,0,100.2,79.77a10.638,10.638,0,0,0-.56-10.138,8.365,8.365,0,0,0-4.8-3.242,8.674,8.674,0,0,0,3.534-2.876,7.624,7.624,0,0,0,1.194-4.387,9.335,9.335,0,0,0-.8-4.094,6.688,6.688,0,0,0-2.267-2.656,9.782,9.782,0,0,0-3.509-1.438,21.666,21.666,0,0,0-4.533-.439Zm7.653,28.855V69.8h8.335a6.448,6.448,0,0,1,4,1.146,4.5,4.5,0,0,1,1.511,3.826,4.783,4.783,0,0,1-.463,2.242A3.678,3.678,0,0,1,91.864,78.4a5.264,5.264,0,0,1-1.8.731,10.233,10.233,0,0,1-2.145.219Z" transform="translate(-55.892 -39.161)" fill="#00c8be"/>
</svg>
