<svg id="bootstrap-5" xmlns="http://www.w3.org/2000/svg" width="257.989" height="51.956" viewBox="0 0 257.989 51.956">
  <path id="Trazado_415" data-name="Trazado 415" d="M5.75,89.221a3.353,3.353,0,0,1,.559-.1c7.144.028,14.288.017,21.43.117a11.693,11.693,0,0,1,6.671,2.316c4.565,3.248,4.987,12.528-1.28,15.857-.319.169-.636.34-1.069.572a24.7,24.7,0,0,1,3.345,1.565c3.769,2.5,5.3,8.106,3.617,13.027-1.472,4.293-4.968,6.066-9.034,7.009a18.889,18.889,0,0,1-4.105.48c-6.678.048-13.356.022-20.134.022q0-20.41,0-40.866ZM12.892,124.1c4.967,0,9.79.113,14.6-.041,3.026-.1,5.213-3.341,5.031-6.5-.179-3.11-2.095-5.755-5.055-5.893-4.773-.223-9.559-.16-14.339-.21-.071,0-.144.1-.241.18V124.1Zm.017-17.964c4.439,0,8.72.162,12.982-.054,3.139-.159,4.91-2.668,4.793-6.1-.1-3.037-1.9-4.864-5.126-4.949-4.048-.106-8.1-.057-12.153-.066a1.938,1.938,0,0,0-.5.136Zm221.365-5.614h5.955v3.191c.663-.511,1.47-1.079,2.215-1.719,4.562-3.916,15.385-3.435,19.088,4.45,3.187,6.787,3.049,13.612-1.254,19.93-2.383,3.5-6.073,4.75-10.252,4.525-3.631-.2-6.829-1.338-9.345-4.7v14.881h-6.407c0-13.532,0-27.007,0-40.559Zm6.049,14.944a45.142,45.142,0,0,0,.831,4.452,7.934,7.934,0,0,0,6.664,5.813c3.906.275,6.71-1.168,8.122-4.63,1.794-4.4,1.731-8.839-.892-12.951a7.653,7.653,0,0,0-13.126.636A14.19,14.19,0,0,0,240.322,115.463Zm-10.268,10.39c0,1.216.043,2.451-.031,3.68-.018.3-.4.816-.645.837a30.207,30.207,0,0,1-5.578.234c-1.616-.169-2.507-1.539-3.005-3.123-3.837,3.124-8.237,3.8-12.918,3.219-3.914-.485-7.157-3.7-7.436-7.268-.385-4.919,1.5-8.121,5.921-9.287,3.1-.817,6.324-1.146,9.491-1.7.768-.134,1.546-.243,2.3-.448a3.026,3.026,0,0,0,2.587-2.832,3.369,3.369,0,0,0-2.143-3.66,9.918,9.918,0,0,0-8.169.186c-1.222.572-1.948,1.722-2.588,3.676H201.56a8.619,8.619,0,0,1,2.427-6.1,11.836,11.836,0,0,1,7.783-3.423,21.259,21.259,0,0,1,9.149.7c4.03,1.359,5.961,4.018,5.955,8.275q-.008,6.778,0,13.557c0,3.207,0,3.207,3.183,3.468Zm-9.7-10.2c-1.978.343-3.788.605-5.574.979a39.984,39.984,0,0,0-5.585,1.389c-1.756.643-2.353,2.285-2.295,4.047.055,1.685,1.206,2.629,2.69,3.148a9.7,9.7,0,0,0,7.522-.356,5.009,5.009,0,0,0,3.217-4.173C220.456,119,220.354,117.29,220.354,115.656ZM58.85,99.665c9.844-.116,15.616,7.1,15.007,16.924a15.536,15.536,0,0,1-3.377,9.305,13.494,13.494,0,0,1-9.275,4.855,16.853,16.853,0,0,1-9.043-1.169,13.479,13.479,0,0,1-7.794-9.91,19.46,19.46,0,0,1,.117-9.3c1.752-6.8,6.986-10.681,14.365-10.707Zm-8.569,15.678a42.185,42.185,0,0,0,.8,4.32,7.953,7.953,0,0,0,7.06,6.071c3.974.193,6.755-1.479,8.232-5.181a13.626,13.626,0,0,0-.137-10.883A7.869,7.869,0,0,0,53.4,106.96c-2.343,2.242-2.948,5.22-3.12,8.384ZM93,99.666c8.878-.014,14.919,5.969,15.031,14.868.048,3.757-.564,7.34-2.77,10.488-3.157,4.506-7.718,6.083-12.968,5.844a18.269,18.269,0,0,1-5.743-1.226,12.783,12.783,0,0,1-7.879-9.313A19.878,19.878,0,0,1,79.05,108.9c1.921-5.765,7.19-9.226,13.952-9.236Zm8.51,14.879a30.637,30.637,0,0,0-.71-3.756,8.028,8.028,0,0,0-7.541-6.048,7.86,7.86,0,0,0-7.758,5.355,13.286,13.286,0,0,0,.9,12.078,7.781,7.781,0,0,0,11.561,1.894c2.759-2.28,3.434-5.427,3.549-9.523Zm54.893-5.805c-2.026,0-4,.017-5.971-.021a.926.926,0,0,1-.7-.466c-1.109-3.08-3.717-3.446-6.415-3.461a8.756,8.756,0,0,0-3.345.7c-2.214.929-2.46,3.433-.385,4.633a20.611,20.611,0,0,0,4.752,1.736c2.3.647,4.668,1.036,6.95,1.726,5.835,1.764,8.116,7.614,4.848,12.437a10.563,10.563,0,0,1-6.6,4.213,20.138,20.138,0,0,1-11.807-.373c-4.153-1.5-6.347-4.512-6.671-9.07H137.4c1.8,4.7,6.893,6.535,11.663,4.132a3.039,3.039,0,0,0,1.914-2.648,2.83,2.83,0,0,0-1.706-3.05c-2.224-.829-4.546-1.4-6.829-2.067-1.891-.555-3.842-.955-5.667-1.677a7.2,7.2,0,0,1-5.028-7.449,7.472,7.472,0,0,1,5.189-7.12,19,19,0,0,1,13.762-.065,9.141,9.141,0,0,1,5.7,6.81A5.47,5.47,0,0,1,156.4,108.739ZM122,100.437h5.865v4.8h-5.747c-.041.574-.093.976-.094,1.378q-.008,7.262,0,14.522c0,.644.051,1.29.115,1.932a2.1,2.1,0,0,0,2.126,2.11c1.181.065,2.369.014,3.619.014v4.8a17.461,17.461,0,0,1-8.037.041c-3.069-.683-4.316-2.8-4.343-6.792-.037-5.44-.011-10.881-.012-16.321v-1.6h-4.871v-4.851h4.806V91.579H122c0,2.906,0,5.79,0,8.857Zm54.854,29.733c-2.524,0-4.913.079-7.294-.022a4.81,4.81,0,0,1-4.59-3.913,19.4,19.4,0,0,1-.454-3.966c-.051-5.118-.021-10.238-.021-15.356v-1.619h-4.855v-4.787h4.783V91.588h6.585v8.774h5.837v4.821h-5.6a7.815,7.815,0,0,0-.154,1.036c0,5.211-.022,10.422.012,15.633.018,2.756.739,3.419,3.471,3.4.73,0,1.46,0,2.281,0Zm10.954-29.634v5.046c2.529-4.294,6.029-6.531,11.2-5.768v6.225c-2.455-.369-4.824-.435-6.921,1.072-2.751,1.978-3.712,4.868-3.781,8.054-.106,4.925-.028,9.855-.028,14.89h-6.45v-29.52Z" transform="translate(-5.749 -89.122)" fill="#fff"/>
</svg>
