<svg id="c_" data-name="c#" xmlns="http://www.w3.org/2000/svg" width="61.464" height="53.221" viewBox="0 0 61.464 53.221">
  <path id="Trazado_177" data-name="Trazado 177" d="M266.389,173.375a3.807,3.807,0,0,0-.757-2.362,5.371,5.371,0,0,0-2.215-1.662q-12.27-5.445-24.559-10.89a7.6,7.6,0,0,0-6.533.044c-3.257,1.472-19.579,8.674-24.427,10.846-2.007.889-2.973,2.26-2.973,4.038v21.926a3.926,3.926,0,0,0,.72,2.318,5.472,5.472,0,0,0,2.253,1.72c4.866,2.172,21.17,9.359,24.427,10.846a7.549,7.549,0,0,0,6.533.044q12.27-5.467,24.559-10.89a5.236,5.236,0,0,0,2.253-1.72,3.926,3.926,0,0,0,.719-2.318Z" transform="translate(-204.925 -157.745)" fill="#c9fffc"/>
  <path id="Trazado_178" data-name="Trazado 178" d="M243.453,582.333l-30.126,13.354a5.473,5.473,0,0,0,2.253,1.72c4.866,2.172,21.17,9.359,24.427,10.846a7.547,7.547,0,0,0,6.533.044q12.27-5.467,24.559-10.89a5.236,5.236,0,0,0,2.253-1.72Z" transform="translate(-212.645 -555.813)" fill="#a0fffb"/>
  <path id="Trazado_179" data-name="Trazado 179" d="M474.735,586.284a11.828,11.828,0,0,0,17.686-.044l-8.767-3.907Z" transform="translate(-452.846 -555.813)" fill="#edfffe"/>
  <path id="Trazado_180" data-name="Trazado 180" d="M615.323,372.534a3.808,3.808,0,0,0-.757-2.362l-29.9,13.252L614.6,396.778a3.926,3.926,0,0,0,.72-2.318Z" transform="translate(-553.859 -356.904)" fill="#d4fffd"/>
  <g id="Grupo_2" data-name="Grupo 2" transform="translate(10.282 10.878)">
    <path id="Trazado_181" data-name="Trazado 181" d="M360.955,351.445a11.828,11.828,0,0,1-17.686.044,6.469,6.469,0,0,1-1.344-3.878c0-4.33,4.544-7.829,10.168-7.829a10.994,10.994,0,0,1,8.786,3.907l8.881-3.936c-3.541-4.694-10.13-7.858-17.686-7.858-11.286,0-20.412,7.041-20.412,15.715a13.012,13.012,0,0,0,2.708,7.829c3.522,4.709,10.149,7.887,17.724,7.887,7.593,0,14.22-3.193,17.742-7.931Zm11.229-7.552h-2.026v7.537h2.026Zm4.488,0h-2.026v7.537h2.026Z" transform="translate(-331.662 -331.895)" fill="#00c8be"/>
    <path id="Trazado_182" data-name="Trazado 182" d="M795.881,544.289h-9.79v1.56h9.79Zm0,3.441h-9.79v1.56h9.79Z" transform="translate(-749.224 -531.023)" fill="#00c8be"/>
  </g>
</svg>
