<svg id="c_" data-name="c#" xmlns="http://www.w3.org/2000/svg" width="93.229" height="104.851" viewBox="0 0 93.229 104.851">
  <path id="Trazado_177" data-name="Trazado 177" d="M298.154,188.538A9.092,9.092,0,0,0,297,183.885a8.78,8.78,0,0,0-3.36-3.274q-18.611-10.727-37.251-21.455a9.168,9.168,0,0,0-9.909.086c-4.94,2.9-29.7,17.089-37.05,21.368a8.6,8.6,0,0,0-4.509,7.956v43.2a9.418,9.418,0,0,0,1.091,4.567,9.006,9.006,0,0,0,3.418,3.389c7.381,4.279,32.11,18.439,37.05,21.369a9.114,9.114,0,0,0,9.909.086Q275,250.4,293.644,239.719a8.62,8.62,0,0,0,3.418-3.389,9.418,9.418,0,0,0,1.091-4.567Z" transform="translate(-204.925 -157.745)" fill="#c9fffc"/>
  <path id="Trazado_178" data-name="Trazado 178" d="M259.022,582.333l-45.7,26.308a9.007,9.007,0,0,0,3.418,3.389c7.381,4.279,32.11,18.439,37.05,21.368a9.111,9.111,0,0,0,9.909.086q18.611-10.77,37.251-21.455a8.619,8.619,0,0,0,3.418-3.389Z" transform="translate(-212.293 -530.085)" fill="#a0fffb"/>
  <path id="Trazado_179" data-name="Trazado 179" d="M474.735,590.116a15.407,15.407,0,0,0,26.826-.086l-13.3-7.7Z" transform="translate(-441.534 -530.085)" fill="#edfffe"/>
  <path id="Trazado_180" data-name="Trazado 180" d="M631.167,374.825a9.094,9.094,0,0,0-1.149-4.653L584.667,396.28l45.408,26.309a9.418,9.418,0,0,0,1.092-4.567Z" transform="translate(-537.938 -344.032)" fill="#d4fffd"/>
  <g id="Grupo_2" data-name="Grupo 2" transform="translate(15.596 21.43)">
    <path id="Trazado_181" data-name="Trazado 181" d="M376.093,370.41a15.438,15.438,0,1,1-.115-15.28l13.47-7.755a30.933,30.933,0,1,0,.115,30.818Zm17.032-14.877h-3.073v14.849h3.073Zm6.807,0h-3.073v14.849h3.073Z" transform="translate(-331.662 -331.895)" fill="#00c8be"/>
    <path id="Trazado_182" data-name="Trazado 182" d="M800.94,544.289H786.091v3.073H800.94Zm0,6.778H786.091v3.073H800.94Z" transform="translate(-730.172 -518.153)" fill="#00c8be"/>
  </g>
</svg>
