<svg id="computadora_y_silla" data-name="computadora y silla" xmlns="http://www.w3.org/2000/svg" width="789.792" height="650.227" viewBox="0 0 789.792 650.227">
  <rect id="Rectángulo_21" data-name="Rectángulo 21" width="64.637" height="24.072" transform="translate(435.975 41.011)" fill="#3aa" opacity="0.3"/>
  <rect id="Rectángulo_22" data-name="Rectángulo 22" width="64.637" height="24.072" transform="translate(543.407)" fill="#3aa" opacity="0.3"/>
  <rect id="Rectángulo_23" data-name="Rectángulo 23" width="64.637" height="24.072" transform="translate(547.864 74.445)" fill="#3aa" opacity="0.3"/>
  <rect id="Rectángulo_24" data-name="Rectángulo 24" width="64.637" height="24.072" transform="translate(341.025 102.083)" fill="#3aa" opacity="0.3"/>
  <rect id="Rectángulo_25" data-name="Rectángulo 25" width="64.637" height="24.072" transform="translate(320.519 201.045)" fill="#3aa" opacity="0.3"/>
  <rect id="Rectángulo_26" data-name="Rectángulo 26" width="64.637" height="24.072" transform="translate(418.144 198.816)" fill="#3aa" opacity="0.3"/>
  <path id="Trazado_68" data-name="Trazado 68" d="M812.924,14.856,770.13,55.462l47.252,33.991" transform="translate(-269.518 -2.972)" fill="none" stroke="#3f3d56" stroke-miterlimit="10" stroke-width="1"/>
  <line id="Línea_1" data-name="Línea 1" x1="62.632" y2="49.593" transform="translate(373.343 52.49)" fill="none" stroke="#3f3d56" stroke-miterlimit="10" stroke-width="1"/>
  <path id="Trazado_69" data-name="Trazado 69" d="M585.4,232.574,605.906,157.7l77.12,72.661" transform="translate(-232.563 -31.548)" fill="none" stroke="#3f3d56" stroke-miterlimit="10" stroke-width="1"/>
  <rect id="Rectángulo_27" data-name="Rectángulo 27" width="64.637" height="24.072" transform="translate(0 65.81)" fill="#3aa" opacity="0.3"/>
  <rect id="Rectángulo_28" data-name="Rectángulo 28" width="64.637" height="24.072" transform="translate(107.432 24.799)" fill="#3aa" opacity="0.3"/>
  <rect id="Rectángulo_29" data-name="Rectángulo 29" width="64.637" height="24.072" transform="translate(111.89 99.243)" fill="#3aa" opacity="0.3"/>
  <path id="Trazado_70" data-name="Trazado 70" d="M267.924,45.856,225.13,86.462l47.252,33.991" transform="translate(-160.492 -9.173)" fill="none" stroke="#3f3d56" stroke-miterlimit="10" stroke-width="1"/>
  <line id="Línea_3" data-name="Línea 3" x2="73.303" transform="translate(176.527 111.279)" fill="none" stroke="#3f3d56" stroke-miterlimit="10" stroke-width="1"/>
  <rect id="Rectángulo_33" data-name="Rectángulo 33" width="75.996" height="23.999" transform="translate(216.925 98.959)" fill="rgba(39,127,127,0.73)"/>
  <line id="Línea_4" data-name="Línea 4" x2="48.006" transform="translate(293.019 110.958)" fill="none" stroke="#3f3d56" stroke-miterlimit="10" stroke-width="1"/>
  <line id="Línea_5" data-name="Línea 5" x1="44.492" y1="74.275" transform="translate(172.069 36.683)" fill="none" stroke="#3f3d56" stroke-miterlimit="10" stroke-width="1"/>
  <ellipse id="Elipse_18" data-name="Elipse 18" cx="351.98" cy="78.395" rx="351.98" ry="78.395" transform="translate(85.333 492.936)" fill="#f2f2f2" stroke="#140101" stroke-width="1"/>
  <path id="Trazado_72" data-name="Trazado 72" d="M883.746,391.611,849.424,563.578h-7.43l-.818-1.27-2.367-3.683,29.722-160.645,4.512-1.89Z" transform="translate(-283.256 -78.34)" fill="#47465a"/>
  <path id="Trazado_73" data-name="Trazado 73" d="M873.043,397.21,841.176,563.428l-2.367-3.683L868.531,399.1Z" transform="translate(-283.256 -79.46)" opacity="0.1"/>
  <path id="Trazado_74" data-name="Trazado 74" d="M943.969,627.447l-8.824,2.845-2.145.694-2.831-6.369L881.6,403.082l5.049-1.132,10.608-2.378Z" transform="translate(-291.817 -79.933)" fill="#47465a"/>
  <path id="Trazado_75" data-name="Trazado 75" d="M935.144,630.886,933,631.58l-2.831-6.369L881.6,403.677l5.049-1.132Z" transform="translate(-291.817 -80.528)" opacity="0.1"/>
  <path id="Trazado_76" data-name="Trazado 76" d="M428.681,391.611,420.9,614.531l-8.921,1.982-.633.142-2.477-4.6,4.954-218.321,4.766-.679Z" transform="translate(-197.248 -78.34)" fill="#47465a"/>
  <path id="Trazado_77" data-name="Trazado 77" d="M418.585,393.415l-6.61,223.458-.633.142-2.477-4.6,4.954-218.321Z" transform="translate(-197.248 -78.701)" opacity="0.1"/>
  <path id="Trazado_78" data-name="Trazado 78" d="M477.069,694.412,467.841,696l-1.034.177-2.83-6.015L419.039,398.953l1.3-.393,6.844-2.084Z" transform="translate(-199.283 -79.314)" fill="#47465a"/>
  <path id="Trazado_79" data-name="Trazado 79" d="M467.841,696.525l-1.034.177-2.83-6.015L419.039,399.474l1.3-.393Z" transform="translate(-199.283 -79.835)" opacity="0.1"/>
  <path id="Trazado_80" data-name="Trazado 80" d="M770.246,409.941l34.359,43.9a11.142,11.142,0,0,0,10.07,4.2l141.046-16.519a11.142,11.142,0,0,0,9.846-11.066V397.91Z" transform="translate(-297.139 -114.716)" fill="#7a799c"/>
  <path id="Trazado_81" data-name="Trazado 81" d="M880.388,377.9h9.554v13.788a3.55,3.55,0,0,1-3.55,3.55h-2.454a3.55,3.55,0,0,1-3.55-3.55V377.9Z" transform="translate(-291.574 -75.597)" fill="#47465a"/>
  <path id="Trazado_82" data-name="Trazado 82" d="M453.539,444.884l34.359,43.9a11.142,11.142,0,0,0,10.07,4.2l141.046-16.519A11.142,11.142,0,0,0,648.86,465.4V432.853Z" transform="translate(-233.783 -121.706)" fill="#7a799c"/>
  <path id="Trazado_83" data-name="Trazado 83" d="M563.68,412.842h9.554V426.63a3.55,3.55,0,0,1-3.55,3.55H567.23a3.55,3.55,0,0,1-3.55-3.55V412.842Z" transform="translate(-228.218 -82.588)" fill="#47465a"/>
  <path id="Trazado_84" data-name="Trazado 84" d="M482.777,448.8l419.543-48.87a6.17,6.17,0,0,0,2.062-11.638l-75.049-37.743a86.864,86.864,0,0,0-47.839-8.813L408.763,379.744a7.134,7.134,0,0,0-4.367,12.075l43.4,44.532A42.136,42.136,0,0,0,482.777,448.8Z" transform="translate(-220.544 -70.362)" fill="#47465a"/>
  <path id="Trazado_85" data-name="Trazado 85" d="M1081.511,405.7l-4.488-2.481s-4.845,3.566-8.791,18.591,7.376.163,7.376.163l4.954-10.261Z" transform="translate(-356.583 -115.778)" fill="#47465a"/>
  <path id="Trazado_86" data-name="Trazado 86" d="M979.441,568.075s-4.6,21.585-6.723,27.6c-1.04,2.944-6.065,5.637-11.634,7.7a77.92,77.92,0,0,1-15.258,3.981c-6.015.708-83.153-11.323-120.66-19.461-25.268-5.481-28.534-11.769-27.975-15.286a5.1,5.1,0,0,1,1.437-2.76s37.153-25.123,50.246-37.154,38.923-2.477,67.23,2.477S979.441,568.075,979.441,568.075Z" transform="translate(-302.518 -140.513)" fill="#47465a"/>
  <path id="Trazado_87" data-name="Trazado 87" d="M1062.17,403.217s17.338,11.323-41.046,34.677c0,0-31.733,17.892-27.6,91.6a20.214,20.214,0,0,0,2.938,9.361c6.024,9.908,18.932,34.988-2.582,38.1v5.662s38.922-19.461,43.169-36.092,18.4-108.983,25.477-117.476S1074.2,407.11,1062.17,403.217Z" transform="translate(-341.73 -115.778)" fill="#47465a"/>
  <path id="Trazado_88" data-name="Trazado 88" d="M961.081,614.808a77.9,77.9,0,0,1-15.258,3.981c-6.015.708-83.153-11.323-120.66-19.461-25.268-5.481-28.534-11.769-27.975-15.286,16.609,5.679,70.542,23.7,89.9,25.194,23,1.769,66.94,6.688,70.27,3.344C958.636,611.291,959.945,612.65,961.081,614.808Z" transform="translate(-302.518 -151.951)" opacity="0.1"/>
  <path id="Trazado_89" data-name="Trazado 89" d="M749.457,764.319l33.615-153.568s6.015-16.277,19.815-15.569l12.738,6.37s-21.231-4.954-25.831,11.323-33.968,151.444-33.968,151.444Z" transform="translate(-292.98 -154.175)" fill="#47465a"/>
  <path id="Trazado_90" data-name="Trazado 90" d="M815.808,651.694l13.446-93.768h6.016l-13.8,93.768Z" transform="translate(-278.655 -111.611)" fill="#47465a"/>
  <path id="Trazado_91" data-name="Trazado 91" d="M1008.135,786.564,995.4,640.073s0-12.384,6.369-18.4S1028.7,598.5,1028.7,598.5s5.269-1.24,9.515,10.79,33.615,132.337,33.615,132.337l-5.661,2.477L1029.717,605.4,1004.594,629.1s-4.954,8.846-2.477,16.984,11.677,140.475,11.677,140.475Z" transform="translate(-342.18 -154.836)" fill="#47465a"/>
  <path id="Trazado_92" data-name="Trazado 92" d="M927.717,579.158l31.845,9.2,7.077-6.723-18.4-2.477Z" transform="translate(-301.042 -115.858)" fill="#47465a"/>
  <path id="Trazado_93" data-name="Trazado 93" d="M608.309,296.1l5.164,77.455,112.876-10.969-4.492-75.715a7.615,7.615,0,0,0-8.24-7.137l-98.348,8.272a7.615,7.615,0,0,0-6.96,8.095Z" transform="translate(-264.741 -91.07)" fill="#7a799c"/>
  <path id="Trazado_94" data-name="Trazado 94" d="M731.27,361.49,618.748,373.765l-4.246.463L581.595,353v-4.6l111.814-10.07Z" transform="translate(-231.802 -67.681)" fill="#7a799c"/>
  <path id="Trazado_95" data-name="Trazado 95" d="M618.748,376.4l-4.246.463-32.907-21.23v-4.119Z" transform="translate(-231.802 -70.32)" opacity="0.1"/>
  <path id="Trazado_96" data-name="Trazado 96" d="M583.364,253.515l3.893,69,99.076-9.2-3.539-67.231Z" transform="translate(-232.156 -49.228)" fill="#dfdef3"/>
  <path id="Trazado_116" data-name="Trazado 116" d="M583.364,253.515l3.893,69,99.076-9.2-3.539-67.231Z" transform="translate(-232.156 -49.228)" fill="#dfdef3"/>
  <path id="Trazado_97" data-name="Trazado 97" d="M657.233,364.717l12.03,8.139,36.446-3.539-12.385-7.784Z" transform="translate(-246.933 -72.323)" opacity="0.1"/>
  <path id="Trazado_98" data-name="Trazado 98" d="M595.749,350.827l15.215,11.323,97.307-9.2-17.338-11.323Z" transform="translate(-234.633 -68.341)" fill="#dfdef3"/>
  <path id="Trazado_99" data-name="Trazado 99" d="M876.668,304.561s10.133,27.443,0,32.51,36.309,0,36.309,0l13.088-10.555s-29.554-8.444-25.332-27.865S876.668,304.561,876.668,304.561Z" transform="translate(-318.139 -93.394)" fill="#fbbebe"/>
  <path id="Trazado_100" data-name="Trazado 100" d="M876.668,304.561s10.133,27.443,0,32.51,36.309,0,36.309,0l13.088-10.555s-29.554-8.444-25.332-27.865S876.668,304.561,876.668,304.561Z" transform="translate(-318.139 -93.394)" opacity="0.1"/>
  <path id="Trazado_101" data-name="Trazado 101" d="M773.056,650.658s38,53.62,31.665,68.4-2.955,24.066-15.621,29.132-16.044,14.355-5.066,13.933,25.332-3.378,27.443-7.177,7.177-21.955,14.355-24.488,20.688-12.244,10.977-24.066-34.178-55.365-32.288-59.77S773.056,650.658,773.056,650.658Z" transform="translate(-297.701 -164.215)" fill="#fbbebe"/>
  <path id="Trazado_102" data-name="Trazado 102" d="M846.095,519.512s-78.53,5.066-98.8,24.066,17.733,89.929,21.955,90.774,37.154-2.533,35.887-11.822S781.5,575.243,781.5,575.243s29.132-10.555,45.176-13.088S860.45,547.8,860.45,547.8Z" transform="translate(-291.366 -139.042)" fill="#9493b6"/>
  <path id="Trazado_103" data-name="Trazado 103" d="M827.417,504.312s1.267,46.864,13.088,48.553,0-35.887,0-35.887l-.422-14.355Z" transform="translate(-308.576 -135.663)" fill="#fbbebe"/>
  <path id="Trazado_104" data-name="Trazado 104" d="M862.46,350.858s-21.955-6.333-26.177,10.555-5.489,75.152-5.489,75.152l-7.6,46.442s13.933-4.222,16.888-2.111l17.732-22.377Z" transform="translate(-307.731 -105.071)" fill="#3aa"/>
  <path id="Trazado_105" data-name="Trazado 105" d="M862.46,350.858s-21.955-6.333-26.177,10.555-5.489,75.152-5.489,75.152l-7.6,46.442s13.933-4.222,16.888-2.111l17.732-22.377Z" transform="translate(-307.731 -105.071)" fill="#00c8be" opacity="0.1"/>
  <path id="Trazado_106" data-name="Trazado 106" d="M905.384,663.225S920.139,692.232,929,691.81s17.31-5.911,21.532,11.4-.844,12.666,4.222,22.8,5.911,27.865-3.8,32.087-18.577,4.644-19,0,8.444-4.644-1.689-21.11-31.665-46.442-40.531-49.4S905.384,663.225,905.384,663.225Z" transform="translate(-320.657 -167.791)" fill="#fbbebe"/>
  <path id="Trazado_107" data-name="Trazado 107" d="M928.173,497.873s30.4,50.664,10.555,65.441-78.952,43.065-78.952,43.065,31.665,21.532,33.354,28.71-15.2,26.6-21.11,27.021-23.221-19.421-41.8-24.488-29.976-41.376-9.711-54.886,39.265-35.887,39.265-35.887l-5.907-32.505Z" transform="translate(-305.048 -134.713)" fill="#9493b6"/>
  <path id="Trazado_108" data-name="Trazado 108" d="M907.621,278.606c0,17.955-18.392,32.8-36.346,32.8a32.51,32.51,0,1,1,0-65.019C889.229,246.384,907.621,260.651,907.621,278.606Z" transform="translate(-310.846 -84.404)" fill="#fbbebe"/>
  <path id="Trazado_109" data-name="Trazado 109" d="M879.648,341.674s29.132-12.666,29.132-14.355,16.888,3.8,20.688,7.177,5.911,2.955,8.444,9.711-12.666,69.663-12.666,69.663,8.444,48.553,13.088,53.2-37.576,11.4-37.576,11.4-27.865,5.066-32.51,7.177-13.088,5.066-11.4,0,8.866-8.866-3.378-15.2c0,0,4.222-20.688,0-29.976s-23.643-43.065-8.022-67.552,22.8-33.354,22.8-33.354S873.737,344.208,879.648,341.674Z" transform="translate(-310.986 -100.532)" fill="#00c8be"/>
  <path id="Trazado_110" data-name="Trazado 110" d="M883.519,489.428s-32.932,14.606-42.854,15.958-39.9,8.952-23.432,15.707,41.376-3.378,41.376-3.378l35.043-14.777Z" transform="translate(-305.569 -133.024)" fill="#fbbebe"/>
  <path id="Trazado_111" data-name="Trazado 111" d="M933.557,343.531s12.161-5.882,15.538,14.806,15.2,86.129,0,95.84-50.242,25.332-50.242,25.332-20.688-13.933-10.977-19,32.932-19.421,36.31-24.488,6.79-61.618.879-70.907S933.557,343.531,933.557,343.531Z" transform="translate(-320.152 -103.683)" opacity="0.1"/>
  <path id="Trazado_112" data-name="Trazado 112" d="M933.7,337.426s16.888-.844,20.266,19.843,15.2,86.129,0,95.84-50.242,25.332-50.242,25.332-20.688-13.933-10.977-19,32.932-19.421,36.31-24.488-2.533-57.842-8.444-67.131S933.7,337.426,933.7,337.426Z" transform="translate(-321.125 -102.615)" fill="#00c8be"/>
  <path id="Trazado_113" data-name="Trazado 113" d="M873.352,229.078c-18.6-3.423-35.413,22.073-40.17,27.295-6.2,6.8-5.1,23.669-3.358,26.778,4.864,8.674,5.124,19.091,5.262,29.035v8.44c.042,2.986.9,11.239,0,14.086s11.385-8.36,15.128-14.086a16.111,16.111,0,0,1,0,4.972s16.618-4.884,18.486-8c4.089-6.82,11.73-5.065,10.658-8.4-.046-.146-10.658-2.829-10.658-2.829s-7.351-3.784-8.892-6.314c-3.972-6.523-8.315-16.644-9.595-24.172s6.848-22.05,6.848-22.05,10.329-6.355,16.29-6.239a17.2,17.2,0,0,1,14.342,8.78c1.129,2.126,2.737,5.007,5.025,4.26a12.409,12.409,0,0,0,1.239-.608c2.552-1.161,5.451,1.13,6.577,3.7,3.55,8.1.676,15.787,0,24.605-.629,8.2-2.825,17.224,10.877,20.868-2.006-.505,20.116,10.733,15.156,5.189s-1.083-25.487-2.153-32.848c-1.435-9.879-3.55-11.851-7.757-20.9-3.846-8.277-5.628-8.532-9.111-16.968C904.009,235.1,891.951,232.5,873.352,229.078Z" transform="translate(-316.655 -81.74)" fill="#2c1529"/>
  <path id="Trazado_114" data-name="Trazado 114" d="M601.55,586.573a11.76,11.76,0,0,0,3.46,2.125c2.2.9,10.748,4.01,19.385-7.748s11.155-16.084,11.155-16.084,7.3-8.323,11.064-15.164a30.6,30.6,0,0,0,3.982-12.2l6.871,9.894a8.272,8.272,0,0,1,0,4.824c-.806,2.585-1.089,2.879-3.226,5.517s-1.4,2.144-5.321,5.035-8.117,3.313-10.356,6.527a90.3,90.3,0,0,0-5.427,10.145s-3.015,8.245-5.321,11.366-9.451,4.311-9.451,4.311a57.923,57.923,0,0,1-9.542,2.306,33.959,33.959,0,0,1-8.351,0,16.935,16.935,0,0,1-4.507-1.206c-1.33-.776-1.561-2.46-.814-4.48S601.55,586.573,601.55,586.573Z" transform="translate(-114.964 0.444)" fill="#170101" stroke="#090101" stroke-width="1"/>
  <path id="Trazado_115" data-name="Trazado 115" d="M729.767,579.76s3.572-.5,7.269-1.322,6.666,1.438,7.5-7.019-2.139-13.667-5.233-20.485-3.094-12.466-7.144-19.163-9.055-7.626-9.055-7.626l13.93-1.661s2.438.08,4.643,4.393a37.514,37.514,0,0,1,4.179,12.859,33.784,33.784,0,0,1,0,11.2l6.072,15.127s1.848,9.456,0,15.466a15.083,15.083,0,0,1-7.394,8.572s-7.644,2.982-12.376,2.982-5.514-1.049-6.554-2.982,1.353-2.165,2.393-4.751A47.2,47.2,0,0,0,729.767,579.76Z" transform="translate(-114.858 0.432)" fill="#090101" stroke="#090101" stroke-width="1"/>
  <path id="Trazado_245" data-name="Trazado 245" d="M658.672,168.336s-3.337,11.709-3.337,16.895.645,4.694,0,8.372a16.816,16.816,0,0,1-2.581,6.338l-1.99-11.853v-.549C650.763,185.589,647.709,182.374,658.672,168.336Z" transform="translate(-114.918 0.139)" fill="#2c1529" stroke="#2c1529" stroke-width="1"/>
</svg>
