<svg xmlns="http://www.w3.org/2000/svg" width="770.976" height="786.266" viewBox="0 0 770.976 786.266">
  <g id="copa1" transform="translate(-261.6 -5560.161)">
    <path id="Trazado_511" data-name="Trazado 511" d="M7069.453,5691.431c52.452-62.213-31.375-115.888,73.813-189.7,69.823-47.66,208.55-84.694,312.469,0s190.97,7.245,234.5,123.314c27.748,93.037-126.395,129.318-119.7,259.342,5.305,102.978,8.886,174.331-66.377,230.869s-119.877-44.07-203.3,27.2-211.072,116.31-280.379,84.694c-35.954-16.4-.728-94.127-21.763-194.6s-82.226-174.509-75.616-229.77C6937.56,5681.864,7033.838,5733.674,7069.453,5691.431Z" transform="translate(-6661 109)" fill="#fff"/>
    <g id="undraw_traveling_t8y2" transform="translate(272 5640.5)">
      <path id="Trazado_512" data-name="Trazado 512" d="M38.142,0H246.858A38.142,38.142,0,0,1,285,38.142V453.858A38.142,38.142,0,0,1,246.858,492H38.142A38.142,38.142,0,0,1,0,453.858V38.142A38.142,38.142,0,0,1,38.142,0Z" transform="translate(282 27.5)" fill="#eef1f9"/>
      <rect id="Rect치ngulo_113" data-name="Rect치ngulo 113" width="286" height="492" rx="38.142" transform="translate(263 4.5)" fill="none" stroke="#3f3d56" stroke-miterlimit="10" stroke-width="1"/>
      <rect id="Rect치ngulo_114" data-name="Rect치ngulo 114" width="243.524" height="390.594" transform="translate(282.555 55.47)" fill="none" stroke="#3f3d56" stroke-miterlimit="10" stroke-width="1"/>
      <circle id="Elipse_53" data-name="Elipse 53" cx="8.292" cy="8.292" r="8.292" transform="translate(489.62 16.93)" fill="none" stroke="#3f3d56" stroke-miterlimit="10" stroke-width="1"/>
      <circle id="Elipse_54" data-name="Elipse 54" cx="18.242" cy="18.242" r="18.242" transform="translate(390.161 453.088)" fill="none" stroke="#3f3d56" stroke-miterlimit="10" stroke-width="1"/>
      <path id="Trazado_491" data-name="Trazado 491" d="M757.044,174.035A55.563,55.563,0,0,0,701.48,229.6c0,30.687,58.209,143.869,58.209,143.869S812.607,260.285,812.607,229.6a55.563,55.563,0,0,0-55.564-55.564Zm0,92.606a29.1,29.1,0,1,1,29.1-29.1,29.1,29.1,0,0,1-29.1,29.1Z" transform="translate(-354.963 -75.782)" fill="#ffda27"/>
      <ellipse id="Elipse_55" data-name="Elipse 55" cx="55.5" cy="18.5" rx="55.5" ry="18.5" transform="translate(347 317.5)" fill="#ffda27"/>
      <path id="Trazado_495" data-name="Trazado 495" d="M296.406,797.414s7.721,3.861,13.126,4.633,8.445-4.695,7.311-6.594,3.5-.355,6.587,6.594c0,0,13.126,15.442,20.848,16.215s7.782,11.226,3.861,11.582c-4.247.386-11.582,3.088-20.848,0s-17.759-11.582-21.62-11.582-16.987-6.177-13.126-9.266S296.406,797.414,296.406,797.414Z" transform="translate(-199.532 -186.371)" fill="#3f3d56"/>
      <path id="Trazado_496" data-name="Trazado 496" d="M388.776,816.871a42.873,42.873,0,0,0,11.781-.723c5.305-1.289,6.1-7.494,4.341-8.837s3.117-1.628,8.564,3.678c0,0,17.921,9.467,25.377,7.318s11.392,7.535,7.884,9.322a44.735,44.735,0,0,1-19.341,5.457c-9.75.571-20.806-1.881-24.391-.448s-18.066.57-15.628-3.731S388.776,816.871,388.776,816.871Z" transform="translate(-215.801 -188.383)" fill="#3f3d56"/>
      <circle id="Elipse_71" data-name="Elipse 71" cx="30.113" cy="30.113" r="30.113" transform="translate(129.736 199.956)" fill="#ffc1c7"/>
      <path id="Trazado_497" data-name="Trazado 497" d="M343.372,352.666S348,385.1,337.195,389.728s54.821,3.089,54.821,3.089-9.266-29.341-6.949-37.062S343.372,352.666,343.372,352.666Z" transform="translate(-207.073 -110.628)" fill="#ffc1c7"/>
      <path id="Trazado_498" data-name="Trazado 498" d="M325.812,574.374s-2.316,58.682-4.633,64.859-4.633,47.872-4.633,47.872l-20.075,75.669L315,768.951s25.48-44.784,28.568-50.189,27.8-91.883,27.8-91.883-2.316,53.277-2.316,71.036,4.633,82.618,4.633,82.618l14.67-1.544,19.3-81.846s27.8-110.415,9.266-122.769S325.812,574.374,325.812,574.374Z" transform="translate(-200.322 -147.797)" fill="#2f2e41"/>
      <path id="Trazado_499" data-name="Trazado 499" d="M465.212,597.058s.772,44.784-8.493,37.834,0-41.7,0-41.7Z" transform="translate(-226.992 -151.95)" fill="#ffc1c7"/>
      <path id="Trazado_500" data-name="Trazado 500" d="M310.634,578.434s.772,44.784-8.493,37.834,0-41.7,0-41.7Z" transform="translate(-200.587 -148.769)" fill="#ffc1c7"/>
      <path id="Trazado_501" data-name="Trazado 501" d="M422.867,418.634s-15.443-17.759-28.569-15.443-84.934,1.544-84.934,1.544-23.936,30.113-17.759,36.29,26.252,115.82,26.252,115.82,53.277-6.949,71.808-6.949,26.252-3.089,26.252-3.089S391.209,497.391,402.791,475s28.569-46.328,28.569-46.328Z" transform="translate(-199.317 -119.458)" fill="#efca16"/>
      <path id="Trazado_502" data-name="Trazado 502" d="M440.239,428.376l13.126,4.633s7.721,27.025,7.721,48.644.772,32.429,3.861,40.151,13.126,44.011,7.721,51.733a51.489,51.489,0,0,1-10.81,11.582L444.1,583.574s-.772-25.48-5.4-27.8-10.81-16.987-10.81-16.987-14.67-47.1-5.4-62.543S440.239,428.376,440.239,428.376Z" transform="translate(-221.322 -123.796)" fill="#efca16"/>
      <path id="Trazado_503" data-name="Trazado 503" d="M365.652,456.139s7.721-33.974-6.949-32.429-34.746,2.316-40.151,2.316-36.29-3.861-40.923,16.215-10.81,44.784,2.316,60.226c0,0,4.633,67.947,22.392,72.58s64.859,10.038,81.846-12.354,10.038-47.1,10.038-47.1H386.5Z" transform="translate(-196.151 -122.99)" fill="#3f3d56"/>
      <path id="Trazado_504" data-name="Trazado 504" d="M248.163,467.338l6.177-41.7-3.088,43.239Z" transform="translate(-53.182 -73.19)" fill="#3f3d56"/>
      <path id="Trazado_505" data-name="Trazado 505" d="M290.883,525.22s13.126,6.177,40.151,2.316v11.582l-40.151-3.089Z" transform="translate(-199.368 -140.338)" opacity="0.1"/>
      <path id="Trazado_506" data-name="Trazado 506" d="M208.587,360.56l20.075-10.81-16.987,14.671Z" transform="translate(-46.422 -60.226)" fill="#3f3d56"/>
      <path id="Trazado_507" data-name="Trazado 507" d="M406.96,404.4s15.443,5.4,15.443,0-13.9-10.038-22.392-13.126-48.644-7.721-54.821-10.038-35.518-6.177-37.834,3.089-3.089,28.569,8.493,30.885,41.7-3.861,57.138-2.316S406.96,404.4,406.96,404.4Z" transform="translate(-201.942 -115.265)" fill="#efca16"/>
      <path id="Trazado_508" data-name="Trazado 508" d="M406.96,404.4s15.443,5.4,15.443,0-13.9-10.038-22.392-13.126-48.644-7.721-54.821-10.038-35.518-6.177-37.834,3.089-3.089,28.569,8.493,30.885,41.7-3.861,57.138-2.316S406.96,404.4,406.96,404.4Z" transform="translate(-201.942 -115.265)" opacity="0.1"/>
      <path id="Trazado_509" data-name="Trazado 509" d="M130.367,367.965l5.248-11.023.93,13.34Z" transform="translate(-33.061 -61.455)" fill="#3f3d56"/>
      <ellipse id="Elipse_72" data-name="Elipse 72" cx="28.192" cy="32.753" rx="28.192" ry="32.753" transform="translate(126.438 195.645)" fill="#2f2e41"/>
      <ellipse id="Elipse_73" data-name="Elipse 73" cx="28.192" cy="17.827" rx="28.192" ry="17.827" transform="translate(131.413 193.158)" fill="#2f2e41"/>
      <ellipse id="Elipse_74" data-name="Elipse 74" cx="2.902" cy="4.975" rx="2.902" ry="4.975" transform="translate(178.677 232.958)" fill="#ffc1c7"/>
      <path id="Trazado_510" data-name="Trazado 510" d="M394.618,308.295c2.966-1.623,5.5-4.558,7.4-8.567a9.039,9.039,0,0,1,.148,2.712,10.267,10.267,0,0,0,3.531-1.064l-.265,2.89a29.811,29.811,0,0,0,5.828-4.666,22.947,22.947,0,0,1-2.041,12.32,24.635,24.635,0,0,1-5.7,6.959" transform="translate(-217.087 -101.799)" fill="#2f2e41"/>
      <path id="iconfinder_airplane1_216191" d="M102.221,12.362,86.307,24.038C69.993,21.663,4.665,10.225,3.81,11.008,2.856,11.886,2.519,12.49.6,14.247,19.45,24.72,38.651,34.73,57.546,45.139L33.506,62.777,0,64.309H0L29.453,76.841,45.985,98.047h0l2.077-24.5c7.864-5.719,15.783-11.4,23.684-17.093,14.343,14,28.125,28.234,42.542,42.2,2.395-1.409,3.218-1.652,4.415-2.356,1.079-.631-15.01-50.04-17.9-61.048q8.129-6.06,16.089-12.239C145.131,1.056,133.033-10.249,102.221,12.362Z" transform="translate(378.712 148.415)" fill="#d7b514" fill-rule="evenodd"/>
    </g>
    <g id="Navigation" transform="translate(618.932 6052.773)">
      <g id="GlobalNav_Guest_Large" data-name="GlobalNav/Guest/Large" transform="translate(0.068 0.226)">
        <g id="LOGO" transform="translate(0 0)">
          <g id="Group" transform="translate(0)">
            <path id="Fill-65" d="M73.686,13.687l-1.46-3.2-1.472,3.2ZM70.867,8.212h2.718c.472,1.017,4.386,9.38,4.386,9.38H75.487l-1.022-2.2h-4.51l-.994,2.2H66.466Z" transform="translate(-25.63 -3.301)" fill="#d7b514" fill-rule="evenodd"/>
            <path id="Fill-66" d="M122.967,11.627a3.283,3.283,0,0,0-2.34.821l-.129-.679h-2.126a3.961,3.961,0,0,1,.225,1.144v5.995h2.1V14.751c0-1.113.694-1.691,2.268-1.691.865,0,1.4.284,1.4,1.691v4.158h2.094V14.751c0-2.121-.691-3.124-3.489-3.124" transform="translate(-45.614 -4.616)" fill="#d7b514" fill-rule="evenodd"/>
            <path id="Fill-67" d="M136.261,14.636c.122-.88.525-1.554,2.183-1.554a1.575,1.575,0,0,1,1.723,1.554Zm2.183-2.97c-3.57,0-4.364,1.658-4.364,3.689,0,2.053.779,3.717,4.538,3.717a15.672,15.672,0,0,0,2.955-.315c.057-.364.178-1.153.218-1.423a23.583,23.583,0,0,1-3.172.318c-1.747,0-2.215-.66-2.358-1.578H142.3v-.718C142.3,12.8,140.924,11.666,138.445,11.666Z" transform="translate(-51.661 -4.631)" fill="#d7b514" fill-rule="evenodd"/>
            <path id="Fill-68" d="M23.246,17.659c-1.755,0-2.276-.866-2.276-2.3,0-1.409.521-2.27,2.276-2.27s2.27.861,2.27,2.27c0,1.435-.526,2.3-2.27,2.3m0-6c-2.624,0-4.373,1.143-4.373,3.7,0,2.588,1.749,3.717,4.373,3.717s4.362-1.129,4.362-3.717c0-2.558-1.742-3.7-4.362-3.7" transform="translate(-7.308 -4.627)" fill="#d7b514" fill-rule="evenodd"/>
            <path id="Fill-69" d="M57.006,16.192c0,1.323-1.279,1.439-2.449,1.439-.4,0-1.043-.086-1.043-.867,0-.515.707-.86,1.567-.86h1.925ZM59.1,13.924c0-1.437-1.552-2.3-3.842-2.3a11.073,11.073,0,0,0-3.128.627c-.047.3-.2,1.242-.226,1.439a17.34,17.34,0,0,1,3.354-.634c1.147,0,1.749.388,1.749.949v.606s-1.416-.138-1.925-.138c-2.286,0-3.67.81-3.67,2.287,0,1.872,2.083,2.28,3.145,2.28a3.726,3.726,0,0,0,2.535-.7l.121.56h2.1a4.363,4.363,0,0,1-.215-1.278Z" transform="translate(-19.835 -4.616)" fill="#d7b514" fill-rule="evenodd"/>
            <path id="Fill-70" d="M5.785,7.764c2.463,0,3.993.768,4.843,1.982l-2.2.847A2.966,2.966,0,0,0,5.813,9.479H5.758a2.992,2.992,0,0,0-2.582,1.059,3.411,3.411,0,0,0-.649,2.085v.134h0a3.525,3.525,0,0,0,.651,2.063,2.994,2.994,0,0,0,2.582,1.059h.054A2.987,2.987,0,0,0,8.4,14.8l2.224.846c-.854,1.2-2.4,1.931-4.831,1.931H5.785c-2.161,0-3.61-.566-4.5-1.54A4.794,4.794,0,0,1,.068,12.71v-.087a4.771,4.771,0,0,1,1.216-3.3,5.808,5.808,0,0,1,4.5-1.562" transform="translate(-0.068 -3.128)" fill="#d7b514" fill-rule="evenodd"/>
            <path id="Fill-71" d="M107.2,16.463V8.218h-2.1v8.245a3.623,3.623,0,0,0,.223,1.134h2.1a3.867,3.867,0,0,1-.224-1.134" transform="translate(-40.503 -3.303)" fill="#d7b514" fill-rule="evenodd"/>
            <path id="Fill-72" d="M95.661,14.737c.009-1.1.828-1.678,2.272-1.678.24,0,1.186.119,1.591.172-.018-.184-.164-1.069-.224-1.435a9.4,9.4,0,0,0-1.367-.17,3.289,3.289,0,0,0-2.3.787l-.177-.645H93.341a4.113,4.113,0,0,1,.221,1.126v6.011h2.1Z" transform="translate(-35.977 -4.616)" fill="#d7b514" fill-rule="evenodd"/>
            <path id="Fill-73" d="M39.863,17.643a2,2,0,0,1-2.27-2.3c.038-1.368.491-2.274,2.27-2.274,1.611,0,1.924,1.006,1.924,2.274,0,1.286-.313,2.3-1.924,2.3m0-6a4.271,4.271,0,0,0-2.322.762s-.112-.422-.159-.617H35.271a4.6,4.6,0,0,1,.225,1.288v8.114h2.1V18.361a3.9,3.9,0,0,0,2.27.7c3.516,0,4.024-1.665,4.024-3.717,0-2.032-.507-3.707-4.024-3.707" transform="translate(-13.621 -4.621)" fill="#d7b514" fill-rule="evenodd"/>
            <path id="Fill-74" d="M155.835,12.006v1.615a5.546,5.546,0,0,0-2.624-.666,2.751,2.751,0,0,0-1.131.182.578.578,0,0,0-.381.535c0,.338.547.609,1.632.82l.082.017.643.124a3.608,3.608,0,0,1,1.79.773,1.891,1.891,0,0,1,.566,1.443,1.813,1.813,0,0,1-.865,1.648,4.934,4.934,0,0,1-2.6.545,12.237,12.237,0,0,1-1.582-.105,13.991,13.991,0,0,1-1.635-.333V16.975a7.522,7.522,0,0,0,1.506.537,6.154,6.154,0,0,0,1.482.189,2.908,2.908,0,0,0,1.189-.193.608.608,0,0,0,.405-.556.633.633,0,0,0-.286-.546,4.735,4.735,0,0,0-1.363-.4l-.621-.117a3.877,3.877,0,0,1-1.863-.747,1.734,1.734,0,0,1-.587-1.369,1.77,1.77,0,0,1,.89-1.586,4.61,4.61,0,0,1,2.508-.573,11.363,11.363,0,0,1,1.452.095,9.773,9.773,0,0,1,1.395.3" transform="translate(-57.632 -4.61)" fill="#d7b514" fill-rule="evenodd"/>
            <path id="Fill-75" d="M112.889,9.9a1.692,1.692,0,0,0,.934-.18.791.791,0,0,0,.251-.673.783.783,0,0,0-.24-.652,2.417,2.417,0,0,0-1.867.008.8.8,0,0,0-.245.676.757.757,0,0,0,.234.645,1.719,1.719,0,0,0,.934.176m1.051,6.558V10.454h-2.094v6.009a3.51,3.51,0,0,0,.226,1.134h2.093a3.83,3.83,0,0,1-.226-1.134" transform="translate(-43.053 -3.303)" fill="#d7b514" fill-rule="evenodd"/>
            <path id="Fill-76" d="M87.843,9.9a1.7,1.7,0,0,0,.934-.18.8.8,0,0,0,.254-.673.789.789,0,0,0-.245-.652,2.41,2.41,0,0,0-1.864.008.808.808,0,0,0-.247.676.756.756,0,0,0,.238.645,1.691,1.691,0,0,0,.929.176M88.9,16.463V10.454H86.8v6.009a3.482,3.482,0,0,0,.229,1.134h2.09a3.849,3.849,0,0,1-.223-1.134" transform="translate(-33.411 -3.303)" fill="#d7b514" fill-rule="evenodd"/>
            <path id="Fill-77" d="M207.26,32.552h-.213v-.34h.341c.145,0,.325.024.325.164,0,.209-.288.177-.453.177m.635-.177c0-.284-.231-.347-.468-.347h-.563v1.321h.183v-.6h.213l.4.6h.221l-.4-.6c.236-.009.415-.105.415-.371" transform="translate(-79.682 -12.469)" fill="#d7b514" fill-rule="evenodd"/>
            <path id="Fill-78" d="M206.824,33.386a1.011,1.011,0,1,1,1.027-1,1.023,1.023,0,0,1-1.027,1m0-2.187a1.187,1.187,0,1,0,1.213,1.183,1.181,1.181,0,0,0-1.213-1.183" transform="translate(-79.201 -12.15)" fill="#d7b514" fill-rule="evenodd"/>
            <path id="Fill-79" d="M166.567,14.792v.677a31.462,31.462,0,0,1,6.878-1.76,20.827,20.827,0,0,0-6.878,1.083" transform="translate(-64.168 -5.415)" fill="#d7b514" fill-rule="evenodd"/>
            <path id="Fill-80" d="M179.2,10.31a8.683,8.683,0,0,0-1.854-1.049c.247-.016.5-.055.792-.07a6.8,6.8,0,0,1,1.447,1.242ZM174.12,7.493a9.285,9.285,0,0,0-1.906-.448c.288-.064.571-.118.894-.158a6.552,6.552,0,0,1,1.675.708Zm-7.554-1.454a15.327,15.327,0,0,1,2.1.289l-1.354.172c-.231.01-.49.03-.75.056v.3a18.069,18.069,0,0,1,3.05-.309,35.7,35.7,0,0,1,15.943-.121,37.037,37.037,0,0,0-18.993,1.917v.522a20.277,20.277,0,0,1,4.011-.934,13.692,13.692,0,0,1,5.316.3,34.587,34.587,0,0,1,11.116.914,37.793,37.793,0,0,0-20.442,2.65v.419a21.464,21.464,0,0,1,7.56-2.075,10.679,10.679,0,0,1,5.976,1.131,33.035,33.035,0,0,1,8.078.8V.226H166.566Z" transform="translate(-64.167 -0.226)" fill="#d7b514" fill-rule="evenodd"/>
            <path id="Fill-81" d="M166.567,19.946v1.309a31.749,31.749,0,0,1,11.038-3,20.56,20.56,0,0,0-11.038,1.687" transform="translate(-64.168 -7.092)" fill="#d7b514" fill-rule="evenodd"/>
            <path id="Fill-82" d="M183.157,21.992a6.45,6.45,0,0,0-2.635-2.242c.344-.041.777-.053,1.1-.068a1.77,1.77,0,0,1,.328.318,8.326,8.326,0,0,1,1.752,2.59Zm-16.59,1.475v.544c.261-.148.522-.289.768-.42a23.23,23.23,0,0,1,5.822-2.2,16.718,16.718,0,0,1,5.278-.444c3.108.278,5.339,1.627,6.414,3.957a10.628,10.628,0,0,1,.851,3.343l-.373-.924a4.67,4.67,0,0,0-.469-1.36,7.09,7.09,0,0,0-4.44-3.29,14.768,14.768,0,0,0-6.987-.119,27.24,27.24,0,0,0-6.865,2.393V29h.216a18.511,18.511,0,0,1,4.275-2.3c3.926-1.679,7.745-2.187,10.612-1.431A5.406,5.406,0,0,1,185.709,29h2.472V19.6C184.645,19.2,175.22,18.547,166.567,23.467Z" transform="translate(-64.168 -7.579)" fill="#d7b514" fill-rule="evenodd"/>
            <path id="Fill-83" d="M182.343,31.2a14.747,14.747,0,0,0-6.424-.084,21.12,21.12,0,0,0-6.522,2.308h16.415a5.944,5.944,0,0,0-3.469-2.225" transform="translate(-65.257 -11.999)" fill="#d7b514" fill-rule="evenodd"/>
          </g>
        </g>
      </g>
    </g>
  </g>
</svg>
