<svg id="css-5" xmlns="http://www.w3.org/2000/svg" width="61.94" height="67.312" viewBox="0 0 61.94 67.312">
  <path id="Trazado_197" data-name="Trazado 197" d="M412.642,2.491H407.5l5.344,4.467V9.082h-11.01V6.594h5.344l-5.344-4.467V0h10.807Zm-12.99,0h-5.145l5.351,4.467V9.082H388.845V6.594h5.344l-5.344-4.467V0h10.807Zm-12.864.1h-5.544v3.9h5.544V9.085H377.3V0h9.489Z" transform="translate(-364.104)" fill="#fff"/>
  <path id="Trazado_198" data-name="Trazado 198" d="M5.638,540.076,0,491.4H61.94L56.3,540.068l-25.364,5.412Z" transform="translate(0 -478.168)" fill="#def2f1"/>
  <path id="Trazado_199" data-name="Trazado 199" d="M885.5,685.164l20.5-4.376,4.819-41.589H885.5Z" transform="translate(-854.53 -621.988)" fill="#fff"/>
  <path id="Trazado_200" data-name="Trazado 200" d="M885.5,857.58h10.262l.707-6.113H885.5V845.5h19.446l-.185,1.6-1.906,16.452H885.5Z" transform="translate(-854.53 -822.733)" fill="#00c8be"/>
  <path id="Trazado_201" data-name="Trazado 201" d="M417.6,1632.957h-.035l-8.635-1.8-.553-4.761H400.6l1.088,9.373,15.886,3.4h.045v-6.22Z" transform="translate(-386.589 -1582.606)" fill="#3aa"/>
  <path id="Trazado_202" data-name="Trazado 202" d="M895.683,1506.2l-.934,7.989-8.649,1.8v6.22l15.9-3.393.115-1.01,1.35-11.606h-7.778Z" transform="translate(-855.109 -1465.642)" fill="#00c8be"/>
  <path id="Trazado_203" data-name="Trazado 203" d="M350.325,845.5v5.97H331.6l-.161-1.341-.353-3.027-.185-1.6Zm-.028,12.08v5.97H341.76l-.15-1.341-.353-3.027-.185-1.6h9.223Z" transform="translate(-319.327 -822.733)" fill="#3aa"/>
</svg>
