<svg id="database-icon" xmlns="http://www.w3.org/2000/svg" width="108.949" height="136.313" viewBox="0 0 108.949 136.313">
  <g id="Grupo_14" data-name="Grupo 14" transform="translate(0 0)">
    <g id="Grupo_10" data-name="Grupo 10">
      <path id="Trazado_297" data-name="Trazado 297" d="M58.474,63.884C27.928,63.884,4,50.294,4,32.942S27.928,2,58.474,2s54.474,13.59,54.474,30.942S89.021,63.884,58.474,63.884Zm0-55.008c-23.19,0-49.027,9.884-49.027,24.066S35.285,57.008,58.474,57.008,107.5,47.124,107.5,32.942,81.664,8.876,58.474,8.876Z" transform="translate(-4 -2)" fill="#dbfffd"/>
    </g>
    <g id="Grupo_11" data-name="Grupo 11" transform="translate(0 22.901)">
      <path id="Trazado_298" data-name="Trazado 298" d="M58.474,71.884C27.928,71.884,4,58.294,4,40.942v-27.5C4,11.537,5.218,10,6.724,10s2.724,1.537,2.724,3.438v27.5c0,14.182,25.837,24.066,49.027,24.066S107.5,55.124,107.5,40.942v-27.5c0-1.9,1.217-3.438,2.724-3.438s2.724,1.537,2.724,3.438v27.5C112.949,58.294,89.021,71.884,58.474,71.884Z" transform="translate(-4 -10)" fill="#dbfffd"/>
    </g>
    <g id="Grupo_12" data-name="Grupo 12" transform="translate(0 45.434)">
      <path id="Trazado_299" data-name="Trazado 299" d="M58.474,83.322C27.928,83.322,4,69.732,4,52.38V21.438C4,19.537,5.218,18,6.724,18s2.724,1.537,2.724,3.438V52.38c0,14.182,25.837,24.066,49.027,24.066S107.5,66.562,107.5,52.38V21.438c0-1.9,1.217-3.438,2.724-3.438s2.724,1.537,2.724,3.438V52.38C112.949,69.732,89.021,83.322,58.474,83.322Z" transform="translate(-4 -18)" fill="#dbfffd"/>
    </g>
    <g id="Grupo_13" data-name="Grupo 13" transform="translate(0 70.991)">
      <path id="Trazado_300" data-name="Trazado 300" d="M58.474,92.322C27.928,92.322,4,78.732,4,61.38V30.438C4,28.537,5.218,27,6.724,27s2.724,1.537,2.724,3.438V61.38c0,14.182,25.837,24.066,49.027,24.066S107.5,75.562,107.5,61.38V30.438c0-1.9,1.217-3.438,2.724-3.438s2.724,1.537,2.724,3.438V61.38C112.949,78.732,89.021,92.322,58.474,92.322Z" transform="translate(-4 -27)" fill="#dbfffd"/>
    </g>
  </g>
</svg>
