<svg id="git" xmlns="http://www.w3.org/2000/svg" width="133.401" height="42.898" viewBox="0 0 133.401 42.898">
  <path id="Trazado_190" data-name="Trazado 190" d="M140.647,15.525c-2.925,0-5.1,1.106-5.1,3.767,0,2,1.436,3.4,4.945,3.4,2.975,0,5-1.35,5-3.48,0-2.414-1.808-3.683-4.838-3.683ZM134.8,34.315a3.388,3.388,0,0,0-1.382,2.169c0,1.636,2.71,2.129,6.433,2.129,3.083,0,7.284-.167,7.284-2.374,0-1.312-2.021-1.393-4.574-1.516Zm15.737-18.666a5.727,5.727,0,0,1,1.967,4.135c0,4.543-4.625,7.2-11.323,7.2a21.734,21.734,0,0,1-4.2-.368l-1.755,2.169,5.21.245c9.2.451,14.62.657,14.62,6.1,0,4.708-5.368,7.367-14.62,7.367-9.623,0-13.291-1.883-13.291-5.116,0-1.842,1.063-2.822,2.924-4.176-1.755-.571-2.339-1.594-2.339-2.7a3.4,3.4,0,0,1,1.543-2.5c.956-.777,2.019-1.555,3.3-2.456a6.521,6.521,0,0,1-4.573-6.141c0-4.706,4.041-7.939,12.174-7.939a23.428,23.428,0,0,1,4.893.409h10.368v3.478l-4.892.287ZM164.782,8.21C161.751,8.21,160,6.858,160,4.524s1.754-3.6,4.785-3.6c3.083,0,4.838,1.27,4.838,3.6S167.866,8.21,164.782,8.21Zm-6.86,24.6V29.576l2.712-.286c.745-.082.85-.2.85-.82V16.436a.768.768,0,0,0-.692-.859l-2.87-.779.584-3.315h11.006V28.47c0,.656.051.737.851.82l2.711.286v3.232ZM194.1,31.221a26.527,26.527,0,0,1-8.668,1.637c-6.327,0-8.718-1.963-8.718-6.59V15.545c0-.245,0-.409-.427-.409h-3.721V11.491c4.68-.41,6.539-2.211,7.124-6.673h5.051v5.814c0,.286,0,.409.426.409h7.5v4.093h-7.922v9.782c0,2.415.745,3.356,3.615,3.356a16.007,16.007,0,0,0,4.306-.654l1.437,3.6" transform="translate(-60.699 -0.923)" fill="#fff"/>
  <path id="Trazado_191" data-name="Trazado 191" d="M54.627,20.53,30.318,1.816a4.379,4.379,0,0,0-5.071,0L20.2,5.7l6.4,4.93a5.2,5.2,0,0,1,4.381.786A2.772,2.772,0,0,1,32,14.811l6.17,4.751a5.209,5.209,0,0,1,4.408.78,2.783,2.783,0,0,1,0,4.645,5.256,5.256,0,0,1-5.384.412c-1.693-.869-2.354-2.536-1.579-3.985l-5.755-4.431v11.66a4.475,4.475,0,0,1,1.128.621,2.783,2.783,0,0,1,0,4.646,5.208,5.208,0,0,1-6.033,0,2.829,2.829,0,0,1-1.167-2.969,3.648,3.648,0,0,1,2.564-2.393V16.78a4.465,4.465,0,0,1-1.4-.717,2.756,2.756,0,0,1-.919-3.591l-6.312-4.86L1.051,20.443a2.34,2.34,0,0,0,0,3.905L25.36,43.063a4.38,4.38,0,0,0,5.071,0l24.2-18.627a2.341,2.341,0,0,0,0-3.906" transform="translate(-0.001 -0.973)" fill="#def2f1"/>
</svg>
