<svg id="html-5" xmlns="http://www.w3.org/2000/svg" width="60.141" height="65.356" viewBox="0 0 60.141 65.356">
  <path id="Trazado_192" data-name="Trazado 192" d="M60.586,70.766l-5.479,47.256-24.628,5.257-24.56-5.249L.445,70.766Z" transform="translate(-0.445 -57.922)" fill="#e2f1f1"/>
  <path id="Trazado_193" data-name="Trazado 193" d="M128,136.687l19.9-4.248,4.682-40.382H128Z" transform="translate(-97.929 -75.349)" fill="#fff"/>
  <path id="Trazado_194" data-name="Trazado 194" d="M56.145,129.792H66.8V124H47.917l.18,1.555,1.851,15.974H66.8v-5.8H56.833Zm1.7,14.631H50.284l1.055,9.1,15.423,3.3.035-.007v-6.031l-.033.007-8.385-1.743-.536-4.623Z" transform="translate(-36.726 -101.49)" fill="#3aa"/>
  <path id="Trazado_195" data-name="Trazado 195" d="M24.18,0h3.826V2.91h3.5V0h3.826V8.813H31.507V5.862h-3.5V8.813H24.18V0ZM40.364,2.923H37V0H47.561V2.923h-3.37V8.813H40.365V2.923h0ZM49.237,0h3.99l2.454,3.1L58.133,0h3.991V8.813H58.313V4.445L55.681,7.579h-.066L52.981,4.445V8.813H49.237ZM64.028,0h3.827V5.9h5.381V8.813H64.028V0Z" transform="translate(-18.585)" fill="#fff"/>
  <path id="Trazado_196" data-name="Trazado 196" d="M127.889,141.524h9.271l-.874,7.518-8.4,1.745v6.031l15.435-3.293.113-.979,1.77-15.261.184-1.557h-17.5Zm0-11.747v.014h18.186l.151-1.3.343-2.939.18-1.555h-18.86v5.783Z" transform="translate(-97.845 -101.49)" fill="#00c8be"/>
</svg>
