<svg xmlns="http://www.w3.org/2000/svg" width="132.809" height="98.656" viewBox="0 0 132.809 98.656">
  <path id="iconfinder_airplane1_216191" d="M102.221,12.362,86.307,24.038C69.993,21.663,4.665,10.225,3.81,11.008,2.856,11.886,2.519,12.49.6,14.247,19.45,24.72,38.651,34.73,57.546,45.139L33.506,62.777,0,64.309H0L29.453,76.841,45.985,98.047h0l2.077-24.5c7.864-5.719,15.783-11.4,23.684-17.093,14.343,14,28.125,28.234,42.542,42.2,2.395-1.409,3.218-1.652,4.415-2.356,1.079-.631-15.01-50.04-17.9-61.048q8.129-6.06,16.089-12.239C145.131,1.056,133.033-10.249,102.221,12.362Z" transform="translate(0 0)" fill="#d7b514" fill-rule="evenodd"/>
</svg>
