<svg id="java" xmlns="http://www.w3.org/2000/svg" width="59.116" height="84.651" viewBox="0 0 59.116 84.651">
  <path id="Trazado_184" data-name="Trazado 184" d="M76.864,94.889s-2.88,1.29,2.052,1.726a55.8,55.8,0,0,0,15.615-.509,31.03,31.03,0,0,0,4.153,1.559C83.919,102.535,65.268,97.383,76.864,94.889Zm-1.8-6.357s-3.231,1.841,1.705,2.234a78.828,78.828,0,0,0,20.152-.744,9.526,9.526,0,0,0,3.1,1.456C82.168,95.5,62.288,91.8,75.059,88.532Z" transform="translate(-57.32 -49.985)" fill="#def2f1" fill-rule="evenodd"/>
  <path id="Trazado_185" data-name="Trazado 185" d="M99.8,49.031c3.64,3.226-.954,6.127-.954,6.127s9.238-3.671,4.995-8.269c-3.961-4.286-7-6.416,9.448-13.759C113.289,33.129,87.47,38.092,99.8,49.031Z" transform="translate(-66.852 -21.268)" fill="#def2f1" fill-rule="evenodd"/>
  <path id="Trazado_186" data-name="Trazado 186" d="M102.584,91.9s2.132,1.353-2.349,2.4c-8.52,1.987-35.469,2.586-42.954.079-2.689-.9,2.356-2.152,3.943-2.416a13.314,13.314,0,0,1,2.6-.225c-2.992-1.622-19.342,3.186-8.3,4.566,30.1,3.757,54.869-1.692,47.063-4.4ZM71.039,74.255s-13.706,2.507-4.853,3.418a133.672,133.672,0,0,0,18.132-.152c5.673-.367,11.368-1.151,11.368-1.151a27.434,27.434,0,0,0-3.447,1.42C78.317,80.61,51.429,79.3,59.171,76.415A32.661,32.661,0,0,1,71.039,74.255ZM95.628,84.835c14.15-5.66,7.608-11.1,3.04-10.366a13.333,13.333,0,0,0-1.618.335,2.532,2.532,0,0,1,1.209-.718c9.035-2.444,15.981,7.211-2.913,11.035A1.054,1.054,0,0,0,95.628,84.835Z" transform="translate(-50.109 -42.295)" fill="#def2f1" fill-rule="evenodd"/>
  <path id="Trazado_187" data-name="Trazado 187" d="M97.824,8.5s7.835,6.036-7.433,15.314c-12.244,7.446-2.792,11.689,0,16.54-7.148-4.965-12.392-9.336-8.874-13.4,5.164-5.97,19.472-8.866,16.311-18.452Z" transform="translate(-60.834 -8.504)" fill="#def2f1" fill-rule="evenodd"/>
  <path id="Trazado_188" data-name="Trazado 188" d="M78.431,122.95c13.58.669,34.437-.371,34.932-5.319,0,0-.95,1.876-11.224,3.363a144.6,144.6,0,0,1-34.37.407S69.506,122.507,78.431,122.95Z" transform="translate(-56.109 -65.068)" fill="#def2f1" fill-rule="evenodd"/>
  <path id="Trazado_189" data-name="Trazado 189" d="M105.759,141.8h-.413v-.178h1.114v.178h-.413v.89h-.288Zm2.223.044h-.005l-.41.845h-.188l-.408-.845h0v.845h-.274V141.62h.4l.378.756.378-.756h.4v1.068h-.265v-.845ZM69.229,151.83a7.163,7.163,0,0,1-3.85,1.335c-1.732,0-2.671-.8-2.671-2.083,0-1.388,1.006-2.4,5.032-2.4h1.488v3.151Zm3.535,3.07v-9.5c0-2.429-1.8-4.032-6.137-4.032a20.345,20.345,0,0,0-6.553,1.094l.519,1.683a19.252,19.252,0,0,1,5.061-.774c2.5,0,3.574.774,3.574,2.377v1.2H67.979c-6.07,0-8.809,1.813-8.809,4.539,0,2.349,1.8,3.684,5.2,3.684a9.166,9.166,0,0,0,5.339-1.71l.277,1.442Zm11.8,0H80.153l-5.307-13.294H78.7l3.294,8.17.733,2.455a41.914,41.914,0,0,0,3.431-10.624H89.9A45.383,45.383,0,0,1,84.561,154.9Zm16.915-3.07a7.184,7.184,0,0,1-3.851,1.335c-1.732,0-2.67-.8-2.67-2.083,0-1.388,1.007-2.4,5.031-2.4h1.491Zm3.536,3.07v-9.5c0-2.429-1.8-4.032-6.138-4.032a20.345,20.345,0,0,0-6.555,1.094l.519,1.683a19.282,19.282,0,0,1,5.065-.774c2.495,0,3.572.774,3.572,2.377v1.2h-1.249c-6.07,0-8.807,1.813-8.807,4.539,0,2.349,1.8,3.684,5.2,3.684a9.18,9.18,0,0,0,5.342-1.71l.278,1.442Zm-49.717,2.259a9.458,9.458,0,0,1-4.417,2.537l-1.745-1.583a6.887,6.887,0,0,0,3.061-2.207c.466-.718.661-1.641.661-3.849v-15.18H56.61v14.97C56.61,154.8,56.3,156,55.295,157.159Z" transform="translate(-49.132 -75.044)" fill="#def2f1" fill-rule="evenodd"/>
</svg>
