<svg id="microsoft-sql-server" xmlns="http://www.w3.org/2000/svg" xmlns:xlink="http://www.w3.org/1999/xlink" width="117.562" height="73.177" viewBox="0 0 117.562 73.177">
  <defs>
    <linearGradient id="linear-gradient" x1="-8.133" y1="37.388" x2="-6.64" y2="37.388" gradientUnits="objectBoundingBox">
      <stop offset="0" stop-color="#939fab"/>
      <stop offset="1" stop-color="#dcdee1"/>
    </linearGradient>
  </defs>
  <g id="logo" transform="translate(42.307)">
    <path id="Trazado_283" data-name="Trazado 283" d="M369.909,463.277l-12.983,3.264-11.295,3.838-3.16.642c-.8.589-1.649,1.186-2.561,1.791-1,.665-1.933,1.269-2.65,1.707a18.293,18.293,0,0,0-2.571,1.964,8.742,8.742,0,0,0-1.9,2.478,3.393,3.393,0,0,0,.766,3.74,17.451,17.451,0,0,0,7.095,4.1,54.916,54.916,0,0,0,6.241,1.609,105.948,105.948,0,0,0,13.307,1.458c.716.023,1.678.023,1.717,0a17.18,17.18,0,0,0,1.266-1.851,40.746,40.746,0,0,0,4.6-9.376,34.944,34.944,0,0,0,1.177-6.5c.069-.733.1-3.188.039-4.02a22.007,22.007,0,0,0-.491-3.543.635.635,0,0,1-.03-.31c.039-.023.157-.053,1.757-.408l-.324-.589h0Zm-2.964,1.337a19.092,19.092,0,0,1,.51,3.785,1.566,1.566,0,0,1-.01.514c-.079,0-1.659-.718-2.787-1.262-.981-.476-2.846-1.428-3.14-1.609-.1-.053-.089-.06.716-.272C363.6,465.415,366.837,464.614,366.945,464.614Zm-6.614,1.677a3.7,3.7,0,0,1,.854.355c2.022.975,4.769,2.153,5.947,2.546.363.121.4.075-.432.514a48.036,48.036,0,0,1-6.742,2.788c-.481.166-.883.295-.893.295a1.571,1.571,0,0,1,.118-.415,17.584,17.584,0,0,0,1.05-5.311c.01-.756.01-.756.1-.778C360.311,466.292,360.321,466.292,360.331,466.292Zm-1.364.4a12.568,12.568,0,0,1-.059,2.2,15.476,15.476,0,0,1-.9,3.287,4.294,4.294,0,0,1-.226.529,16.159,16.159,0,0,1-1.825-1.367,10.591,10.591,0,0,1-1.806-2.025,5.627,5.627,0,0,1-.55-1.027C353.756,468.2,358.928,466.662,358.967,466.692Zm-6.418,1.942a.044.044,0,0,1,.029.008,1.263,1.263,0,0,1,.147.272,9.866,9.866,0,0,0,1.629,2.244,14.909,14.909,0,0,0,2.267,1.881c.236.151.451.295.481.317.059.045.079.038-1.521.506-1.854.544-3.876,1.088-6.192,1.662q-.83.206-1.658.416c-.089.023-.059-.015.2-.325A39.643,39.643,0,0,0,351.8,469.6c.167-.332.334-.665.363-.74.039-.106.088-.144.216-.2A1.194,1.194,0,0,1,352.549,468.634Zm-1.963.627a15.477,15.477,0,0,1-.962,1.564c-.952,1.428-1.992,2.833-3.386,4.541-.236.295-.461.567-.491.6-.049.053-.069.038-.226-.2a5.9,5.9,0,0,1-.756-1.753,5.457,5.457,0,0,1,.049-2.251c.127-.468.118-.461.412-.574C346.484,470.7,350.547,469.231,350.587,469.261Zm16.928.529v.317a31.872,31.872,0,0,1-.579,5.682c-.059.295-.108.536-.118.544s-.285-.06-.618-.136a29.808,29.808,0,0,1-4.514-1.488,21.623,21.623,0,0,1-2.3-1.088c.01-.008.422-.174.9-.37,1.924-.771,3.768-1.6,5.368-2.425.6-.31,1.5-.808,1.7-.944Zm-24.337,2.236c.039,0,.029.06-.029.332-.039.2-.088.559-.108.808a4.554,4.554,0,0,0,.863,3.037,5.711,5.711,0,0,1,.343.574c-.069.045-6.565,1.511-8.606,1.942l-1.178.249c-.069.015-.078.008-.049-.121a7.739,7.739,0,0,1,2.856-3.785,12.874,12.874,0,0,1,3.229-1.9c1-.438,2.542-1.1,2.659-1.126C343.158,472.026,343.168,472.026,343.177,472.026Zm15.309,2.108a4.494,4.494,0,0,1,.53.219,35.29,35.29,0,0,0,7.517,2.251l.226.038-.314.136c-1.305.559-5.594,1.934-9.98,3.2-.638.181-1.266.363-1.384.4a.875.875,0,0,1-.226.053c0-.008.177-.272.4-.6a33.611,33.611,0,0,0,3.091-5.417C358.427,474.27,358.476,474.142,358.486,474.134Zm-1.56.393a1.873,1.873,0,0,1-.167.348,44.564,44.564,0,0,1-3.405,5.281c-.363.5-.667.9-.677.9s-.3-.136-.657-.3a19.713,19.713,0,0,1-5.132-3.362l-.177-.166.893-.189a77.819,77.819,0,0,0,8.616-2.289C356.6,474.625,356.916,474.527,356.926,474.527Zm9.7,2.607h0a24.19,24.19,0,0,1-.9,2.856c-.343.944-.638,1.685-1.178,2.992-.235.574-.441,1.05-.451,1.05a.814.814,0,0,1-.128-.023,50.834,50.834,0,0,1-7.978-1.73c-.687-.212-1.668-.552-1.727-.589a13.219,13.219,0,0,1,1.315-.476c4.465-1.5,9.1-3.211,10.687-3.944A1.483,1.483,0,0,1,366.621,477.133Zm-22.384.589c.02.015-1.227,1.4-2.974,3.279-.608.657-1.315,1.428-1.58,1.715s-.667.74-.893,1.012l-.412.491-.442-.287a14.956,14.956,0,0,1-1.825-1.436,5.844,5.844,0,0,1-1.639-2.44c-.108-.363-.108-.544-.01-.567.147-.03,2.767-.506,5.221-.945,1.364-.242,2.944-.529,3.513-.635S344.228,477.723,344.237,477.723Zm1.256.37.314.272a18.293,18.293,0,0,0,4.6,2.9,2.735,2.735,0,0,1,.53.265c-.069.038-6.065,1.677-8.842,2.418-1.56.423-2.846.763-2.856.763a1.821,1.821,0,0,1-.2-.1l-.177-.1.285-.317c.922-1.028,2.081-2.153,4.6-4.5Zm7.831,4.314c.01-.007.441.113.971.265,1.276.37,2.286.6,3.641.869a51.4,51.4,0,0,0,5.505.733c.216.015.334.03.294.053-.069.03-1.511.4-2.571.657-1.688.408-6.84,1.579-11.04,2.508-.775.174-1.443.317-1.482.325a.961.961,0,0,1-.422-.083,5.945,5.945,0,0,1,.52-.506,47.94,47.94,0,0,0,3.984-4.125C353.05,482.724,353.324,482.414,353.324,482.407Zm-1.727.038c.01.008-.687.869-1.9,2.35-.52.627-1.1,1.337-1.305,1.587s-.491.62-.657.831l-.285.385-.147-.03c-.353-.076-2.836-.748-3.494-.952-.815-.249-1.658-.551-2.287-.808a10.208,10.208,0,0,1-1.688-.823c.02-.008,1.364-.287,2.983-.627,4.3-.9,6.683-1.42,8.243-1.8A4.905,4.905,0,0,1,351.6,482.445Zm12.218,2.206h.01c.039.076-1.55,3.475-2.13,4.548-.127.242-.176.3-.245.295-.167-.007-2.473-.257-3.876-.415-2.443-.287-6.545-.839-7.576-1.02l-.236-.038,1.462-.257c3.14-.544,4.652-.839,6.182-1.2a52.314,52.314,0,0,0,5.78-1.715A5.638,5.638,0,0,1,363.815,484.651Z" transform="translate(-332.512 -439.976)" fill="#fff"/>
    <path id="Trazado_284" data-name="Trazado 284" d="M470.418,82.735c-.216-.023-3.7.945-5.947,1.647a42.273,42.273,0,0,0-6.84,2.644,4.749,4.749,0,0,0-1.325,1.02.564.564,0,0,0-.059.257l1.315.96,3.13.771,7.448,1.028,8.518,1.126.088-.567c-.029,0-.049-.008-.078-.008l-1.119-.136-.225-.31a54.746,54.746,0,0,1-3.18-4.835,21.571,21.571,0,0,1-1.433-3.045c-.167-.514-.186-.544-.294-.551h0Zm-.157.385h.01a4.127,4.127,0,0,1,.088.468,12.8,12.8,0,0,0,.952,3.181c.363.831.363.786-.059.688-1-.211-5.486-.808-8.734-1.156-.52-.053-.962-.106-.962-.113-.039-.03,2.345-.99,3.4-1.367C466.3,84.344,469.986,83.158,470.261,83.12ZM460.8,86.5l.383.1a74.274,74.274,0,0,0,10.2,1.5c.324.023.6.045.608.045a5.1,5.1,0,0,1-.618.249c-1.393.536-2.924,1.194-3.984,1.7a4.571,4.571,0,0,1-.638.272c-.039,0-.245-.03-.461-.053l-.393-.045-.981-.74c-1.727-1.292-3.081-2.289-3.6-2.667Zm-.392.234,1.384,1.33c.756.733,1.521,1.451,1.688,1.609a2.667,2.667,0,0,1,.294.295c-.039.023-2-.272-3.042-.453-1.07-.189-1.511-.28-2.169-.438l-.54-.136v-.106c.01-.506.844-1.262,2.257-2.032Zm11.756,1.813c.039,0,.088.068.206.272.334.567,1.374,2.093,1.629,2.387.079.1.216.106-1.168-.068-3.327-.416-4.4-.551-4.4-.567a1.074,1.074,0,0,1,.226-.113,20.121,20.121,0,0,0,2.993-1.594c.226-.144.432-.28.471-.3C472.135,88.552,472.155,88.545,472.165,88.552Z" transform="translate(-446.407 -82.734)" fill="url(#linear-gradient)"/>
    <path id="Trazado_285" data-name="Trazado 285" d="M398,167.757a.6.6,0,0,0-.01.657,3.332,3.332,0,0,0,.922.839s4.367,3.279,4.9,3.747a9.3,9.3,0,0,1,3.562,7.177,9.443,9.443,0,0,1-1.551,5.432c-2.041,3.43-6.349,7.215-12.993,11.416l.972-.249a34.091,34.091,0,0,1,3.484-1.594,144.965,144.965,0,0,1,16.2-5.583,251.66,251.66,0,0,1,32.884-6.785l.893-.106-.137-.166a24.528,24.528,0,0,0-1.973-2.138,23.234,23.234,0,0,0-6.967-4.465,62.751,62.751,0,0,0-15.122-3.906c-1.187-.181-3.8-.529-5.917-.778-4.495-.536-7.4-.907-10.6-1.33-1.148-.151-2.866-.378-4-.567-.589-.1-1.717-.3-2.6-.536C399.233,168.611,398.212,168.4,398,167.757Zm2.532,1.889a3.356,3.356,0,0,1,.373.091c.373.1.854.211,1.423.332q.646.137,1.3.264c.589.113,1.079.219,1.089.219.069.053,1.06,2.493,1.394,3.43a6.831,6.831,0,0,1,.216.657,1.561,1.561,0,0,1-.245-.295,17.943,17.943,0,0,0-5.064-4.4,4.17,4.17,0,0,1-.481-.294Zm4.828,1.027a4.929,4.929,0,0,1,.53.068c1.668.287,4.661.725,6.575.975a3.017,3.017,0,0,1,.579.1,1.055,1.055,0,0,1-.265.128c-.324.128-1.629.725-2.061.952a18.817,18.817,0,0,0-2.777,1.707c-.285.219-.53.4-.53.4a2.685,2.685,0,0,1-.108-.287,21.185,21.185,0,0,0-1.756-3.7,2.9,2.9,0,0,1-.2-.347c0,.015,0,.008.01.008Zm8.5,1.247c.059.015.157.272.353.839a9.661,9.661,0,0,1,.471,3.46,5.067,5.067,0,0,1-.059.65l-.029.075-.51-.128c-1.05-.257-2.757-.642-4.22-.96-.834-.174-1.511-.332-1.511-.348a21.353,21.353,0,0,1,1.737-1.337C411.077,173.5,413.766,171.9,413.854,171.92Zm.677.075c.029-.023,4.063.514,5.9.786,1.364.2,3.346.521,3.464.559.059.015-.147.106-.8.332a47.724,47.724,0,0,0-6.428,2.69c-.5.257-.923.468-.932.468a3.181,3.181,0,0,1-.02-.483,8.5,8.5,0,0,0-1.06-4.11A.988.988,0,0,1,414.532,172Zm10.431,1.587a4.488,4.488,0,0,1-.216,1,17.018,17.018,0,0,1-2.473,4.367,5.01,5.01,0,0,1-.412.514,4.74,4.74,0,0,1-.589-.242,36.663,36.663,0,0,0-3.847-1.451c-.392-.128-.736-.234-.746-.249-.069-.045,3.091-1.655,4.759-2.425C422.765,174.474,424.924,173.552,424.963,173.582Zm.746.091c.088,0,1.874.378,2.806.589,2.306.529,4.956,1.277,6.683,1.881l.716.249-.5.091a89.9,89.9,0,0,0-11.315,2.7c-.285.091-.54.166-.559.166a1.708,1.708,0,0,1,.206-.385,12.759,12.759,0,0,0,1.894-5.032C425.65,173.786,425.679,173.673,425.709,173.673Zm-17.782,3.143c.029-.023,1.393.227,2.129.385,1.119.242,3.493.854,3.493.9,0,.008-.265.181-.579.393-1.285.824-2.522,1.692-4,2.8-.442.325-.814.589-.834.589s-.029-.045-.02-.106a13.16,13.16,0,0,0-.137-4.556A3.238,3.238,0,0,1,407.927,176.816Zm28.665.023a14.643,14.643,0,0,1-1.04,1.246c-.589.65-1.453,1.511-3.405,3.4-1.03,1-2.188,2.123-2.571,2.5s-.716.695-.726.695a2.74,2.74,0,0,1-.275-.3A18,18,0,0,0,424.6,181c-.294-.189-.618-.393-.726-.453a1.063,1.063,0,0,1-.2-.128c0-.023,1.668-.574,2.934-.967,2.218-.7,5.24-1.526,7.507-2.063C435.306,177.1,436.572,176.823,436.592,176.839Zm.755.151a2.613,2.613,0,0,1,.559.211,34.036,34.036,0,0,1,6.565,3.793c.52.393,1.806,1.42,1.786,1.428,0,0-.451.03-.981.06a123.541,123.541,0,0,0-14.5,1.859c-.343.06-.648.113-.667.113s.363-.295.844-.65a20.7,20.7,0,0,0,5.957-6.1c.226-.37.422-.687.442-.71Zm-21.854,1.723c.137.023,1.413.484,2.375.854.883.34,2.208.884,2.277.929.01.008-.461.2-1.04.416-1.845.71-3.425,1.383-5.074,2.153-.471.219-.864.4-.873.4-.039,0-.029-.03.236-.4a13.7,13.7,0,0,0,1.992-4.163C415.425,178.788,415.464,178.712,415.493,178.712Zm-1.276.181a11.855,11.855,0,0,1-.51,1.458,16.749,16.749,0,0,1-1.737,3.067c-.157.211-.393.521-.52.7l-.245.3-.55-.408a7.425,7.425,0,0,0-1.825-1.035,2.884,2.884,0,0,1-.471-.211c0-.06,1.678-1.231,2.964-2.078C412.245,180.072,414.188,178.871,414.217,178.894Zm7.8,2.471.481.242a38.375,38.375,0,0,1,3.385,1.927c.559.355,1.639,1.1,1.855,1.284l.118.1-.795.174c-4.495.959-7.968,1.813-12.021,2.962-.451.128-.834.234-.864.234-.059,0-.108.038.9-.68a37.645,37.645,0,0,0,6.595-5.833l.344-.408Zm-2.051.393c.02.015-1.325,1.473-2.13,2.3-.962.982-2.669,2.629-3.847,3.7-.491.446-.912.816-.932.824s-.039-.106-.039-.28a5.177,5.177,0,0,0-.834-2.72c-.226-.348-.265-.431-.216-.468.186-.128,3.042-1.383,4.848-2.131C418.035,182.482,419.939,181.742,419.968,181.757Zm-12.4,2.342a4.971,4.971,0,0,1,.51.2,11.4,11.4,0,0,1,1.688.876,2.856,2.856,0,0,1-.569.363c-.932.514-2.345,1.337-3.17,1.844-.864.529-.893.544-.795.431a13.6,13.6,0,0,0,1.315-1.745,12.425,12.425,0,0,0,.824-1.579A1.142,1.142,0,0,1,407.564,184.1Zm3.307,1.995c.049-.007.108.06.373.363a4.784,4.784,0,0,1,1.1,2.2l.019.151-1.344.4c-2.4.718-4.622,1.428-6.124,1.957-.422.151-1.158.423-1.639.6s-.873.332-.873.325.3-.181.677-.393a37.6,37.6,0,0,0,7.38-5.236c.206-.189.393-.363.412-.37Zm-1.521.287a18.179,18.179,0,0,1-1.845,1.6,32.481,32.481,0,0,1-6.094,3.785l-.589.287c-.069.03.02-.045,1.04-.9.648-.536,1.138-.99,1.7-1.549a3.113,3.113,0,0,1,.981-.718C405.984,188.088,409.311,186.351,409.35,186.381Z" transform="translate(-388.028 -162.551)" fill="#dafffd"/>
  </g>
  <path id="text" d="M21.135,796.1c-.181,0-.362.013-.542.013-3.656.15-6.122,1.389-7.564,3.808a7.909,7.909,0,0,0,.014,7.25c1.294,2.151,3.384,3.286,6.873,3.715.738.093,1.233.405,2.663,1.69l1.759,1.587h3.191l-2.122-1.647a20.179,20.179,0,0,1-2.121-1.758,2.561,2.561,0,0,1,.992-.348,6.9,6.9,0,0,0,4.317-3.114,5.4,5.4,0,0,0,1.083-3.346c.316-4.853-3.008-7.887-8.542-7.853Zm2.8,12.691a9.6,9.6,0,0,1-5.277.279A6.115,6.115,0,0,1,15,806.044a6.738,6.738,0,0,1,.21-5.534,6.35,6.35,0,0,1,5.76-2.908c3.88,0,6.088,1.83,6.376,5.269.228,2.871-1.021,5.025-3.411,5.917Zm55.117-8.546A3.774,3.774,0,0,0,76,801.482l-.542.651v-1.692H73.139v10.145h2.315v-3.243c0-2.965.048-3.312.586-4.123a3.134,3.134,0,0,1,3.251-1.4l.828.186v-1.758H79.049Zm-13.607-.093a8.58,8.58,0,0,0-1.414.128c-3.1.624-4.846,2.908-4.74,5.258a4.447,4.447,0,0,0,1.73,3.983c2.527,1.6,4.812,1.723,7.9.867.526-.173,1.1-.372,1.1-.372v-1.6l-1.1.438c-2.5.836-4.375.836-5.881-.149a4.186,4.186,0,0,1-1.578-2.686h9.339v-1.368c0-2.788-2.18-4.549-5.353-4.5ZM61.664,804.6a3.862,3.862,0,0,1,1.625-2.422,4.247,4.247,0,0,1,2.014-.5,3.888,3.888,0,0,1,1.956.509,3.533,3.533,0,0,1,1.369,2.4H61.665v.013Zm-55.839-1.83c-2.511-1.171-3.625-2.016-3.489-3.012.39-2.755,4.812-2.374,7.261-1.332l.017-1.854A11.9,11.9,0,0,0,6.32,796.1c-2.977-.035-4.9.717-5.8,2.247C-.808,800.6.365,802.3,4.6,804.2c2.38,1.066,3.432,1.992,3.432,3,0,2.085-3.265,2.812-6.633,1.5-.693-.266-1.28-.487-1.311-.487a12.337,12.337,0,0,0-.059,2,17.737,17.737,0,0,0,2.587.566c3.849.591,7.352-.8,7.683-3.057.288-2.119-.707-3.231-4.479-4.966h0Zm93.723-2.642a9.033,9.033,0,0,0-1.432.129c-3.1.624-4.839,2.908-4.72,5.258a4.423,4.423,0,0,0,1.728,3.97c2.527,1.6,4.812,1.726,7.911.869.524-.173,1.1-.369,1.1-.369v-1.6l-1.1.441c-2.5.834-4.381.834-5.881-.151a4.135,4.135,0,0,1-1.58-2.686H104.9V804.62c0-2.775-2.18-4.537-5.353-4.491l.005,0Zm-3.777,4.448a3.92,3.92,0,0,1,1.626-2.432,4.223,4.223,0,0,1,2.013-.5,3.89,3.89,0,0,1,1.956.51,3.551,3.551,0,0,1,1.369,2.409H95.773Zm-42.454-1.783c-2.511-1.168-3.622-2.016-3.487-3.012.39-2.756,4.812-2.374,7.261-1.332l.017-1.854a11.847,11.847,0,0,0-3.294-.473c-2.977-.034-4.9.717-5.805,2.247-1.323,2.257-.135,3.96,4.091,5.858,2.377,1.065,3.429,1.979,3.429,2.988,0,2.085-3.263,2.824-6.631,1.5-.69-.266-1.276-.485-1.311-.485a12.338,12.338,0,0,0-.059,2.005,19.437,19.437,0,0,0,2.57.566c3.853.592,7.357-.8,7.687-3.054.286-2.109-.707-3.22-4.467-4.957v0Zm59.84-2.572a3.757,3.757,0,0,0-3.053,1.24l-.542.648v-1.689h-2.316V810.56h2.315v-3.242c0-2.964.046-3.312.587-4.122a3.133,3.133,0,0,1,3.251-1.4l.828.186v-1.762h-1.069ZM34.9,802.733v-6.461H32.562v14.311h9.82v-1.69H34.9v-6.16Zm54,2.014L86.975,808.6l-1.851-3.877-1.88-4.3h-2.39c1.549,3.38,3.234,6.82,4.932,10.154.736.013,1.475,0,2.211,0l2.6-5.024,2.647-5.128H90.959s-1.009,2.037-2.061,4.318ZM40.279,792.372a1.5,1.5,0,0,0,.949-.292.876.876,0,0,0,.39-.717.862.862,0,0,0-.39-.717,1.529,1.529,0,0,0-.931-.279,1.5,1.5,0,0,0-.949.289.866.866,0,0,0-.376.717.842.842,0,0,0,.376.717,1.491,1.491,0,0,0,.931.279Zm-.828-1.646a1.513,1.513,0,0,1,1.673,0,.784.784,0,0,1,.345.637.8.8,0,0,1-.345.648,1.322,1.322,0,0,1-.828.255,1.288,1.288,0,0,1-.828-.255.8.8,0,0,1-.345-.648A.766.766,0,0,1,39.451,790.725Zm.557.73h.152c.107,0,.212.08.3.231l.181.313h.284l-.224-.348a.492.492,0,0,0-.286-.243.612.612,0,0,0,.314-.127.278.278,0,0,0,.1-.232.271.271,0,0,0-.134-.244.924.924,0,0,0-.483-.1h-.479V792h.241v-.544Zm0-.6h.211a.667.667,0,0,1,.317.058c.057.034.072.08.072.162,0,.15-.121.22-.345.22H40v-.441h0Zm-38.574.487c0-.451-.017-.787-.031-.985h.014a2.468,2.468,0,0,0,.195.523l2.242,3.856H4.23l2.242-3.891a2.952,2.952,0,0,0,.2-.487h.017a8.623,8.623,0,0,0-.06.987v3.4h.767v-5.059H6.429l-2.061,3.519c-.076.139-.181.348-.316.624H4.021a3.537,3.537,0,0,0-.3-.6l-2.015-3.555H.684v5.059h.738v-3.391l.012,0Zm7.638.009h.662V794.5H9.073Zm.331-1.155a.548.548,0,0,0,.345-.106.337.337,0,0,0,.152-.266.305.305,0,0,0-.15-.266.567.567,0,0,0-.348-.106.554.554,0,0,0-.345.106.341.341,0,0,0-.152.266.294.294,0,0,0,.152.266.584.584,0,0,0,.345.106h0Zm5.053,4.375v-.555a2.292,2.292,0,0,1-1.156.312,1.74,1.74,0,0,1-1.161-.372,1.25,1.25,0,0,1-.436-1,1.3,1.3,0,0,1,.466-1.052,1.757,1.757,0,0,1,1.173-.382,2.336,2.336,0,0,1,1.114.279v-.591a2.874,2.874,0,0,0-1.083-.186,2.712,2.712,0,0,0-1.776.545,1.783,1.783,0,0,0-.659,1.434,1.612,1.612,0,0,0,.6,1.3,2.483,2.483,0,0,0,1.625.52,3.289,3.289,0,0,0,1.293-.255Zm1.9-1.68a1.371,1.371,0,0,1,.345-.983,1.05,1.05,0,0,1,.767-.313,1.082,1.082,0,0,1,.569.117v-.6a1.522,1.522,0,0,0-.448-.047,1.37,1.37,0,0,0-.724.2,1.243,1.243,0,0,0-.509.611h-.017v-.74h-.75v3.612h.752V792.89Zm4.317,1.925a2.6,2.6,0,0,0,1.7-.523,1.878,1.878,0,0,0,.045-2.767,2.424,2.424,0,0,0-1.639-.5,2.8,2.8,0,0,0-1.7.475,1.74,1.74,0,0,0-.69,1.458,1.643,1.643,0,0,0,.6,1.332,2.552,2.552,0,0,0,1.683.522h0ZM19.6,791.873a1.734,1.734,0,0,1,1.128-.348,1.632,1.632,0,0,1,1.114.348,1.335,1.335,0,0,1,.405,1.053,1.316,1.316,0,0,1-.376,1.02,1.578,1.578,0,0,1-1.128.372,1.7,1.7,0,0,1-1.143-.372,1.261,1.261,0,0,1-.421-1.02A1.218,1.218,0,0,1,19.6,791.873Zm6.692,2.628a.877.877,0,0,0,.438-.741.812.812,0,0,0-.345-.66,2.913,2.913,0,0,0-.874-.393,3.026,3.026,0,0,1-.707-.3.447.447,0,0,1-.195-.372.41.41,0,0,1,.224-.359,1.128,1.128,0,0,1,.6-.138,2.156,2.156,0,0,1,1.069.256v-.579a2.764,2.764,0,0,0-1.009-.172,2.156,2.156,0,0,0-1.19.3.865.865,0,0,0-.466.751.808.808,0,0,0,.3.648,2.611,2.611,0,0,0,.842.4,3.491,3.491,0,0,1,.767.336.4.4,0,0,1,.195.345c0,.337-.3.511-.886.511a2.217,2.217,0,0,1-1.219-.345v.624a2.758,2.758,0,0,0,1.156.22,2.45,2.45,0,0,0,1.293-.336Zm3.58-3.474a2.8,2.8,0,0,0-1.7.475,1.749,1.749,0,0,0-.69,1.458,1.648,1.648,0,0,0,.6,1.332,3,3,0,0,0,3.384,0,1.875,1.875,0,0,0,.046-2.767,2.484,2.484,0,0,0-1.638-.5Zm1.459,1.9a1.316,1.316,0,0,1-.376,1.02,1.579,1.579,0,0,1-1.128.372,1.7,1.7,0,0,1-1.144-.372,1.261,1.261,0,0,1-.421-1.02,1.287,1.287,0,0,1,.452-1.065,1.735,1.735,0,0,1,1.128-.348,1.662,1.662,0,0,1,1.111.348,1.478,1.478,0,0,1,.376,1.065h0Zm2.032,1.807h.75v-3.127h1.1v-.486h-1.1v-.558a.681.681,0,0,1,.783-.762,1.291,1.291,0,0,1,.493.093v-.522a1.758,1.758,0,0,0-.542-.057,1.658,1.658,0,0,0-1.007.289,1.094,1.094,0,0,0-.483.937v.592h-.794v.486h.794v3.115Zm3.082-.985c0,.707.405,1.066,1.233,1.066a1.7,1.7,0,0,0,.707-.12v-.5a.955.955,0,0,1-.483.117.751.751,0,0,1-.54-.152.706.706,0,0,1-.167-.521V791.6h1.19v-.486H37.2v-1.065c-.259.069-.512.128-.752.186v.879h-.811v.486h.811v2.142Zm80.714,6.658a1.522,1.522,0,0,0-.931-.279,1.488,1.488,0,0,0-.949.292.874.874,0,0,0-.376.717.85.85,0,0,0,.374.717,1.563,1.563,0,0,0,.949.279,1.519,1.519,0,0,0,.949-.29.883.883,0,0,0,.388-.717.915.915,0,0,0-.405-.72Zm-.121,1.368a1.485,1.485,0,0,1-1.656,0,.809.809,0,0,1-.345-.651.767.767,0,0,1,.331-.637,1.506,1.506,0,0,1,1.669,0,.791.791,0,0,1,.345.637A.751.751,0,0,1,117.038,801.773Zm-.676-.591a.729.729,0,0,0,.316-.127.279.279,0,0,0,.1-.234.27.27,0,0,0-.134-.243.927.927,0,0,0-.483-.1h-.479v1.3h.242v-.544h.15c.1,0,.207.079.3.231l.179.312h.286l-.224-.348a.417.417,0,0,0-.259-.243Zm-.166-.117h-.259v-.438h.212a.653.653,0,0,1,.316.057c.06.034.074.08.074.162,0,.15-.121.219-.345.219Zm-41.959-10.1h.21v-1.3H75v-.162H73.68v.162h.557v1.3ZM75.513,790a1.8,1.8,0,0,0-.012-.288.674.674,0,0,0,.059.15l.647,1.113h.1l.648-1.123c.017-.034.031-.08.06-.139a2.212,2.212,0,0,0-.014.279v.983h.224v-1.458h-.271l-.586,1.006c-.014.036-.061.106-.09.186h-.017a.923.923,0,0,0-.086-.173l-.586-1.02h-.3v1.461H75.5V790h.012Z" transform="translate(0 -740.984)" fill="#fff"/>
</svg>
