<svg xmlns="http://www.w3.org/2000/svg" width="128.836" height="21.425" viewBox="0 0 128.836 21.425">
  <g id="Navigation" transform="translate(-0.068 -0.227)">
    <g id="GlobalNav_Guest_Large" data-name="GlobalNav/Guest/Large" transform="translate(0.068 0.226)">
      <g id="LOGO" transform="translate(0 0)">
        <g id="Group" transform="translate(0)">
          <path id="Fill-65" d="M73.686,13.687l-1.46-3.2-1.472,3.2ZM70.867,8.212h2.718c.472,1.017,4.386,9.38,4.386,9.38H75.487l-1.022-2.2h-4.51l-.994,2.2H66.466Z" transform="translate(-25.63 -3.301)" fill="#d7b514" fill-rule="evenodd"/>
          <path id="Fill-66" d="M122.967,11.627a3.283,3.283,0,0,0-2.34.821l-.129-.679h-2.126a3.961,3.961,0,0,1,.225,1.144v5.995h2.1V14.751c0-1.113.694-1.691,2.268-1.691.865,0,1.4.284,1.4,1.691v4.158h2.094V14.751c0-2.121-.691-3.124-3.489-3.124" transform="translate(-45.614 -4.616)" fill="#d7b514" fill-rule="evenodd"/>
          <path id="Fill-67" d="M136.261,14.636c.122-.88.525-1.554,2.183-1.554a1.575,1.575,0,0,1,1.723,1.554Zm2.183-2.97c-3.57,0-4.364,1.658-4.364,3.689,0,2.053.779,3.717,4.538,3.717a15.672,15.672,0,0,0,2.955-.315c.057-.364.178-1.153.218-1.423a23.583,23.583,0,0,1-3.172.318c-1.747,0-2.215-.66-2.358-1.578H142.3v-.718C142.3,12.8,140.924,11.666,138.445,11.666Z" transform="translate(-51.661 -4.631)" fill="#d7b514" fill-rule="evenodd"/>
          <path id="Fill-68" d="M23.246,17.659c-1.755,0-2.276-.866-2.276-2.3,0-1.409.521-2.27,2.276-2.27s2.27.861,2.27,2.27c0,1.435-.526,2.3-2.27,2.3m0-6c-2.624,0-4.373,1.143-4.373,3.7,0,2.588,1.749,3.717,4.373,3.717s4.362-1.129,4.362-3.717c0-2.558-1.742-3.7-4.362-3.7" transform="translate(-7.308 -4.627)" fill="#d7b514" fill-rule="evenodd"/>
          <path id="Fill-69" d="M57.006,16.192c0,1.323-1.279,1.439-2.449,1.439-.4,0-1.043-.086-1.043-.867,0-.515.707-.86,1.567-.86h1.925ZM59.1,13.924c0-1.437-1.552-2.3-3.842-2.3a11.073,11.073,0,0,0-3.128.627c-.047.3-.2,1.242-.226,1.439a17.34,17.34,0,0,1,3.354-.634c1.147,0,1.749.388,1.749.949v.606s-1.416-.138-1.925-.138c-2.286,0-3.67.81-3.67,2.287,0,1.872,2.083,2.28,3.145,2.28a3.726,3.726,0,0,0,2.535-.7l.121.56h2.1a4.363,4.363,0,0,1-.215-1.278Z" transform="translate(-19.835 -4.616)" fill="#d7b514" fill-rule="evenodd"/>
          <path id="Fill-70" d="M5.785,7.764c2.463,0,3.993.768,4.843,1.982l-2.2.847A2.966,2.966,0,0,0,5.813,9.479H5.758a2.992,2.992,0,0,0-2.582,1.059,3.411,3.411,0,0,0-.649,2.085v.134h0a3.525,3.525,0,0,0,.651,2.063,2.994,2.994,0,0,0,2.582,1.059h.054A2.987,2.987,0,0,0,8.4,14.8l2.224.846c-.854,1.2-2.4,1.931-4.831,1.931H5.785c-2.161,0-3.61-.566-4.5-1.54A4.794,4.794,0,0,1,.068,12.71v-.087a4.771,4.771,0,0,1,1.216-3.3,5.808,5.808,0,0,1,4.5-1.562" transform="translate(-0.068 -3.128)" fill="#d7b514" fill-rule="evenodd"/>
          <path id="Fill-71" d="M107.2,16.463V8.218h-2.1v8.245a3.623,3.623,0,0,0,.223,1.134h2.1a3.867,3.867,0,0,1-.224-1.134" transform="translate(-40.503 -3.303)" fill="#d7b514" fill-rule="evenodd"/>
          <path id="Fill-72" d="M95.661,14.737c.009-1.1.828-1.678,2.272-1.678.24,0,1.186.119,1.591.172-.018-.184-.164-1.069-.224-1.435a9.4,9.4,0,0,0-1.367-.17,3.289,3.289,0,0,0-2.3.787l-.177-.645H93.341a4.113,4.113,0,0,1,.221,1.126v6.011h2.1Z" transform="translate(-35.977 -4.616)" fill="#d7b514" fill-rule="evenodd"/>
          <path id="Fill-73" d="M39.863,17.643a2,2,0,0,1-2.27-2.3c.038-1.368.491-2.274,2.27-2.274,1.611,0,1.924,1.006,1.924,2.274,0,1.286-.313,2.3-1.924,2.3m0-6a4.271,4.271,0,0,0-2.322.762s-.112-.422-.159-.617H35.271a4.6,4.6,0,0,1,.225,1.288v8.114h2.1V18.361a3.9,3.9,0,0,0,2.27.7c3.516,0,4.024-1.665,4.024-3.717,0-2.032-.507-3.707-4.024-3.707" transform="translate(-13.621 -4.621)" fill="#d7b514" fill-rule="evenodd"/>
          <path id="Fill-74" d="M155.835,12.006v1.615a5.546,5.546,0,0,0-2.624-.666,2.751,2.751,0,0,0-1.131.182.578.578,0,0,0-.381.535c0,.338.547.609,1.632.82l.082.017.643.124a3.608,3.608,0,0,1,1.79.773,1.891,1.891,0,0,1,.566,1.443,1.813,1.813,0,0,1-.865,1.648,4.934,4.934,0,0,1-2.6.545,12.237,12.237,0,0,1-1.582-.105,13.991,13.991,0,0,1-1.635-.333V16.975a7.522,7.522,0,0,0,1.506.537,6.154,6.154,0,0,0,1.482.189,2.908,2.908,0,0,0,1.189-.193.608.608,0,0,0,.405-.556.633.633,0,0,0-.286-.546,4.735,4.735,0,0,0-1.363-.4l-.621-.117a3.877,3.877,0,0,1-1.863-.747,1.734,1.734,0,0,1-.587-1.369,1.77,1.77,0,0,1,.89-1.586,4.61,4.61,0,0,1,2.508-.573,11.363,11.363,0,0,1,1.452.095,9.773,9.773,0,0,1,1.395.3" transform="translate(-57.632 -4.61)" fill="#d7b514" fill-rule="evenodd"/>
          <path id="Fill-75" d="M112.889,9.9a1.692,1.692,0,0,0,.934-.18.791.791,0,0,0,.251-.673.783.783,0,0,0-.24-.652,2.417,2.417,0,0,0-1.867.008.8.8,0,0,0-.245.676.757.757,0,0,0,.234.645,1.719,1.719,0,0,0,.934.176m1.051,6.558V10.454h-2.094v6.009a3.51,3.51,0,0,0,.226,1.134h2.093a3.83,3.83,0,0,1-.226-1.134" transform="translate(-43.053 -3.303)" fill="#d7b514" fill-rule="evenodd"/>
          <path id="Fill-76" d="M87.843,9.9a1.7,1.7,0,0,0,.934-.18.8.8,0,0,0,.254-.673.789.789,0,0,0-.245-.652,2.41,2.41,0,0,0-1.864.008.808.808,0,0,0-.247.676.756.756,0,0,0,.238.645,1.691,1.691,0,0,0,.929.176M88.9,16.463V10.454H86.8v6.009a3.482,3.482,0,0,0,.229,1.134h2.09a3.849,3.849,0,0,1-.223-1.134" transform="translate(-33.411 -3.303)" fill="#d7b514" fill-rule="evenodd"/>
          <path id="Fill-77" d="M207.26,32.552h-.213v-.34h.341c.145,0,.325.024.325.164,0,.209-.288.177-.453.177m.635-.177c0-.284-.231-.347-.468-.347h-.563v1.321h.183v-.6h.213l.4.6h.221l-.4-.6c.236-.009.415-.105.415-.371" transform="translate(-79.682 -12.469)" fill="#d7b514" fill-rule="evenodd"/>
          <path id="Fill-78" d="M206.824,33.386a1.011,1.011,0,1,1,1.027-1,1.023,1.023,0,0,1-1.027,1m0-2.187a1.187,1.187,0,1,0,1.213,1.183,1.181,1.181,0,0,0-1.213-1.183" transform="translate(-79.201 -12.15)" fill="#d7b514" fill-rule="evenodd"/>
          <path id="Fill-79" d="M166.567,14.792v.677a31.462,31.462,0,0,1,6.878-1.76,20.827,20.827,0,0,0-6.878,1.083" transform="translate(-64.168 -5.415)" fill="#d7b514" fill-rule="evenodd"/>
          <path id="Fill-80" d="M179.2,10.31a8.683,8.683,0,0,0-1.854-1.049c.247-.016.5-.055.792-.07a6.8,6.8,0,0,1,1.447,1.242ZM174.12,7.493a9.285,9.285,0,0,0-1.906-.448c.288-.064.571-.118.894-.158a6.552,6.552,0,0,1,1.675.708Zm-7.554-1.454a15.327,15.327,0,0,1,2.1.289l-1.354.172c-.231.01-.49.03-.75.056v.3a18.069,18.069,0,0,1,3.05-.309,35.7,35.7,0,0,1,15.943-.121,37.037,37.037,0,0,0-18.993,1.917v.522a20.277,20.277,0,0,1,4.011-.934,13.692,13.692,0,0,1,5.316.3,34.587,34.587,0,0,1,11.116.914,37.793,37.793,0,0,0-20.442,2.65v.419a21.464,21.464,0,0,1,7.56-2.075,10.679,10.679,0,0,1,5.976,1.131,33.035,33.035,0,0,1,8.078.8V.226H166.566Z" transform="translate(-64.167 -0.226)" fill="#d7b514" fill-rule="evenodd"/>
          <path id="Fill-81" d="M166.567,19.946v1.309a31.749,31.749,0,0,1,11.038-3,20.56,20.56,0,0,0-11.038,1.687" transform="translate(-64.168 -7.092)" fill="#d7b514" fill-rule="evenodd"/>
          <path id="Fill-82" d="M183.157,21.992a6.45,6.45,0,0,0-2.635-2.242c.344-.041.777-.053,1.1-.068a1.77,1.77,0,0,1,.328.318,8.326,8.326,0,0,1,1.752,2.59Zm-16.59,1.475v.544c.261-.148.522-.289.768-.42a23.23,23.23,0,0,1,5.822-2.2,16.718,16.718,0,0,1,5.278-.444c3.108.278,5.339,1.627,6.414,3.957a10.628,10.628,0,0,1,.851,3.343l-.373-.924a4.67,4.67,0,0,0-.469-1.36,7.09,7.09,0,0,0-4.44-3.29,14.768,14.768,0,0,0-6.987-.119,27.24,27.24,0,0,0-6.865,2.393V29h.216a18.511,18.511,0,0,1,4.275-2.3c3.926-1.679,7.745-2.187,10.612-1.431A5.406,5.406,0,0,1,185.709,29h2.472V19.6C184.645,19.2,175.22,18.547,166.567,23.467Z" transform="translate(-64.168 -7.579)" fill="#d7b514" fill-rule="evenodd"/>
          <path id="Fill-83" d="M182.343,31.2a14.747,14.747,0,0,0-6.424-.084,21.12,21.12,0,0,0-6.522,2.308h16.415a5.944,5.944,0,0,0-3.469-2.225" transform="translate(-65.257 -11.999)" fill="#d7b514" fill-rule="evenodd"/>
        </g>
      </g>
    </g>
  </g>
</svg>
