<svg id="office-365" xmlns="http://www.w3.org/2000/svg" width="182.204" height="30.868" viewBox="0 0 182.204 30.868">
  <path id="Trazado_208" data-name="Trazado 208" d="M163.213,29.817a9.529,9.529,0,0,1-1.4,5.181,9.072,9.072,0,0,1-4.024,3.426,14.387,14.387,0,0,1-6.042,1.2,14.072,14.072,0,0,1-5.875-1.168,9.115,9.115,0,0,1-3.98-3.317,8.68,8.68,0,0,1-1.409-4.87,9.382,9.382,0,0,1,1.426-5.162A9.125,9.125,0,0,1,146,21.682a14.951,14.951,0,0,1,6.167-1.194,13.537,13.537,0,0,1,5.742,1.174,9.1,9.1,0,0,1,3.921,3.3,8.708,8.708,0,0,1,1.383,4.852m-2.949.284a7.292,7.292,0,0,0-2.2-5.639,8.693,8.693,0,0,0-6.118-2.025,9.875,9.875,0,0,0-4.417.961,7.138,7.138,0,0,0-3.026,2.73,7.473,7.473,0,0,0-1.072,3.948,7.593,7.593,0,0,0,1.032,3.956,6.9,6.9,0,0,0,2.94,2.684,9.654,9.654,0,0,0,4.342.949A9.078,9.078,0,0,0,158,35.651a7.049,7.049,0,0,0,2.263-5.55M175.3,21.6a4.54,4.54,0,0,0-1.828-.349q-2.882,0-2.882,2.8v2.038h4.022v1.793h-4.022V39.3h-2.749V27.881h-2.916V26.088h2.916V23.946a3.968,3.968,0,0,1,1.541-3.252,6.066,6.066,0,0,1,3.924-1.239,6.834,6.834,0,0,1,1.994.234V21.6Z" transform="translate(-94.915 -14.596)" fill="#fff"/>
  <path id="Trazado_209" data-name="Trazado 209" d="M89.855,7a4.535,4.535,0,0,0-1.827-.349q-2.882,0-2.882,2.8v2.038h4.022v1.793H85.145V24.7H82.4V13.284H79.479V11.492H82.4V9.35A3.966,3.966,0,0,1,83.938,6.1a6.063,6.063,0,0,1,3.923-1.239,6.825,6.825,0,0,1,1.994.234V7Zm5.069-.245a1.179,1.179,0,0,1-.536.986,2.293,2.293,0,0,1-2.548.013,1.191,1.191,0,0,1-.009-1.961,1.991,1.991,0,0,1,1.282-.407,2.048,2.048,0,0,1,1.291.4,1.186,1.186,0,0,1,.52.968M94.455,24.7h-2.75V11.49h2.75Zm15.688-.605a11.065,11.065,0,0,1-4.71.929,10.285,10.285,0,0,1-4.215-.832,6.745,6.745,0,0,1-2.908-2.357,5.916,5.916,0,0,1-1.038-3.418,6.458,6.458,0,0,1,2.437-5.266,9.978,9.978,0,0,1,6.5-1.987,10.9,10.9,0,0,1,3.973.672v2.167a8.543,8.543,0,0,0-4.089-1.032,6.33,6.33,0,0,0-4.332,1.464,4.806,4.806,0,0,0-1.669,3.788,4.536,4.536,0,0,0,1.585,3.652,6.353,6.353,0,0,0,4.248,1.341,8.337,8.337,0,0,0,4.224-1.136V24.1Zm16.889-5.471H114.913a4.309,4.309,0,0,0,1.535,3.413,6.314,6.314,0,0,0,4.062,1.18,10.1,10.1,0,0,0,5.315-1.445v1.975a12.041,12.041,0,0,1-5.967,1.276,8.355,8.355,0,0,1-5.734-1.826,6.4,6.4,0,0,1-2.061-5.052,6.529,6.529,0,0,1,1.033-3.58,6.9,6.9,0,0,1,2.84-2.51,9,9,0,0,1,4.022-.892,7.531,7.531,0,0,1,5.2,1.673,5.944,5.944,0,0,1,1.869,4.677v1.11Zm-2.815-1.794a3.752,3.752,0,0,0-1.15-2.846,4.5,4.5,0,0,0-3.141-1.013,5.155,5.155,0,0,0-3.268,1.058,4.571,4.571,0,0,0-1.709,2.8Zm23.729,2.632a4.639,4.639,0,0,1-2.329,4.033,10.984,10.984,0,0,1-6.118,1.529,12.434,12.434,0,0,1-5.465-1.006V21.75a10.547,10.547,0,0,0,5.564,1.47,7.405,7.405,0,0,0,4.032-.961,2.951,2.951,0,0,0,1.5-2.6q0-3.624-6.7-3.625h-1.994V14.239h1.893q5.932,0,5.934-3.407,0-3.148-4.526-3.148A9.235,9.235,0,0,0,134.957,9V6.949a12.964,12.964,0,0,1,5.464-1.058,8.554,8.554,0,0,1,4.819,1.22,3.69,3.69,0,0,1,1.834,3.193q0,3.653-4.793,4.7v.051a7.672,7.672,0,0,1,4.108,1.42,3.643,3.643,0,0,1,1.558,2.994m18.084-.632a5.512,5.512,0,0,1-.98,3.187,6.407,6.407,0,0,1-2.708,2.219,9.209,9.209,0,0,1-3.871.787,7.309,7.309,0,0,1-5.658-2.232,8.865,8.865,0,0,1-2.052-6.233,12.376,12.376,0,0,1,1.216-5.605,8.805,8.805,0,0,1,3.442-3.748,9.919,9.919,0,0,1,5.146-1.317,12.344,12.344,0,0,1,3.991.529v2a10.57,10.57,0,0,0-3.923-.735,6.435,6.435,0,0,0-5.1,2.2,8.6,8.6,0,0,0-1.92,5.864h.067q1.659-2.621,5.481-2.62a7.538,7.538,0,0,1,5,1.568,5.115,5.115,0,0,1,1.877,4.135m-2.815.27a3.937,3.937,0,0,0-1.232-3.059,4.932,4.932,0,0,0-3.445-1.121,5.278,5.278,0,0,0-3.386,1.09,3.264,3.264,0,0,0-1.373,2.638,4.325,4.325,0,0,0,1.365,3.258,4.775,4.775,0,0,0,3.446,1.31,4.835,4.835,0,0,0,3.343-1.142,3.8,3.8,0,0,0,1.281-2.974m18.99-.052a5.07,5.07,0,0,1-2.32,4.337,10.551,10.551,0,0,1-6.194,1.637,12.137,12.137,0,0,1-4.977-.773V22.007a11.134,11.134,0,0,0,5.01,1.214,6.989,6.989,0,0,0,4.105-1.1,3.42,3.42,0,0,0,1.561-2.94,3.215,3.215,0,0,0-1.575-2.834,8.423,8.423,0,0,0-4.575-1.025q-2.4,0-4.074.153l.82-9.277H181.1V8.11h-8.733l-.486,5.433,2.212-.066a10.545,10.545,0,0,1,5.933,1.46,4.673,4.673,0,0,1,2.179,4.116M33.444,28.3h0V2.651L21.507,0,.054,6.2,0,6.21,0,24.752l7.321-2.206V7.46L21.507,4.849l0,22.18L.015,24.752l21.49,6.11v.007l11.936-2.543V28.3Z" fill="#fff"/>
</svg>
