<svg id="python" xmlns="http://www.w3.org/2000/svg" width="158.901" height="32.076" viewBox="0 0 158.901 32.076">
  <g id="Grupo_1" data-name="Grupo 1" transform="translate(0 0)">
    <path id="path46" d="M178.337,235.633q0-6.064-4.492-6.232a10.741,10.741,0,0,0-3.488.441,5.732,5.732,0,0,0-1.831.744v9.651a10.83,10.83,0,0,0,5.1,1.288Q178.336,241.285,178.337,235.633Zm3.695.168a7.226,7.226,0,0,1-1.884,5.115,7.7,7.7,0,0,1-5.832,2.368,12.661,12.661,0,0,1-5.789-1.354V250.7l-3.213-.882V230.351a7.1,7.1,0,0,1,2.028-1.288,17.315,17.315,0,0,1,6.97-1.321l.046.035a7.049,7.049,0,0,1,5.779,2.368A8.369,8.369,0,0,1,182.032,235.8Z" transform="translate(-113.776 -219.344)" fill="#fff"/>
    <path id="path48" d="M246.275,241.557q0,4.132-1.075,5.724a7.486,7.486,0,0,1-4.117,2.538,19.919,19.919,0,0,1-5.321.814l-.531-1.558a32.311,32.311,0,0,0,4.091-.609,5.438,5.438,0,0,0,3.213-1.862,7.407,7.407,0,0,0,.7-3.894v-.645a20.762,20.762,0,0,1-6.908,1.15,7.593,7.593,0,0,1-4.18-1.15,3.682,3.682,0,0,1-2.024-3.182v-10.3l3.213-.847V238.1a2.869,2.869,0,0,0,1.392,2.557,6.372,6.372,0,0,0,3.6.864,10.842,10.842,0,0,0,4.728-1.321V228.114h3.213v13.443Z" transform="translate(-158.383 -219.344)" fill="#fff"/>
    <path id="path50" d="M302.24,228.461c-.383.024-.735.035-1.058.035a7.668,7.668,0,0,1-4.246-1,3.152,3.152,0,0,1-1.514-2.769v-9.743h-2.2v-1.556h2.2v-4.132l3.209-.88v5.012h3.61v1.556h-3.61v9.675a2.107,2.107,0,0,0,.97,1.971,6.053,6.053,0,0,0,2.64.544Z" transform="translate(-201.806 -204.656)" fill="#fff"/>
    <path id="path52" d="M349.97,216.357h-3.213v-9.548a3.774,3.774,0,0,0-.882-2.506,3.528,3.528,0,0,0-2.83-1.185,12.313,12.313,0,0,0-5.526,1.794v11.445h-3.213V193.534l3.213-.779V203.15a13.541,13.541,0,0,1,6.731-1.726,6.242,6.242,0,0,1,4.135,1.321,4.1,4.1,0,0,1,1.585,3.285v10.327Z" transform="translate(-230.083 -192.755)" fill="#fff"/>
    <path id="path54" d="M408.143,235.243A6.229,6.229,0,0,0,407,231.392a5.132,5.132,0,0,0-4.222-1.957q-5.283.236-5.279,5.824a7.745,7.745,0,0,0,1.1,4.279,4.634,4.634,0,0,0,4.239,2.154Q408.144,241.66,408.143,235.243Zm3.519.016a7.5,7.5,0,0,1-2.2,5.521,8.935,8.935,0,0,1-6.686,2.471,8.73,8.73,0,0,1-6.6-2.471,7.573,7.573,0,0,1-2.155-5.521,6.84,6.84,0,0,1,2.331-5.25,9.182,9.182,0,0,1,6.468-2.268,9.353,9.353,0,0,1,6.514,2.268A6.841,6.841,0,0,1,411.662,235.259Z" transform="translate(-271.18 -219.344)" fill="#fff"/>
    <path id="path56" d="M475.4,242.945h-3.213V232.856a3.017,3.017,0,0,0-1.3-2.593,5.643,5.643,0,0,0-3.455-.9,9.33,9.33,0,0,0-4.356,1.15v12.427h-3.213V230.212a17.984,17.984,0,0,1,5.1-2.029,19.928,19.928,0,0,1,3.874-.441,12.952,12.952,0,0,1,2.155.17,6.941,6.941,0,0,1,3.079,1.253A2.994,2.994,0,0,1,475.4,231.6v11.343Z" transform="translate(-316.499 -219.344)" fill="#fff"/>
    <path id="path1948" d="M19.807,196.381a35.711,35.711,0,0,0-4.621.3c-4.092.557-4.834,1.721-4.834,3.87v2.837h9.67v.946H6.722c-2.81,0-5.271,1.3-6.04,3.774a10.851,10.851,0,0,0,0,7.566,5.029,5.029,0,0,0,5.139,3.774H9.146v-3.4c0-2.457,2.761-4.625,6.04-4.625h9.658c2.689,0,4.835-1.7,4.835-3.783v-7.089c0-2.017-2.211-3.533-4.835-3.87A38.981,38.981,0,0,0,19.807,196.381Zm-5.229,2.282a1.462,1.462,0,1,1,0,2.837,1.462,1.462,0,1,1,0-2.837Z" transform="translate(-0.001 -195.511)" fill="#fff"/>
    <path id="path1950" d="M53.733,229.531v3.306c0,2.563-2.822,4.72-6.04,4.72H38.035c-2.646,0-4.835,1.744-4.835,3.783v7.089c0,2.017,2.279,3.2,4.835,3.783a20.813,20.813,0,0,0,9.658,0c2.434-.542,4.835-1.635,4.835-3.783v-2.838H42.87v-.945H57.362c2.811,0,3.858-1.509,4.835-3.774,1.009-2.332.967-4.575,0-7.566-.695-2.154-2.021-3.774-4.835-3.774ZM48.3,247.483a1.462,1.462,0,1,1-1.814,1.414A1.651,1.651,0,0,1,48.3,247.483Z" transform="translate(-22.85 -220.704)" fill="#fff"/>
  </g>
</svg>
