<svg id="reference-image" xmlns="http://www.w3.org/2000/svg" width="682.066" height="500.123" viewBox="0 0 682.066 500.123">
  <path id="Trazado_256" data-name="Trazado 256" d="M450.636,711.857l-1.692-6.674a86.644,86.644,0,0,0-9.195-3.3l-.214,3.1-.866-3.417c-3.875-1.106-6.511-1.594-6.511-1.594s3.561,13.541,11.029,23.892l8.7,1.529-6.761.975a35.046,35.046,0,0,0,3.024,3.2c10.864,10.085,22.966,14.711,27.028,10.334s-1.451-16.1-12.316-26.185a46.16,46.16,0,0,0-11.834-7.61Z" transform="translate(-234.962 -251.659)" fill="#efca16"/>
  <path id="Trazado_257" data-name="Trazado 257" d="M472.42,700.673l2-6.588a86.678,86.678,0,0,0-6.166-7.577l-1.786,2.545,1.025-3.373c-2.745-2.95-4.75-4.73-4.75-4.73s-3.951,13.432-2.909,26.154l6.66,5.807-6.291-2.66a35.05,35.05,0,0,0,.932,4.307c4.088,14.249,12.055,24.465,17.8,22.818s7.08-14.533,2.992-28.782a46.161,46.161,0,0,0-6.2-12.632Z" transform="translate(-240.652 -247.723)" fill="#efca16"/>
  <path id="Trazado_258" data-name="Trazado 258" d="M811.4,717.928l-.853-3.363a43.716,43.716,0,0,0-4.633-1.662l-.108,1.563-.437-1.722c-1.953-.558-3.281-.8-3.281-.8a41.855,41.855,0,0,0,5.558,12.04l4.385.77-3.407.491a17.64,17.64,0,0,0,1.524,1.615c5.475,5.082,11.573,7.413,13.62,5.208s-.731-8.113-6.206-13.2a23.262,23.262,0,0,0-5.964-3.835Z" transform="translate(-311.502 -254.135)" fill="#efca16"/>
  <path id="Trazado_259" data-name="Trazado 259" d="M822.391,712.292l1.009-3.32a43.669,43.669,0,0,0-3.107-3.818l-.9,1.282.516-1.7c-1.383-1.487-2.394-2.383-2.394-2.383a41.854,41.854,0,0,0-1.466,13.179l3.356,2.926-3.17-1.34a17.687,17.687,0,0,0,.47,2.17c2.06,7.18,6.075,12.328,8.968,11.5s3.568-7.323,1.508-14.5a23.265,23.265,0,0,0-3.123-6.365Z" transform="translate(-314.38 -252.152)" fill="#efca16"/>
  <path id="Trazado_260" data-name="Trazado 260" d="M903.293,710.109l-1.122-4.424a57.441,57.441,0,0,0-6.094-2.187l-.142,2.056-.574-2.265c-2.568-.733-4.316-1.056-4.316-1.056s2.36,8.975,7.31,15.836l5.768,1.013-4.481.646a23.2,23.2,0,0,0,2,2.124c7.2,6.684,15.222,9.751,17.915,6.85s-.962-10.672-8.163-17.356a30.6,30.6,0,0,0-7.844-5.044Z" transform="translate(-329.907 -252.127)" fill="#efca16"/>
  <path id="Trazado_261" data-name="Trazado 261" d="M917.732,702.7l1.327-4.367a57.449,57.449,0,0,0-4.087-5.022l-1.184,1.687.679-2.236c-1.82-1.955-3.148-3.135-3.148-3.135s-2.619,8.9-1.928,17.335l4.414,3.849-4.17-1.763a23.223,23.223,0,0,0,.618,2.855c2.709,9.444,7.99,16.215,11.8,15.124s4.693-9.632,1.983-19.077a30.6,30.6,0,0,0-4.108-8.372Z" transform="translate(-333.678 -249.517)" fill="#e6e6e6"/>
  <path id="Trazado_262" data-name="Trazado 262" d="M725.8,683.448l5.1-5.907a98.225,98.225,0,0,0-2.913-10.678l-3.018,1.817,2.609-3.025c-1.491-4.316-2.751-7.079-2.751-7.079s-10.255,12.1-15.011,25.762l4.236,9.071-5.3-5.642a39.726,39.726,0,0,0-1.01,4.889c-2.3,16.637,1.267,30.876,7.97,31.8s14-11.809,16.3-28.446a52.3,52.3,0,0,0-.626-15.929Z" transform="translate(-291.836 -243.094)" fill="#efca16"/>
  <path id="Trazado_263" data-name="Trazado 263" d="M743.993,697.148l7.416-2.423a98.21,98.21,0,0,0,3.026-10.646l-3.523,0,3.8-1.241c.955-4.465,1.3-7.482,1.3-7.482s-15.035,5.06-26.166,14.295l-1.063,9.955-1.619-7.568a39.72,39.72,0,0,0-3.392,3.664c-10.57,13.053-14.875,27.086-9.616,31.344s18.09-2.871,28.66-15.924a52.31,52.31,0,0,0,7.7-13.96Z" transform="translate(-292.844 -246.565)" fill="#efca16"/>
  <path id="Trazado_264" data-name="Trazado 264" d="M836.83,716.648l2.266-2.627a43.69,43.69,0,0,0-1.3-4.749l-1.342.808,1.16-1.345c-.663-1.919-1.224-3.148-1.224-3.148a41.856,41.856,0,0,0-6.676,11.458l1.884,4.034-2.356-2.509a17.662,17.662,0,0,0-.449,2.175c-1.023,7.4.564,13.732,3.545,14.144s6.227-5.252,7.251-12.651a23.256,23.256,0,0,0-.279-7.085Z" transform="translate(-316.963 -252.82)" fill="#efca16"/>
  <path id="Trazado_265" data-name="Trazado 265" d="M844.921,722.741l3.3-1.078a43.737,43.737,0,0,0,1.346-4.735l-1.567,0,1.689-.552c.425-1.986.58-3.328.58-3.328A41.85,41.85,0,0,0,838.63,719.4l-.473,4.427-.72-3.366a17.65,17.65,0,0,0-1.508,1.629c-4.7,5.805-6.616,12.047-4.277,13.94s8.046-1.277,12.746-7.082a23.26,23.26,0,0,0,3.424-6.209Z" transform="translate(-317.412 -254.364)" fill="#efca16"/>
  <path id="Trazado_266" data-name="Trazado 266" d="M269.335,758.677s451.469-57.1,600.572,0Z" transform="translate(-187.843 -258.554)" fill="#efca16"/>
  <path id="Trazado_267" data-name="Trazado 267" d="M993.035,286.418C991.95,202.333,949.054,134.7,896.29,134.7c-31.708,0-59.854,24.424-77.5,62.166l20.751,52.067-28.679-32.093a231.716,231.716,0,0,0-11.339,72.839,237.465,237.465,0,0,0,7.315,59.189l55.611-8.966-49.771,27.831c16.215,44.453,45.85,74.814,80.01,76.817l-6.583,179.1,20.373.728L902.12,444.372c48.643-4.632,87.609-66.8,90.73-144.606l-33.615-18.8Z" transform="translate(-310.97 -134.703)" fill="#efca16"/>
  <path id="Trazado_268" data-name="Trazado 268" d="M442.83,171.963l26.77,4.709,8.924-44.728-21.565-9.416Z" transform="translate(-113.064 -25.352)" fill="#2f2e41"/>
  <path id="Trazado_269" data-name="Trazado 269" d="M483.418,180.983l26.77,4.708,8.923-44.727-21.564-9.416Z" transform="translate(-121.462 -27.218)" fill="#2f2e41"/>
  <path id="Trazado_270" data-name="Trazado 270" d="M523.631,556.815v18.6h13.591l-1.431-17.883Z" transform="translate(-129.782 -115.207)" fill="#ffb8b8"/>
  <path id="Trazado_271" data-name="Trazado 271" d="M430.792,556.815v18.6H417.2l1.431-17.883Z" transform="translate(-107.761 -115.207)" fill="#ffb8b8"/>
  <path id="Trazado_272" data-name="Trazado 272" d="M592.47,464.631,581.6,530.869a395.571,395.571,0,0,0-5,50.973l-2.013,60.906,14.307-1.431,10.73-69.387s27.9-103.008,37.912-82.263,15.022,86.555,15.022,86.555l4.292,64.38h15.737l1.431-84.409s8.584-118.03-12.876-128.045Z" transform="translate(-264.431 -195.418)" fill="#2f2e41"/>
  <path id="Trazado_273" data-name="Trazado 273" d="M692.567,709.932S676.83,699.2,675.4,707.786l-5.723,20.745s-8.584,16.453,10.015,16.453,12.876-12.161,12.876-12.161Z" transform="translate(-283.696 -252.587)" fill="#2f2e41"/>
  <path id="Trazado_274" data-name="Trazado 274" d="M571.663,709.932s15.737-10.73,17.168-2.146l5.723,20.745s8.584,16.452-10.015,16.452-12.876-12.161-12.876-12.161Z" transform="translate(-263.654 -252.587)" fill="#2f2e41"/>
  <circle id="Elipse_38" data-name="Elipse 38" cx="20.745" cy="20.745" r="20.745" transform="translate(346.995 95.745)" fill="#ffb8b8"/>
  <path id="Trazado_275" data-name="Trazado 275" d="M628.268,292.856s2.146,20.029-8.584,24.321l17.883,21.46,23.606-16.453S644,318.608,646.866,308.593s2.861-11.445,2.861-11.445Z" transform="translate(-273.761 -167.425)" fill="#ffb8b8"/>
  <path id="Trazado_276" data-name="Trazado 276" d="M617.642,320.366s15.022,11.445,17.884,10.73,8.584-8.584,8.584-8.584,21.1.358,29.686,6.08-8.226,41.132-8.226,41.132,4.65,16.095-1.073,20.387,1.431,15.022,1.431,15.022-14.307,26.467-52.219,36.482c0,0-23.606,9.3-22.891,4.292s7.869-62.234,7.869-62.234V324.3Z" transform="translate(-267.786 -173.117)" fill="#00c8be"/>
  <path id="Trazado_277" data-name="Trazado 277" d="M618.615,249s-10.834,3.611-11.384,17.872a25.293,25.293,0,0,0,.752,6.772c.61,2.585,1,8.148-3.725,15.417a152.633,152.633,0,0,0-8.662,14.9l-.034.068,11.9,1.487,2.53-19.722a98.209,98.209,0,0,1,7.8-27.686l.082-.184s5.205,9.667,15.616,9.667l-3.718-3.718s16.36,6.693,22.309,6.693c0,0,4.462,2.974,0,7.436s-13.385,14.872-8.18,23.052.744,10.411.744,10.411l8.18-4.462,3.718-2.231v2.974l19.334-2.231s5.205-.744-5.949-13.385c0,0-2.945-4.909-1.657-9.143A21.358,21.358,0,0,0,669.08,273C666.581,259.06,656.776,231.345,618.615,249Z" transform="translate(-268.771 -157.172)" fill="#2f2e41"/>
  <path id="Trazado_278" data-name="Trazado 278" d="M365.556,341.7H560.245V449.61h-24.73v29.675L508.874,449.61H365.556Z" transform="translate(-97.076 -70.699)" fill="#2e9b9b"/>
  <rect id="Rectángulo_65" data-name="Rectángulo 65" width="130.841" height="5.845" transform="translate(431.245 308.545) rotate(180)" fill="#fff"/>
  <rect id="Rectángulo_66" data-name="Rectángulo 66" width="130.841" height="5.845" transform="translate(431.245 327.879) rotate(180)" fill="#fff"/>
  <rect id="Rectángulo_67" data-name="Rectángulo 67" width="130.841" height="5.845" transform="translate(431.245 347.212) rotate(180)" fill="#fff"/>
  <path id="Trazado_279" data-name="Trazado 279" d="M581.8,397.3l2.146,15.737,15.737,43.635s3.577,33.621,12.161,29.329-1.431-34.336-1.431-34.336l-12.876-40.774.715-14.307Z" transform="translate(-265.923 -188.886)" fill="#ffb8b8"/>
  <path id="Trazado_280" data-name="Trazado 280" d="M604.475,326.581l-6.452-2.1-2.847,1.389s-10.015.715-11.445,7.869-6.438,51.5-6.438,51.5l26.467,1.431Z" transform="translate(-264.99 -173.968)" fill="#00c8be"/>
  <path id="Trazado_281" data-name="Trazado 281" d="M693.466,397.3l-2.146,15.737-15.737,43.635S672.006,490.288,663.422,486s1.431-34.336,1.431-34.336l12.876-40.774-.715-14.307Z" transform="translate(-282.092 -188.886)" fill="#ffb8b8"/>
  <path id="Trazado_282" data-name="Trazado 282" d="M672.447,326.737l3.441-1.122a7.829,7.829,0,0,1,5.859.407h0s10.015.715,11.445,7.869,6.438,51.5,6.438,51.5l-26.467,1.431Z" transform="translate(-284.678 -174.123)" fill="#00c8be"/>
  <circle id="Elipse_39" data-name="Elipse 39" cx="7.138" cy="7.138" r="7.138" transform="translate(0 204.955)" fill="#e6e6e6"/>
</svg>
