<svg xmlns="http://www.w3.org/2000/svg" width="418" height="418" viewBox="0 0 418 418">
  <g id="scooter-icon" transform="translate(-1512 -4541)">
    <path id="Trazado_410" data-name="Trazado 410" d="M209,0C324.428,0,418,93.572,418,209S324.428,418,209,418,0,324.428,0,209,93.572,0,209,0Z" transform="translate(1512 4541)" fill="#fff"/>
    <g id="kick-scooter-svgrepo-com" transform="translate(1579 4601.424)">
      <path id="Trazado_406" data-name="Trazado 406" d="M37.573,255.793a7.95,7.95,0,1,0,7.952,7.95A7.959,7.959,0,0,0,37.573,255.793Z" transform="translate(-2.664 -22.053)" fill="#3aa"/>
      <path id="Trazado_407" data-name="Trazado 407" d="M264.646,255.793a7.951,7.951,0,1,0,7.95,7.95A7.96,7.96,0,0,0,264.646,255.793Z" transform="translate(-23.085 -22.053)" fill="#3aa"/>
      <path id="Trazado_408" data-name="Trazado 408" d="M246.495,200.251l-51.047-185a6.372,6.372,0,0,0-6.141-4.676H174.618a6.37,6.37,0,1,0,0,12.741h9.839l16.033,58.105a6.27,6.27,0,0,0-1.119.2,6.371,6.371,0,0,0-4.447,7.836l31.3,113.422A41.865,41.865,0,0,0,200.3,235.32H76.165s-20.4-35.372-41.256-35.372H6.37a6.37,6.37,0,0,0,0,12.741H19.316A32.93,32.93,0,1,0,67.35,247.343a6.337,6.337,0,0,0,2.931.718H206.188a6.343,6.343,0,0,0,2.931-.718,32.928,32.928,0,0,0,64.881,0,6.366,6.366,0,0,0,9.3-5.652A41.8,41.8,0,0,0,246.495,200.251ZM34.909,261.885A20.194,20.194,0,1,1,55.1,241.692,20.217,20.217,0,0,1,34.909,261.885Zm206.652,0a20.194,20.194,0,1,1,20.193-20.2A20.219,20.219,0,0,1,241.561,261.887Z" fill="#3aa"/>
    </g>
  </g>
</svg>
