<svg id="software-development" xmlns="http://www.w3.org/2000/svg" width="146.781" height="144.375" viewBox="0 0 146.781 144.375">
  <path id="Trazado_287" data-name="Trazado 287" d="M141.563,88.625H119.906V79a7.219,7.219,0,0,0-7.219-7.219H76.594V59.75h24.063a7.219,7.219,0,0,0,7.219-7.219V9.219A7.219,7.219,0,0,0,100.656,2H47.719A7.219,7.219,0,0,0,40.5,9.219V52.531a7.219,7.219,0,0,0,7.219,7.219H71.781V71.781H40.5A7.219,7.219,0,0,0,33.281,79v9.625H9.219A7.219,7.219,0,0,0,2,95.844v43.312a7.219,7.219,0,0,0,7.219,7.219H62.156a7.219,7.219,0,0,0,7.219-7.219V95.844a7.219,7.219,0,0,0-7.219-7.219H38.094V79A2.406,2.406,0,0,1,40.5,76.594h72.188A2.406,2.406,0,0,1,115.094,79v9.625H88.625a7.219,7.219,0,0,0-7.219,7.219v43.312a7.219,7.219,0,0,0,7.219,7.219h52.937a7.219,7.219,0,0,0,7.219-7.219V95.844A7.219,7.219,0,0,0,141.563,88.625ZM47.719,6.813h52.938a2.406,2.406,0,0,1,2.406,2.406v2.406H45.312V9.219A2.406,2.406,0,0,1,47.719,6.813ZM45.312,52.531V16.438h57.75V52.531a2.406,2.406,0,0,1-2.406,2.406H47.719A2.406,2.406,0,0,1,45.312,52.531Zm16.844,89.031H9.219a2.406,2.406,0,0,1-2.406-2.406V103.063h57.75v36.094A2.406,2.406,0,0,1,62.156,141.563Zm2.406-45.719V98.25H6.813V95.844a2.406,2.406,0,0,1,2.406-2.406H62.156A2.406,2.406,0,0,1,64.563,95.844Zm24.063-2.406h52.937a2.406,2.406,0,0,1,2.406,2.406V98.25H86.219V95.844A2.406,2.406,0,0,1,88.625,93.438Zm52.937,48.125H88.625a2.406,2.406,0,0,1-2.406-2.406V103.063h57.75v36.094A2.406,2.406,0,0,1,141.563,141.563Z" transform="translate(-2 -2)" fill="#dbfffd"/>
  <path id="Trazado_288" data-name="Trazado 288" d="M52.326,48.7a2.406,2.406,0,0,0-3.4,0L41.7,55.923a2.406,2.406,0,0,0,0,3.4l7.219,7.219a2.406,2.406,0,1,0,3.4-3.4l-5.518-5.517,5.518-5.518A2.406,2.406,0,0,0,52.326,48.7Z" transform="translate(52.844 62.688)" fill="#dbfffd"/>
  <path id="Trazado_289" data-name="Trazado 289" d="M56.107,48.705a2.406,2.406,0,1,0-3.4,3.4l5.518,5.517-5.518,5.518a2.406,2.406,0,1,0,3.4,3.4l7.218-7.219a2.406,2.406,0,0,0,0-3.4Z" transform="translate(68.313 62.688)" fill="#dbfffd"/>
  <path id="Trazado_290" data-name="Trazado 290" d="M54.8,47.072a2.406,2.406,0,0,0-2.919,1.749l-4.812,19.25a2.406,2.406,0,0,0,1.749,2.919,2.349,2.349,0,0,0,.585.072,2.406,2.406,0,0,0,2.332-1.822l4.812-19.25A2.406,2.406,0,0,0,54.8,47.072Z" transform="translate(61.281 61.281)" fill="#dbfffd"/>
  <path id="Trazado_291" data-name="Trazado 291" d="M35.326,12.7a2.406,2.406,0,0,0-3.4,0L24.7,19.923a2.406,2.406,0,0,0,0,3.4l7.219,7.219a2.406,2.406,0,1,0,3.4-3.4l-5.518-5.517,5.518-5.518a2.406,2.406,0,0,0,0-3.4Z" transform="translate(28.938 12.063)" fill="#dbfffd"/>
  <path id="Trazado_292" data-name="Trazado 292" d="M39.107,12.705a2.406,2.406,0,1,0-3.4,3.4l5.518,5.517-5.518,5.518a2.406,2.406,0,1,0,3.4,3.4l7.218-7.219a2.406,2.406,0,0,0,0-3.4Z" transform="translate(44.406 12.063)" fill="#dbfffd"/>
  <path id="Trazado_293" data-name="Trazado 293" d="M37.8,11.072a2.406,2.406,0,0,0-2.919,1.749l-4.812,19.25a2.406,2.406,0,0,0,1.749,2.919,2.348,2.348,0,0,0,.585.072,2.406,2.406,0,0,0,2.332-1.822l4.813-19.25A2.406,2.406,0,0,0,37.8,11.072Z" transform="translate(37.375 10.656)" fill="#dbfffd"/>
  <path id="Trazado_294" data-name="Trazado 294" d="M19.326,48.7a2.406,2.406,0,0,0-3.4,0L8.7,55.923a2.406,2.406,0,0,0,0,3.4l7.219,7.219a2.406,2.406,0,1,0,3.4-3.4l-5.518-5.517,5.518-5.518A2.406,2.406,0,0,0,19.326,48.7Z" transform="translate(6.438 62.688)" fill="#dbfffd"/>
  <path id="Trazado_295" data-name="Trazado 295" d="M23.107,48.705a2.406,2.406,0,1,0-3.4,3.4l5.518,5.517-5.518,5.518a2.406,2.406,0,1,0,3.4,3.4l7.218-7.219a2.406,2.406,0,0,0,0-3.4Z" transform="translate(21.906 62.688)" fill="#dbfffd"/>
  <path id="Trazado_296" data-name="Trazado 296" d="M21.8,47.072a2.406,2.406,0,0,0-2.919,1.749l-4.813,19.25a2.406,2.406,0,0,0,1.749,2.919,2.349,2.349,0,0,0,.585.072,2.406,2.406,0,0,0,2.332-1.822l4.813-19.25A2.406,2.406,0,0,0,21.8,47.072Z" transform="translate(14.875 61.281)" fill="#dbfffd"/>
</svg>
