<svg xmlns="http://www.w3.org/2000/svg" width="302.818" height="189.637" viewBox="0 0 302.818 189.637">
  <g id="tickets-svgrepo-com" transform="translate(0.5 -83.5)">
    <path id="Trazado_394" data-name="Trazado 394" d="M120.845,244.338h-12.66l-20.626-30c-.035-.051-.075-.1-.112-.146-.064-.086-.127-.173-.2-.255s-.132-.147-.2-.219c-.051-.055-.1-.111-.153-.163-.079-.078-.162-.151-.246-.224-.047-.041-.094-.084-.142-.124-.086-.069-.175-.133-.264-.2-.053-.038-.106-.077-.16-.114-.085-.056-.172-.106-.259-.157-.066-.038-.131-.078-.2-.114s-.158-.077-.238-.115-.162-.076-.246-.111-.144-.053-.216-.079c-.094-.034-.187-.067-.282-.1-.071-.021-.142-.037-.214-.055-.1-.024-.195-.05-.294-.069-.083-.016-.167-.026-.251-.038s-.175-.028-.265-.036c-.116-.011-.232-.014-.349-.018-.053,0-.1-.009-.158-.009H71.665c-.07,0-.139.008-.209.011-.1,0-.2.005-.3.015s-.222.029-.332.046c-.059.009-.117.013-.176.024l-.026.007c-.128.025-.252.058-.377.092-.05.013-.1.024-.15.038-.114.034-.224.077-.335.119-.058.022-.118.04-.175.064-.082.034-.161.075-.241.114s-.164.074-.243.117c-.043.024-.084.051-.126.075-.11.063-.221.127-.325.2-.007,0-.012.009-.019.014a5.364,5.364,0,0,0-.779.645l-.013.014c-.116.117-.227.238-.331.365-.065.078-.123.162-.183.244-.041.055-.085.108-.124.166-.084.125-.162.254-.236.385-.01.018-.023.036-.033.054-.067.122-.125.248-.183.375-.014.032-.031.061-.045.093-.042.1-.076.2-.113.3-.023.065-.05.128-.071.193s-.038.146-.059.22c-.027.1-.056.2-.077.3-.011.05-.016.1-.025.152-.023.127-.045.254-.059.383,0,.041,0,.084-.008.125-.011.138-.021.277-.021.417,0,.008,0,.015,0,.024,0,.055.007.108.008.164,0,.116.007.231.018.347s.028.212.044.317c.009.062.014.124.026.186l.012.062c0,.005,0,.011,0,.016l4.952,25.855H58.4l-9.2-9.2c-.036-.036-.075-.067-.112-.1-.092-.087-.183-.174-.281-.254-.07-.058-.144-.108-.217-.162s-.136-.1-.207-.152-.162-.1-.244-.148-.138-.086-.21-.124-.162-.079-.243-.117-.156-.076-.236-.11-.154-.057-.23-.084-.177-.067-.269-.094c-.073-.022-.149-.038-.223-.057-.1-.024-.191-.051-.288-.071-.082-.016-.164-.026-.247-.038s-.182-.03-.275-.04c-.136-.013-.273-.018-.409-.021-.042,0-.08-.005-.121-.005s-.079.005-.119.006c-.137,0-.273.007-.409.021-.093.009-.183.026-.275.04s-.165.022-.247.038c-.1.02-.193.046-.288.071-.074.019-.15.035-.223.057-.092.028-.18.062-.269.094s-.154.053-.23.084-.158.073-.236.11-.163.074-.243.117-.14.082-.21.124-.164.1-.244.148-.139.1-.208.152-.146.1-.217.162c-.1.08-.189.167-.281.254-.036.035-.076.065-.112.1s-.07.079-.107.119c-.084.09-.169.178-.247.273-.061.075-.115.153-.172.23s-.1.127-.142.193c-.057.086-.107.174-.159.261-.038.063-.077.125-.113.191-.046.087-.086.177-.128.265-.033.071-.069.141-.1.214s-.064.172-.095.259-.059.158-.084.239-.046.175-.067.263-.044.164-.061.249c-.02.1-.032.2-.047.308-.01.071-.024.141-.031.214-.018.179-.027.358-.027.537v21.554c0,.11.01.218.016.325a5.386,5.386,0,0,0,9.183,4.159l9.874-9.874H71.337l-4.951,25.856c0,.005,0,.011,0,.016l-.012.062c-.012.062-.016.124-.026.186-.016.105-.034.21-.044.317s-.014.232-.018.347c0,.055-.007.108-.007.164,0,.008,0,.016,0,.024,0,.14.01.279.021.417,0,.042,0,.084.008.125.013.129.036.256.059.383.009.051.014.1.025.152.021.1.05.2.077.3.02.073.036.148.059.22s.048.129.071.193c.036.1.07.2.113.3.013.032.031.062.045.093.057.127.116.253.183.375.01.019.022.036.033.054.074.131.151.261.236.385.038.057.083.11.124.166.061.082.119.166.183.244.1.127.216.248.331.365l.013.014a5.366,5.366,0,0,0,.779.645l.019.014c.105.071.215.134.325.2.042.024.083.052.126.075.079.042.162.078.243.117s.159.079.241.114c.057.024.117.042.175.064.11.042.221.084.335.119.049.015.1.025.15.038.125.034.249.067.377.092l.026.007c.082.015.162.023.243.035s.161.027.243.035a5.274,5.274,0,0,0,.534.028H83.114l.048,0a5.429,5.429,0,0,0,.557-.033c.054-.006.106-.017.16-.024.149-.021.3-.046.441-.079.057-.013.114-.029.171-.044.14-.037.278-.078.413-.126.058-.02.115-.041.172-.063.135-.053.267-.112.4-.174.053-.026.106-.048.158-.076a5.44,5.44,0,0,0,.5-.3c.035-.024.067-.051.1-.075.127-.09.25-.184.369-.284.058-.049.113-.1.17-.154.1-.088.187-.179.276-.274.05-.054.1-.107.148-.163q.165-.191.311-.4c.017-.024.036-.043.053-.067l20.625-30h12.66a5.39,5.39,0,0,0,0-10.779ZM78.184,222.779h2.1L95.1,244.338H82.312ZM95.1,255.117,80.282,276.675h-2.1l4.128-21.558Z" transform="translate(-13.053 -41.766)" fill="#3aa"/>
    <path id="Trazado_395" data-name="Trazado 395" d="M248.507,300H205.39a5.39,5.39,0,0,0,0,10.779h43.117a5.39,5.39,0,1,0,0-10.779Z" transform="translate(-65.26 -70.48)" stroke="#707070" stroke-width="1"/>
    <path id="Trazado_396" data-name="Trazado 396" d="M248.507,260H205.39a5.39,5.39,0,0,0,0,10.779h43.117a5.39,5.39,0,1,0,0-10.779Z" transform="translate(-65.26 -57.429)" stroke="#707070" stroke-width="1"/>
    <path id="Trazado_397" data-name="Trazado 397" d="M205.39,230.779h43.117a5.39,5.39,0,1,0,0-10.779H205.39a5.39,5.39,0,0,0,0,10.779Z" transform="translate(-65.26 -44.377)" stroke="#707070" stroke-width="1"/>
    <path id="Trazado_398" data-name="Trazado 398" d="M357.39,252a5.39,5.39,0,0,0-5.39,5.39v37.727a5.39,5.39,0,1,0,10.779,0V257.39A5.39,5.39,0,0,0,357.39,252Z" transform="translate(-114.857 -54.818)" stroke="#707070" stroke-width="1"/>
    <path id="Trazado_399" data-name="Trazado 399" d="M357.39,212a5.39,5.39,0,0,0-5.39,5.39v5.39a5.39,5.39,0,0,0,10.779,0v-5.39A5.39,5.39,0,0,0,357.39,212Z" transform="translate(-114.857 -41.766)" stroke="#707070" stroke-width="1"/>
    <path id="Trazado_400" data-name="Trazado 400" d="M274.87,84H48.507a26.979,26.979,0,0,0-26.948,26.948v32.88A26.994,26.994,0,0,0,0,170.234v75.455a26.979,26.979,0,0,0,26.948,26.948H253.312a26.979,26.979,0,0,0,26.948-26.948v-32.88A26.994,26.994,0,0,0,301.818,186.4V110.948A26.979,26.979,0,0,0,274.87,84ZM10.779,245.688V170.234a16.188,16.188,0,0,1,16.169-16.169H210.195V261.857H26.948A16.188,16.188,0,0,1,10.779,245.688ZM86.69,121.727h2.1l14.821,21.558H90.818ZM269.481,245.688a16.188,16.188,0,0,1-16.169,16.169H220.974V154.065h32.338a16.188,16.188,0,0,1,16.169,16.169ZM291.039,186.4a16.2,16.2,0,0,1-10.779,15.242V170.234a26.922,26.922,0,0,0-10.779-21.544v-5.4a5.39,5.39,0,1,0-10.779,0v.542a26.968,26.968,0,0,0-5.39-.542H116.691l-20.626-30c-.035-.051-.075-.1-.11-.145-.064-.087-.127-.174-.2-.257s-.129-.144-.2-.215-.1-.114-.157-.167c-.077-.076-.158-.147-.24-.218-.05-.043-.1-.088-.149-.13-.084-.067-.17-.13-.257-.192-.056-.04-.111-.082-.168-.12-.082-.054-.166-.1-.25-.152-.069-.04-.137-.082-.208-.119s-.152-.074-.228-.11-.168-.079-.255-.115c-.068-.028-.137-.051-.206-.075-.1-.035-.193-.07-.293-.1-.067-.02-.133-.034-.2-.052-.1-.026-.2-.052-.307-.072-.078-.015-.158-.024-.236-.036s-.185-.029-.278-.038c-.11-.011-.221-.013-.331-.017-.059,0-.115-.008-.174-.008H80.171c-.071,0-.139.008-.209.011-.1,0-.2.005-.3.015s-.222.029-.333.046c-.059.009-.117.013-.175.024l-.026.007c-.128.025-.252.058-.377.092-.05.013-.1.024-.15.038-.114.034-.224.077-.335.119-.058.022-.118.04-.175.064-.082.034-.161.075-.241.114s-.164.074-.243.117c-.043.024-.084.051-.126.075-.11.063-.221.127-.325.2-.007,0-.012.009-.019.014a5.364,5.364,0,0,0-.779.645l-.013.014c-.116.117-.227.238-.331.365-.065.078-.123.162-.183.244-.041.055-.085.108-.124.166-.084.125-.162.254-.236.385-.01.018-.023.036-.033.054-.067.122-.125.248-.183.375-.014.032-.031.061-.045.093-.042.1-.076.2-.113.3-.023.065-.05.128-.071.193s-.038.146-.059.22c-.027.1-.056.2-.077.3-.011.05-.016.1-.025.152-.023.127-.045.254-.059.383,0,.041,0,.084-.008.125-.011.138-.021.277-.021.417,0,.008,0,.015,0,.024,0,.055.007.108.008.164,0,.116.007.231.018.347s.028.212.044.317c.009.062.014.124.026.186l.012.062c0,.005,0,.011,0,.016l4.952,25.855H66.908l-9.2-9.2c-.036-.036-.075-.067-.112-.1-.092-.087-.183-.174-.281-.254-.07-.058-.144-.108-.217-.162s-.136-.1-.207-.152-.162-.1-.244-.148-.138-.086-.21-.124-.162-.079-.243-.117-.156-.076-.236-.11-.154-.057-.23-.084-.177-.067-.269-.094c-.073-.022-.149-.038-.223-.057-.1-.024-.191-.051-.288-.071-.082-.016-.164-.026-.247-.038s-.182-.03-.275-.04c-.136-.013-.273-.018-.409-.021-.042,0-.08-.005-.121-.005s-.079.005-.119.006c-.137,0-.273.007-.409.021-.093.009-.183.026-.275.04s-.165.022-.247.038c-.1.02-.193.046-.288.071-.074.019-.15.035-.223.057-.092.028-.18.062-.269.094s-.154.053-.23.084-.158.073-.236.11-.163.074-.243.117-.14.082-.21.124-.164.1-.244.148-.139.1-.208.152-.146.1-.217.162c-.1.08-.189.167-.281.254-.036.035-.076.065-.112.1s-.07.079-.107.119c-.084.09-.169.179-.247.274-.061.075-.115.153-.172.23s-.1.127-.142.193c-.057.086-.107.174-.159.261-.038.063-.077.125-.113.191-.046.087-.086.176-.128.265-.033.071-.069.141-.1.214s-.064.172-.095.259-.059.158-.084.239-.046.175-.067.263-.044.164-.061.249c-.02.1-.032.2-.047.308-.01.071-.024.141-.031.214-.018.179-.027.358-.027.537v5.386H32.338V110.948A16.188,16.188,0,0,1,48.507,94.779H231.753v32.338a5.39,5.39,0,1,0,10.779,0V94.779H274.87a16.188,16.188,0,0,1,16.169,16.169Z" stroke="#707070" stroke-width="1"/>
    <path id="Trazado_401" data-name="Trazado 401" d="M280.507,132H237.39a5.39,5.39,0,1,0,0,10.779h43.117a5.39,5.39,0,1,0,0-10.779Z" transform="translate(-75.701 -15.662)" stroke="#707070" stroke-width="1"/>
    <path id="Trazado_402" data-name="Trazado 402" d="M389.39,124a5.39,5.39,0,0,0-5.39,5.39v5.39a5.39,5.39,0,0,0,10.779,0v-5.39A5.39,5.39,0,0,0,389.39,124Z" transform="translate(-125.299 -13.052)" stroke="#707070" stroke-width="1"/>
    <path id="Trazado_404" data-name="Trazado 404" d="M80.106,143.372H90.819l-4.207-22.167s.955-1.351,5.264,4.191,11.973,17.976,11.973,17.976h12.178S97.751,115.424,95.75,112.7s-10.839-3.21-15.644-2a6.476,6.476,0,0,0-4.946,5.892Z" fill="#2e9b9b" stroke="#2e9b9b" stroke-width="1"/>
    <path id="Trazado_405" data-name="Trazado 405" d="M48.283,143.372v-4.947c0-3.041.095-4.207,2.835-5.986s4.114-1.592,10.194,4.931,5.245,6,5.245,6Z" fill="#2e9b9b" stroke="#2e9b9b" stroke-width="1"/>
  </g>
</svg>
