<svg xmlns="http://www.w3.org/2000/svg" width="747.758" height="668.83" viewBox="0 0 747.758 668.83">
  <g id="undraw_noted_pc9f_1_" data-name="undraw_noted_pc9f (1)" transform="translate(0 -0.01)">
    <path id="Trazado_667" data-name="Trazado 667" d="M927.171,245.864c26.72,38.985,20.807,89.488,20.807,89.488s-49.235-12.7-75.955-51.69-20.807-89.488-20.807-89.488S900.451,206.879,927.171,245.864Z" transform="translate(-227.121 -115.58)" fill="#2f2e41"/>
    <path id="Trazado_668" data-name="Trazado 668" d="M907.945,253.308c3.127,47.16,39.017,83.179,39.017,83.179s30.821-40.442,27.694-87.6-39.017-83.179-39.017-83.179S904.818,206.149,907.945,253.308Z" transform="translate(-227.121 -115.58)" fill="#efca16"/>
    <path id="Trazado_669" data-name="Trazado 669" d="M601.167,116.562,963.942,298.951a17.155,17.155,0,0,1,9.41,16.482l-21.077,312.2a8.5,8.5,0,0,1-12.315,7.013L568.913,445.287l19.049-321.114a9.123,9.123,0,0,1,13.205-7.611Z" transform="translate(-227.121 -115.58)" fill="#d0cde1"/>
    <path id="Trazado_670" data-name="Trazado 670" d="M605.342,122.924l353.864,177.91a16.733,16.733,0,0,1,9.179,16.077L947.826,621.446a8.291,8.291,0,0,1-12.012,6.841L573.88,443.575l18.581-313.227a8.9,8.9,0,0,1,12.881-7.424Z" transform="translate(-227.121 -115.58)" fill="#3f3d56"/>
    <path id="Trazado_671" data-name="Trazado 671" d="M620.851,146.554l320.767,161.27a15.168,15.168,0,0,1,8.32,14.574L931.3,598.45a7.515,7.515,0,0,1-10.889,6.2L592.331,437.215l16.843-283.931a8.067,8.067,0,0,1,11.677-6.73Z" transform="translate(-227.121 -115.58)" fill="#fff"/>
    <path id="Trazado_672" data-name="Trazado 672" d="M289.867,598.911,653.1,781.842a24.185,24.185,0,0,0,21.786-.028L943.6,645.406c3.151-3.151,2.711-7.82,1.7-11.326a25.235,25.235,0,0,0-1.987-4.9L906.7,609.924,598.831,456.315l-18.394-9.765a34.059,34.059,0,0,0-31.636-.128L289.753,580.985a10.058,10.058,0,0,0,.114,17.926Z" transform="translate(-227.121 -115.58)" fill="#d0cde1"/>
    <path id="Trazado_673" data-name="Trazado 673" d="M289.867,598.911,653.1,781.842a24.185,24.185,0,0,0,21.786-.028L943.6,645.406c3.151-3.151,2.711-7.82,1.7-11.326L677.4,773.334a23.37,23.37,0,0,1-21.2.182L284.445,588.308A10.017,10.017,0,0,0,289.867,598.911Z" transform="translate(-227.121 -115.58)" opacity="0.1"/>
    <path id="Trazado_674" data-name="Trazado 674" d="M634.638,653.721,517,594.276a16.53,16.53,0,0,0-15.244.174l-68.241,36.457a4.882,4.882,0,0,0,.1,8.664l119.941,60.483a13.586,13.586,0,0,0,12.786-.294l68.513-38.6a4.2,4.2,0,0,0-.222-7.44Z" transform="translate(-227.121 -115.58)" opacity="0.1"/>
    <path id="Trazado_675" data-name="Trazado 675" d="M911.687,643.779,785.1,711.028a10.3,10.3,0,0,1-9.477.1l-357.66-180.87a6.082,6.082,0,0,1,.047-10.879l123.615-61.183a13.4,13.4,0,0,1,11.977.043L911.631,638.626a2.9,2.9,0,0,1,.056,5.153Z" transform="translate(-227.121 -115.58)" opacity="0.1"/>
    <rect id="Rectángulo_130" data-name="Rectángulo 130" width="1.419" height="130.118" transform="matrix(0.447, -0.894, 0.894, 0.447, 481.982, 194.088)" fill="#efca16"/>
    <rect id="Rectángulo_131" data-name="Rectángulo 131" width="1.418" height="130.759" transform="translate(481.961 211.144) rotate(-62.909)" fill="#efca16"/>
    <rect id="Rectángulo_132" data-name="Rectángulo 132" width="1.42" height="74.9" transform="matrix(0.455, -0.89, 0.89, 0.455, 503.274, 243.753)" fill="#efca16"/>
    <path id="Trazado_676" data-name="Trazado 676" d="M366.648,429.127s-28.38-12.366-41.711.7S360.628,438.587,366.648,429.127Z" transform="translate(-227.121 -115.58)" fill="#3f3d56"/>
    <path id="Trazado_677" data-name="Trazado 677" d="M317.643,370.478c9.537-16.116,28.406-16.867,28.406-16.867s18.387-2.351,30.182,22.193c10.994,22.877,26.167,44.965,2.443,50.32l-4.285-13.338-2.654,14.331a92.818,92.818,0,0,1-10.151.174c-25.407-.82-49.6.24-48.824-8.877C313.8,406.294,308.466,385.984,317.643,370.478Z" transform="translate(-227.121 -115.58)" fill="#2f2e41"/>
    <path id="Trazado_678" data-name="Trazado 678" d="M304.3,662.62s12.04,22.36,19.78,22.36,6.88,14.62,5.16,18.06-6.02,11.18.86,22.36c2.4,3.905,1.973,8.335.4,12.447-4.419,11.52-21.607,8.03-21.059-4.3q.009-.2.022-.41c.86-13.76-6.02-35.261-12.9-40.421s-12.9-18.92-12.9-18.92Z" transform="translate(-227.121 -115.58)" fill="#ffb8b8"/>
    <path id="Trazado_679" data-name="Trazado 679" d="M386.858,657.46s-12.04,22.36-19.78,22.36-6.88,14.62-5.16,18.06,6.02,11.18-.86,22.36c-2.4,3.905-1.973,8.335-.4,12.447,4.419,11.52,21.607,8.03,21.059-4.3q-.009-.2-.022-.41c-.86-13.76,6.02-35.261,12.9-40.421s12.9-18.92,12.9-18.92Z" transform="translate(-227.121 -115.58)" fill="#ffb8b8"/>
    <path id="Trazado_680" data-name="Trazado 680" d="M377.4,547.378l5.16,11.18s75.681,24.94,68.8,54.181-40.421,74.821-45.581,73.1-32.681-6.88-33.54-21.5,19.78-40.421,19.78-40.421l-28.38-25.8-41.3-.86L287.1,623.919s36.981,32.68,20.64,45.581-40.421,21.5-43.861,16.34-42.141-81.7-36.121-88.581,67.081-32.68,67.081-32.68l16.34-23.22,63.641-3.44Z" transform="translate(-227.121 -115.58)" fill="#2f2e41"/>
    <path id="Trazado_681" data-name="Trazado 681" d="M361.918,405.476s-4.3,28.38,4.3,31.82-17.2,18.06-17.2,18.06H334.4l-9.46-19.78s8.6-15.48,3.44-30.1S361.918,405.476,361.918,405.476Z" transform="translate(-227.121 -115.58)" fill="#ffb8b8"/>
    <path id="Trazado_682" data-name="Trazado 682" d="M361.918,405.476s-4.3,28.38,4.3,31.82-17.2,18.06-17.2,18.06H334.4l-9.46-19.78s8.6-15.48,3.44-30.1S361.918,405.476,361.918,405.476Z" transform="translate(-227.121 -115.58)" opacity="0.1"/>
    <path id="Trazado_683" data-name="Trazado 683" d="M367.938,429.557s-9.46,10.32-11.18,12.04-9.46,11.18-25.8-2.58-18.06,2.58-18.06,2.58V544.8s13.76-6.02,24.94,0,34.4-1.72,34.4-1.72l4.3-106.642Z" transform="translate(-227.121 -115.58)" fill="#d0cde1"/>
    <path id="Trazado_684" data-name="Trazado 684" d="M361.621,429.557s8.037-3.44,14.917,0,30.961,20.64,29.241,28.38-24.08,61.921-8.6,87.721,18.06,32.68,18.06,32.68L377.4,558.559s-29.241-18.06-26.66-29.24S361.621,429.557,361.621,429.557Z" transform="translate(-227.121 -115.58)" fill="#3f3d56"/>
    <path id="Trazado_685" data-name="Trazado 685" d="M327.507,429.557s-18.05,1.72-18.91,3.44-27.09,9.03-25.37,16.77,25.37,76.971,15.05,89.871-27.52,30.961-21.5,32.68,16.34-2.58,26.66,0,34.4-18.92,31.82-42.141S335.237,435.577,327.507,429.557Z" transform="translate(-227.121 -115.58)" fill="#3f3d56"/>
    <path id="Trazado_686" data-name="Trazado 686" d="M370.518,593.819v8.6s4.3,19.78-9.46,18.92-5.16-24.08-5.16-24.08l.86-7.74Z" transform="translate(-227.121 -115.58)" fill="#ffb8b8"/>
    <path id="Trazado_687" data-name="Trazado 687" d="M331.818,594.679s9.46,19.78,0,21.5-16.34-11.18-16.34-14.62S331.818,594.679,331.818,594.679Z" transform="translate(-227.121 -115.58)" fill="#ffb8b8"/>
    <ellipse id="Elipse_85" data-name="Elipse 85" cx="1.72" cy="3.44" rx="1.72" ry="3.44" transform="translate(90.506 274.846)" fill="#ffb8b8"/>
    <ellipse id="Elipse_86" data-name="Elipse 86" cx="1.72" cy="3.44" rx="1.72" ry="3.44" transform="translate(141.247 274.846)" fill="#ffb8b8"/>
    <path id="Trazado_688" data-name="Trazado 688" d="M304.3,440.737s-21.5,0-20.64,8.6S312.9,605.86,312.9,605.86s12.04-11.18,22.36-8.6Z" transform="translate(-227.121 -115.58)" fill="#3f3d56"/>
    <path id="Trazado_689" data-name="Trazado 689" d="M387.718,443.317s21.5,4.3,21.5,17.2-30.961,136.742-35.261,136.742-20.64-2.58-20.64-6.88S387.718,443.317,387.718,443.317Z" transform="translate(-227.121 -115.58)" fill="#3f3d56"/>
    <path id="Trazado_690" data-name="Trazado 690" d="M382.988,468.687l-19.35,75.674S372.668,478.147,382.988,468.687Z" transform="translate(-227.121 -115.58)" opacity="0.2"/>
    <path id="Trazado_691" data-name="Trazado 691" d="M307.723,458.054l19.57,98.939S321.038,463.761,307.723,458.054Z" transform="translate(-227.121 -115.58)" opacity="0.2"/>
    <circle id="Elipse_87" data-name="Elipse 87" cx="24.94" cy="24.94" r="24.94" transform="translate(92.657 253.776)" fill="#ffb8b8"/>
    <path id="Trazado_692" data-name="Trazado 692" d="M94.738,253.344l18.642-9.764,25.743,3.994,5.326,23.524-13.258-.509-3.7-8.643v8.5l-6.118-.235-3.551-13.76L115.6,271.1l-21.749-.443Z" fill="#2f2e41"/>
    <path id="Trazado_693" data-name="Trazado 693" d="M374.28,108.551,364,133l86.768,45.545L480,93" fill="#f2f2f2"/>
    <path id="Trazado_694" data-name="Trazado 694" d="M448.768,163.545,487.1,73.352,399,30l-37,88Z" fill="#efca16"/>
    <rect id="Rectángulo_133" data-name="Rectángulo 133" width="1.42" height="74.9" transform="matrix(0.455, -0.89, 0.89, 0.455, 396.274, 65.753)" fill="#fff"/>
    <rect id="Rectángulo_134" data-name="Rectángulo 134" width="1.42" height="74.9" transform="matrix(0.455, -0.89, 0.89, 0.455, 391.274, 77.753)" fill="#fff"/>
  </g>
</svg>
