<svg xmlns="http://www.w3.org/2000/svg" width="491.099" height="640.935" viewBox="0 0 491.099 640.935">
  <g id="undraw_traveling_t8y2" transform="translate(-75.901 -4)">
    <path id="Trazado_512" data-name="Trazado 512" d="M38.142,0H246.858A38.142,38.142,0,0,1,285,38.142V453.858A38.142,38.142,0,0,1,246.858,492H38.142A38.142,38.142,0,0,1,0,453.858V38.142A38.142,38.142,0,0,1,38.142,0Z" transform="translate(282 27.5)" fill="#eef1f9"/>
    <rect id="Rect치ngulo_113" data-name="Rect치ngulo 113" width="286" height="492" rx="38.142" transform="translate(263 4.5)" fill="none" stroke="#3f3d56" stroke-miterlimit="10" stroke-width="1"/>
    <rect id="Rect치ngulo_114" data-name="Rect치ngulo 114" width="243.524" height="390.594" transform="translate(282.555 55.47)" fill="none" stroke="#3f3d56" stroke-miterlimit="10" stroke-width="1"/>
    <circle id="Elipse_53" data-name="Elipse 53" cx="8.292" cy="8.292" r="8.292" transform="translate(489.62 16.93)" fill="none" stroke="#3f3d56" stroke-miterlimit="10" stroke-width="1"/>
    <circle id="Elipse_54" data-name="Elipse 54" cx="18.242" cy="18.242" r="18.242" transform="translate(390.161 453.088)" fill="none" stroke="#3f3d56" stroke-miterlimit="10" stroke-width="1"/>
    <path id="Trazado_491" data-name="Trazado 491" d="M757.044,174.035A55.563,55.563,0,0,0,701.48,229.6c0,30.687,58.209,143.869,58.209,143.869S812.607,260.285,812.607,229.6a55.563,55.563,0,0,0-55.564-55.564Zm0,92.606a29.1,29.1,0,1,1,29.1-29.1,29.1,29.1,0,0,1-29.1,29.1Z" transform="translate(-354.963 -75.782)" fill="#ffda27"/>
    <ellipse id="Elipse_55" data-name="Elipse 55" cx="55.5" cy="18.5" rx="55.5" ry="18.5" transform="translate(347 317.5)" fill="#ffda27"/>
    <path id="Trazado_495" data-name="Trazado 495" d="M296.406,797.414s7.721,3.861,13.126,4.633,8.445-4.695,7.311-6.594,3.5-.355,6.587,6.594c0,0,13.126,15.442,20.848,16.215s7.782,11.226,3.861,11.582c-4.247.386-11.582,3.088-20.848,0s-17.759-11.582-21.62-11.582-16.987-6.177-13.126-9.266S296.406,797.414,296.406,797.414Z" transform="translate(-199.532 -186.371)" fill="#3f3d56"/>
    <path id="Trazado_496" data-name="Trazado 496" d="M388.776,816.871a42.873,42.873,0,0,0,11.781-.723c5.305-1.289,6.1-7.494,4.341-8.837s3.117-1.628,8.564,3.678c0,0,17.921,9.467,25.377,7.318s11.392,7.535,7.884,9.322a44.735,44.735,0,0,1-19.341,5.457c-9.75.571-20.806-1.881-24.391-.448s-18.066.57-15.628-3.731S388.776,816.871,388.776,816.871Z" transform="translate(-215.801 -188.383)" fill="#3f3d56"/>
    <circle id="Elipse_71" data-name="Elipse 71" cx="30.113" cy="30.113" r="30.113" transform="translate(129.736 199.956)" fill="#ffc1c7"/>
    <path id="Trazado_497" data-name="Trazado 497" d="M343.372,352.666S348,385.1,337.195,389.728s54.821,3.089,54.821,3.089-9.266-29.341-6.949-37.062S343.372,352.666,343.372,352.666Z" transform="translate(-207.073 -110.628)" fill="#ffc1c7"/>
    <path id="Trazado_498" data-name="Trazado 498" d="M325.812,574.374s-2.316,58.682-4.633,64.859-4.633,47.872-4.633,47.872l-20.075,75.669L315,768.951s25.48-44.784,28.568-50.189,27.8-91.883,27.8-91.883-2.316,53.277-2.316,71.036,4.633,82.618,4.633,82.618l14.67-1.544,19.3-81.846s27.8-110.415,9.266-122.769S325.812,574.374,325.812,574.374Z" transform="translate(-200.322 -147.797)" fill="#2f2e41"/>
    <path id="Trazado_499" data-name="Trazado 499" d="M465.212,597.058s.772,44.784-8.493,37.834,0-41.7,0-41.7Z" transform="translate(-226.992 -151.95)" fill="#ffc1c7"/>
    <path id="Trazado_500" data-name="Trazado 500" d="M310.634,578.434s.772,44.784-8.493,37.834,0-41.7,0-41.7Z" transform="translate(-200.587 -148.769)" fill="#ffc1c7"/>
    <path id="Trazado_501" data-name="Trazado 501" d="M422.867,418.634s-15.443-17.759-28.569-15.443-84.934,1.544-84.934,1.544-23.936,30.113-17.759,36.29,26.252,115.82,26.252,115.82,53.277-6.949,71.808-6.949,26.252-3.089,26.252-3.089S391.209,497.391,402.791,475s28.569-46.328,28.569-46.328Z" transform="translate(-199.317 -119.458)" fill="#efca16"/>
    <path id="Trazado_502" data-name="Trazado 502" d="M440.239,428.376l13.126,4.633s7.721,27.025,7.721,48.644.772,32.429,3.861,40.151,13.126,44.011,7.721,51.733a51.489,51.489,0,0,1-10.81,11.582L444.1,583.574s-.772-25.48-5.4-27.8-10.81-16.987-10.81-16.987-14.67-47.1-5.4-62.543S440.239,428.376,440.239,428.376Z" transform="translate(-221.322 -123.796)" fill="#efca16"/>
    <path id="Trazado_503" data-name="Trazado 503" d="M365.652,456.139s7.721-33.974-6.949-32.429-34.746,2.316-40.151,2.316-36.29-3.861-40.923,16.215-10.81,44.784,2.316,60.226c0,0,4.633,67.947,22.392,72.58s64.859,10.038,81.846-12.354,10.038-47.1,10.038-47.1H386.5Z" transform="translate(-196.151 -122.99)" fill="#3f3d56"/>
    <path id="Trazado_504" data-name="Trazado 504" d="M248.163,467.338l6.177-41.7-3.088,43.239Z" transform="translate(-53.182 -73.19)" fill="#3f3d56"/>
    <path id="Trazado_505" data-name="Trazado 505" d="M290.883,525.22s13.126,6.177,40.151,2.316v11.582l-40.151-3.089Z" transform="translate(-199.368 -140.338)" opacity="0.1"/>
    <path id="Trazado_506" data-name="Trazado 506" d="M208.587,360.56l20.075-10.81-16.987,14.671Z" transform="translate(-46.422 -60.226)" fill="#3f3d56"/>
    <path id="Trazado_507" data-name="Trazado 507" d="M406.96,404.4s15.443,5.4,15.443,0-13.9-10.038-22.392-13.126-48.644-7.721-54.821-10.038-35.518-6.177-37.834,3.089-3.089,28.569,8.493,30.885,41.7-3.861,57.138-2.316S406.96,404.4,406.96,404.4Z" transform="translate(-201.942 -115.265)" fill="#efca16"/>
    <path id="Trazado_508" data-name="Trazado 508" d="M406.96,404.4s15.443,5.4,15.443,0-13.9-10.038-22.392-13.126-48.644-7.721-54.821-10.038-35.518-6.177-37.834,3.089-3.089,28.569,8.493,30.885,41.7-3.861,57.138-2.316S406.96,404.4,406.96,404.4Z" transform="translate(-201.942 -115.265)" opacity="0.1"/>
    <path id="Trazado_509" data-name="Trazado 509" d="M130.367,367.965l5.248-11.023.93,13.34Z" transform="translate(-33.061 -61.455)" fill="#3f3d56"/>
    <ellipse id="Elipse_72" data-name="Elipse 72" cx="28.192" cy="32.753" rx="28.192" ry="32.753" transform="translate(126.438 195.645)" fill="#2f2e41"/>
    <ellipse id="Elipse_73" data-name="Elipse 73" cx="28.192" cy="17.827" rx="28.192" ry="17.827" transform="translate(131.413 193.158)" fill="#2f2e41"/>
    <ellipse id="Elipse_74" data-name="Elipse 74" cx="2.902" cy="4.975" rx="2.902" ry="4.975" transform="translate(178.677 232.958)" fill="#ffc1c7"/>
    <path id="Trazado_510" data-name="Trazado 510" d="M394.618,308.295c2.966-1.623,5.5-4.558,7.4-8.567a9.039,9.039,0,0,1,.148,2.712,10.267,10.267,0,0,0,3.531-1.064l-.265,2.89a29.811,29.811,0,0,0,5.828-4.666,22.947,22.947,0,0,1-2.041,12.32,24.635,24.635,0,0,1-5.7,6.959" transform="translate(-217.087 -101.799)" fill="#2f2e41"/>
    <path id="iconfinder_airplane1_216191" d="M102.221,12.362,86.307,24.038C69.993,21.663,4.665,10.225,3.81,11.008,2.856,11.886,2.519,12.49.6,14.247,19.45,24.72,38.651,34.73,57.546,45.139L33.506,62.777,0,64.309H0L29.453,76.841,45.985,98.047h0l2.077-24.5c7.864-5.719,15.783-11.4,23.684-17.093,14.343,14,28.125,28.234,42.542,42.2,2.395-1.409,3.218-1.652,4.415-2.356,1.079-.631-15.01-50.04-17.9-61.048q8.129-6.06,16.089-12.239C145.131,1.056,133.033-10.249,102.221,12.362Z" transform="translate(378.712 148.415)" fill="#d7b514" fill-rule="evenodd"/>
  </g>
</svg>
