<svg id="undraw_scooter_aia8" xmlns="http://www.w3.org/2000/svg" width="249.574" height="316.385" viewBox="0 0 249.574 316.385">
  <ellipse id="Elipse_84" data-name="Elipse 84" cx="124.787" cy="15.452" rx="124.787" ry="15.452" transform="translate(0 285.48)" fill="#efca16" opacity="0.1"/>
  <path id="Trazado_631" data-name="Trazado 631" d="M572.707,740.516a4.617,4.617,0,0,1-3.442-2.082c-3.442-5.206-12.575-20.063-6.16-22.113a25.421,25.421,0,0,1,3.108-.8,31.622,31.622,0,0,1,30.65,11.979,28.891,28.891,0,0,1,2.512,3.832,3.974,3.974,0,0,1-2.385,5.683C591.331,738.688,580.847,741.24,572.707,740.516Z" transform="translate(-491.018 -480.21)" fill="#efca16"/>
  <path id="Trazado_632" data-name="Trazado 632" d="M526.77,662.067l34.99-6.327h52.4l-7.488,11.542H533.9Z" transform="translate(-451.416 -402.579)" fill="#33323d"/>
  <path id="Trazado_649" data-name="Trazado 649" d="M590.956,765.313c0,8.02-5.612,14.522-12.527,14.522s-12.519-6.5-12.519-14.522V765.2c.056-7.949,5.643-14.411,12.519-14.411a12.069,12.069,0,0,1,10.262,6.216A15.953,15.953,0,0,1,590.956,765.313Z" transform="translate(-492.051 -487.542)" fill="#33323d"/>
  <path id="Trazado_650" data-name="Trazado 650" d="M713.8,769.193c0,15.444-7.988,27.972-17.837,27.972s-17.821-12.527-17.821-27.972c0-8.744,2.544-16.525,6.534-21.644,3.084-3.974,6.995-6.359,11.287-6.359a11.891,11.891,0,0,1,1.765.127c3.537.548,6.788,2.718,9.4,6.041a17.074,17.074,0,0,1,1.033,1.423C711.628,753.916,713.8,761.165,713.8,769.193Z" transform="translate(-515.072 -485.573)" fill="#33323d"/>
  <path id="Trazado_651" data-name="Trazado 651" d="M656.868,590.043,641.281,591.6l-2-16.661-.135-1.089-2.83-23.48-.127-1.089L621.87,430.5l-.31-2.528-8.537-70.895-.206-1.693-.891-7.408-.6-4.92H623.81l.676,5.1.111.811.31,2.281,10.707,80.012.286,2.146,15.27,114.072,3.346,25Z" transform="translate(-468.762 -338.44)" fill="#33323d"/>
  <path id="Trazado_652" data-name="Trazado 652" d="M697.633,741.24a11.924,11.924,0,0,1,1.765.127l-.445.3a10.008,10.008,0,0,0-3.974,9.26l2.528,24.037a3.053,3.053,0,0,1,0,.374,3.625,3.625,0,0,1-7.154.684c-1.041-5.509-3.013-16.764-3.9-26.93-.048-.541-.079-1.049-.079-1.534C689.43,743.617,693.341,741.24,697.633,741.24Z" transform="translate(-516.76 -485.583)" opacity="0.1"/>
  <path id="Trazado_653" data-name="Trazado 653" d="M705.933,750.423l-.549-.159c-.167-.437-.318-.866-.485-1.264A17.144,17.144,0,0,1,705.933,750.423Z" transform="translate(-520.561 -487.175)" opacity="0.1"/>
  <path id="Trazado_654" data-name="Trazado 654" d="M696.458,732.967s-12.678-.795-11.43,13.306c.9,10.166,2.87,21.414,3.9,26.922a3.625,3.625,0,0,0,4.109,2.909h0a3.625,3.625,0,0,0,3.06-3.974l-2.528-24.037a10,10,0,0,1,3.974-9.268c3-2.107,7-2.234,10.333,7.011l2.289.628S713.095,731.3,696.458,732.967Z" transform="translate(-516.467 -483.86)" fill="#504f60"/>
  <path id="Trazado_655" data-name="Trazado 655" d="M676.842,515.087a10.152,10.152,0,0,1-1.908.191h-4.467a10.262,10.262,0,0,1-10.166-9.125l-6.836-62.215a10.254,10.254,0,0,1,12.368-11.128Z" transform="translate(-509.998 -422.268)" opacity="0.1"/>
  <path id="Trazado_656" data-name="Trazado 656" d="M677.348,517.785a9.612,9.612,0,0,1-2.194.246h-4.467a10.143,10.143,0,0,1-7.361-3.179l-.31-2.536L654.48,441.43a10.19,10.19,0,0,1,11.883-5.842l10.7,80.02Z" transform="translate(-510.218 -422.82)" opacity="0.1"/>
  <path id="Trazado_657" data-name="Trazado 657" d="M653.464,445.306c1.645,14.967,5.119,46.611,6.836,62.231a10.222,10.222,0,0,0,10.166,9.109h4.459a10.039,10.039,0,0,0,9.658-6.86,8.8,8.8,0,0,0,.421-2.655c0-4.769-5.119-47.971-6.709-61.293a10.089,10.089,0,0,0-3.768-6.764,36,36,0,0,0-6.764-4.237A10.2,10.2,0,0,0,653.464,445.306Z" transform="translate(-509.997 -422.539)" fill="#efca16"/>
  <path id="Trazado_658" data-name="Trazado 658" d="M588.691,757.006l-3.354-.143a15.587,15.587,0,0,0-8.529,2.09l-10.492,6.041c-.135.072-.278.151-.405.207.056-7.949,5.644-14.411,12.519-14.411A12.078,12.078,0,0,1,588.691,757.006Z" transform="translate(-492.05 -487.542)" opacity="0.1"/>
  <path id="Trazado_659" data-name="Trazado 659" d="M660.962,626.611l-15.238,1.367-.135-1.089-2.83-23.481,14.856-1.789Z" transform="translate(-475.209 -391.478)" opacity="0.1"/>
  <path id="Trazado_660" data-name="Trazado 660" d="M660.407,708.956c2.448,35.769-22.6,35.109-22.6,35.109l-54.473-2.337a15.74,15.74,0,0,0-8.537,2.091l-10.492,6.049a5.46,5.46,0,0,1-6.121-.453h0a5.469,5.469,0,0,1-.978-7.559l4.435-5.914a9.269,9.269,0,0,1,7.949-3.688l57,3.251c23.051.413,30.873-51.15,30.873-51.15h0l14.991-1.8,3.338,25-15.365,1.375Z" transform="translate(-490.042 -473.545)" fill="#504f60"/>
  <path id="Trazado_661" data-name="Trazado 661" d="M624.485,348.155l-12.559-.175-.6-4.92H623.81Z" transform="translate(-468.762 -338.44)" opacity="0.1"/>
  <path id="Trazado_662" data-name="Trazado 662" d="M591.764,419.609l105.384,2.639a3.3,3.3,0,0,1,3.18,3.3h0a3.291,3.291,0,0,1-3.339,3.291l-105.376-1.47a3.291,3.291,0,0,1-3.243-3.291V422.9a3.291,3.291,0,0,1,3.394-3.291Z" transform="translate(-496.658 -419.608)" fill="#33323d"/>
</svg>
