<svg id="whatsapp-icon" xmlns="http://www.w3.org/2000/svg" width="154" height="154" viewBox="0 0 154 154">
  <path id="Trazado_411" data-name="Trazado 411" d="M0,154l13.244-39.729A75.664,75.664,0,1,1,43.12,142.655Z" fill="#3aa"/>
  <path id="Trazado_412" data-name="Trazado 412" d="M106.745,84.3c-3.494-6.6-16.38-14.155-16.38-14.155-2.915-1.662-6.434-1.848-8.1,1.115,0,0-4.187,5.021-5.252,5.743-4.864,3.3-9.37,3.168-13.918-1.381l-10.57-10.57-10.57-10.57c-4.548-4.548-4.676-9.054-1.381-13.918.722-1.065,5.743-5.252,5.743-5.252,2.963-1.665,2.777-5.18,1.115-8.1,0,0-7.551-12.886-14.155-16.38a7.238,7.238,0,0,0-8.5,1.28l-4.668,4.668C5.3,31.6,12.592,48.314,27.4,63.122L40.933,76.655,54.467,90.189C69.275,105,85.992,112.288,100.8,97.48l4.668-4.668A7.244,7.244,0,0,0,106.745,84.3Z" transform="translate(19.862 16.552)" fill="#fff"/>
</svg>
